/* XPM */
static char *result[] = {
/* columns rows colors chars-per-pixel */
"32 32 11 1 ",
"  c #40264D",
". c #563767",
"X c #644574",
"o c #428911",
"O c #6ABE30",
"+ c #37946E",
"@ c #9AFF55",
"# c #306082",
"$ c #5B6EE1",
"% c #FFB9EC",
"& c white",
/* pixels */
"                                ",
"   XXXXXXXXXXXXXXXXXXXXXXXXXX   ",
"  X..........................X  ",
" X............................X ",
" X.....X......................X ",
" X....XXX.....................X ",
" X.....X..............XX......X ",
" XXXXXX..............X  X.....X ",
"      XX.............X  X.....X ",
"   XX  X..............XX......X ",
"   X.X X......................X ",
"   X.X XX.....................X ",
"    XX oooooooooo.............X ",
"    Xoo@@@@@@@@@@ooo..........X ",
" XX o@@OOOOOOOOO&&@@oo........X ",
" X.o&OO%%%OOOOO&&&&O@@o.......X ",
" X.o&O%$&%%OOOOO&&OOOO@o......X ",
" Xo&OO%&#$%OOOOOOOOO&OO@o..X..X ",
" Xo@OO&$$$&OOOOOOOOOOOOO@oXXX.X ",
" XoOOOO&&&OOOOOOOOOOOOOOOo.X..X ",
" XoOOOOOOOOOOOOOOOOOOOOOOOo...X ",
" XoOOOOOOOOOOOOOOOOOOOOOOOo...X ",
" XoOOOOOOOOOOOOOOOOOOOOOOOOo..X ",
" X.oOOOOOOOOOOOOOOOOOOOOOOOo..X ",
" X..oOOOOO++++++++++++++OOOOo.X ",
" X...oOO++++++++++++++++++OOo.X ",
" X.......X XX.................X ",
" X.......X  X...XXXX..........X ",
" XX......XX X...X  XX.........X ",
"  XX.....X   XX.X    X.......X  ",
"   XXXXXXX     XX     XXXXXXX   ",
"                                "
};
