/* XPM */
static char *result[] = {
/* columns rows colors chars-per-pixel */
"32 32 11 1 ",
"  c #40264D",
". c #563767",
"X c #644574",
"o c #428911",
"O c #6ABE30",
"+ c #37946E",
"@ c #9AFF55",
"# c #306082",
"$ c #5B6EE1",
"% c #FFB9EC",
"& c white",
/* pixels */
"                                ",
"   XXXXXXXXXXXXXXXXXXXXXXXXXX   ",
"  X..........................X  ",
" X............................X ",
" X.....X......................X ",
" X....XXX.....................X ",
" X.....X..............XX......X ",
" XXXXXX..............X  X.....X ",
"      XX.............X  X.....X ",
"   XX  X..............XX......X ",
"   X.X X......................X ",
"   X.X Xoooooooooo............X ",
"    XXoo@@@@@@@@@@oo..........X ",
"    Xo&@OOOOOOOO&&@@o.........X ",
" XX o&OO%%%OOOO&&&&O@o........X ",
" X.Xo&O%$&%%OOOO&&OOO@o.......X ",
" X.o@OO%&#$%OOOOOOOO&O@o......X ",
" X.o@OO&$$$&OOOOOOOOOOO@o..X..X ",
" X.oOOOO&&&OOOOOOOOOOOOO@oXXX.X ",
" X.oOOOOOOOOOOOOOOOOOOOO@o.X..X ",
" X.oOOOOOOOOOOOOOOOOOOOOO@o...X ",
" X.oOOOOOOOOOOOOOOOOOOOOOOo...X ",
" X..oOOOOOOOOOOOOOOOOOOOOOOo..X ",
" X..oOOOOOOOOOOOOOOOOOOOOOOo..X ",
" X...oOOOOO++++++++++++OOOOOo.X ",
" X....oOO++++++++++++++++OOOo.X ",
" X.......X XX.................X ",
" X.......X  X...XXXX..........X ",
" XX......XX X...X  XX.........X ",
"  XX.....X   XX.X    X.......X  ",
"   XXXXXXX     XX     XXXXXXX   ",
"                                "
};
