/* XPM */
static char *result[] = {
/* columns rows colors chars-per-pixel */
"32 32 11 1 ",
"  c #40264D",
". c #563767",
"X c #644574",
"o c #428911",
"O c #6ABE30",
"+ c #37946E",
"@ c #9AFF55",
"# c #306082",
"$ c #5B6EE1",
"% c #FFB9EC",
"& c white",
/* pixels */
"                                ",
"   XXXXXXXXXXXXXXXXXXXXXXXXXX   ",
"  X..........................X  ",
" X............................X ",
" X......................X.....X ",
" X.....................XXX....X ",
" X......XX..............X.....X ",
" X.....X  X..............XXXXXX ",
" X.....X  X.............XX      ",
" X......XX..............X  XX   ",
" X......................X X.X   ",
" X............ooooooooooX X.X   ",
" X..........oo@@@@@@@@@@ooXX    ",
" X.........o@@&&OOOOOOOO@&oX    ",
" X........o@O&&&&OOOO%%%OO&o XX ",
" X.......o@OOO&&OOOO%%&$%O&oX.X ",
" X......o@O&OOOOOOOO%$#&%OO@o.X ",
" X..X..o@OOOOOOOOOOO&$$$&OO@o.X ",
" X.XXXo@OOOOOOOOOOOOO&&&OOOOo.X ",
" X..X.o@OOOOOOOOOOOOOOOOOOOOo.X ",
" X...o@OOOOOOOOOOOOOOOOOOOOOo.X ",
" X...oOOOOOOOOOOOOOOOOOOOOOOo.X ",
" X..oOOOOOOOOOOOOOOOOOOOOOOo..X ",
" X..oOOOOOOOOOOOOOOOOOOOOOOo..X ",
" X.oOOOOO++++++++++++OOOOOo...X ",
" X.oOOO++++++++++++++++OOo....X ",
" X.................XX X.......X ",
" X..........XXXX...X  X.......X ",
" X.........XX  X...X XX......XX ",
"  X.......X    X.XX   X.....XX  ",
"   XXXXXXX     XX     XXXXXXX   ",
"                                "
};
