/* XPM */
static char *result[] = {
/* columns rows colors chars-per-pixel */
"32 32 11 1 ",
"  c #40264D",
". c #563767",
"X c #644574",
"o c #428911",
"O c #6ABE30",
"+ c #37946E",
"@ c #9AFF55",
"# c #306082",
"$ c #5B6EE1",
"% c #FFB9EC",
"& c white",
/* pixels */
"                                ",
"   XXXXXXXXXXXXXXXXXXXXXXXXXX   ",
"  X..........................X  ",
" X............................X ",
" X.....X......................X ",
" X....XXX.....................X ",
" X.....X..............XX......X ",
" XXXXXX..............X  X.....X ",
"      XX.............X  X.....X ",
"   XX  X..............XX......X ",
"   X.X X..ooooooooo...........X ",
"   X.X Xoo@@@@@@@@@oo.........X ",
"    XX o&&OOOOOOOOO@@o........X ",
"    X o&OO%%%OOOOO&&O@o.......X ",
" XX   o@O%$&%%OOO&&&&O@o......X ",
" X.X o@OO%&#$%OOOO&&OOO@o.....X ",
" X..Xo@OO&$$$&OOOOOOO&O@o.....X ",
" X...o@OOO&&&OOOOOOOOOOO@o.X..X ",
" X...oOOOOOOOOOOOOOOOOOO@oXXX.X ",
" X...oOOOOOOOOOOOOOOOOOOOOoX..X ",
" X....oOOOOOOOOOOOOOOOOOOOo...X ",
" X....oOOOOOOOOOOOOOOOOOOOOo..X ",
" X....oOOOOOOOOOOOOOOOOOOOOo..X ",
" X.....oOOOOOOOOOOOOOOOOOOOOo.X ",
" X.....oOOOOO++++++++++OOOOOo.X ",
" X......oOO++++++++++++++OOOo.X ",
" X.......X XX.................X ",
" X.......X  X...XXXX..........X ",
" XX......XX X...X  XX.........X ",
"  XX.....X   XX.X    X.......X  ",
"   XXXXXXX     XX     XXXXXXX   ",
"                                "
};
