/* XPM */
static char *result[] = {
/* columns rows colors chars-per-pixel */
"32 32 11 1 ",
"  c #40264D",
". c #563767",
"X c #644574",
"o c #428911",
"O c #6ABE30",
"+ c #37946E",
"@ c #9AFF55",
"# c #306082",
"$ c #5B6EE1",
"% c #FFB9EC",
"& c white",
/* pixels */
"                                ",
"   XXXXXXXXXXXXXXXXXXXXXXXXXX   ",
"  X..........................X  ",
" X............................X ",
" X......................X.....X ",
" X.....................XXX....X ",
" X......XX..............X.....X ",
" X.....X  X..............XXXXXX ",
" X.....X  X.............XX      ",
" X......XX..............X  XX   ",
" X...........ooooooooo..X X.X   ",
" X.........oo@@@@@@@@@ooX X.X   ",
" X........o@@OOOOOOOOO&&o XX    ",
" X.......o@O&&OOOOO%%%OO&o X    ",
" X......o@O&&&&OOO%%&$%O@o   XX ",
" X.....o@OOO&&OOOO%$#&%OO@o X.X ",
" X.....o@O&OOOOOOO&$$$&OO@oX..X ",
" X..X.o@OOOOOOOOOOO&&&OOO@o...X ",
" X.XXXo@OOOOOOOOOOOOOOOOOOo...X ",
" X..XoOOOOOOOOOOOOOOOOOOOOo...X ",
" X...oOOOOOOOOOOOOOOOOOOOo....X ",
" X..oOOOOOOOOOOOOOOOOOOOOo....X ",
" X..oOOOOOOOOOOOOOOOOOOOOo....X ",
" X.oOOOOOOOOOOOOOOOOOOOOo.....X ",
" X.oOOOOO++++++++++OOOOOo.....X ",
" X.oOOO++++++++++++++OOo......X ",
" X.................XX X.......X ",
" X..........XXXX...X  X.......X ",
" X.........XX  X...X XX......XX ",
"  X.......X    X.XX   X.....XX  ",
"   XXXXXXX     XX     XXXXXXX   ",
"                                "
};
