/* XPM */
static char *result[] = {
/* columns rows colors chars-per-pixel */
"32 32 11 1 ",
"  c #40264D",
". c #563767",
"X c #644574",
"o c #428911",
"O c #6ABE30",
"+ c #37946E",
"@ c #9AFF55",
"# c #306082",
"$ c #5B6EE1",
"% c #FFB9EC",
"& c white",
/* pixels */
"                                ",
"   XXXXXXXXXXXXXXXXXXXXXXXXXX   ",
"  X..........................X  ",
" X............................X ",
" X.....X......................X ",
" X....XXX.....................X ",
" X.....X..............XX......X ",
" XXXXXX..............X  X.....X ",
"      XX.............X  X.....X ",
"   XX  X...ooooooo....XX......X ",
"   X.X X.oo@@@@@@@oo..........X ",
"   X.X oo@@OOOOOOO@@oo........X ",
"    XXo&&OOOOOOOO&&O@@o.......X ",
"    X o&O%%%OOOOO&&OO@o.......X ",
" XX  o&O%$&%%OOOOOOOOO@o......X ",
" X.X o@O%&#$%OOOOOOO&O@o......X ",
" X..Xo@O&$$$&OOOOOOOOOO@o.....X ",
" X...o@OO&&&OOOOOOOOOOO@o..X..X ",
" X...o@OOOOOOOOOOOOOOOOO@oXXX.X ",
" X...Xo@OOOOOOOOOOOOOOOOOo.X..X ",
" X....o@OOOOOOOOOOOOOOOOOOo...X ",
" X....oOOOOOOOOOOOOOOOOOOOo...X ",
" X.....oOOOOOOOOOOOOOOOOOOOo..X ",
" X.....oOOOOOOOOOOOOOOOOOOOo..X ",
" X......oOOOO+++++++++++OOOOo.X ",
" X......oOO+++++++++++++++OOo.X ",
" X.......X XX.................X ",
" X.......X  X...XXXX..........X ",
" XX......XX X...X  XX.........X ",
"  XX.....X   XX.X    X.......X  ",
"   XXXXXXX     XX     XXXXXXX   ",
"                                "
};
