/* XPM */
static char *result[] = {
/* columns rows colors chars-per-pixel */
"32 32 11 1 ",
"  c #40264D",
". c #563767",
"X c #644574",
"o c #428911",
"O c #6ABE30",
"+ c #37946E",
"@ c #9AFF55",
"# c #306082",
"$ c #5B6EE1",
"% c #FFB9EC",
"& c white",
/* pixels */
"                                ",
"   XXXXXXXXXXXXXXXXXXXXXXXXXX   ",
"  X..........................X  ",
" X............................X ",
" X......................X.....X ",
" X.....................XXX....X ",
" X......XX..............X.....X ",
" X.....X  X..............XXXXXX ",
" X.....X  X.............XX      ",
" X......XX....ooooooo...X  XX   ",
" X..........oo@@@@@@@oo.X X.X   ",
" X........oo@@OOOOOOO@@oo X.X   ",
" X.......o@@O&&OOOOOOOO&&oXX    ",
" X.......o@OO&&OOOOO%%%O&o X    ",
" X......o@OOOOOOOOO%%&$%O&o  XX ",
" X......o@O&OOOOOOO%$#&%O@o X.X ",
" X.....o@OOOOOOOOOO&$$$&O@oX..X ",
" X..X..o@OOOOOOOOOOO&&&OO@o...X ",
" X.XXXo@OOOOOOOOOOOOOOOOO@o...X ",
" X..X.oOOOOOOOOOOOOOOOOO@oX...X ",
" X...oOOOOOOOOOOOOOOOOOO@o....X ",
" X...oOOOOOOOOOOOOOOOOOOOo....X ",
" X..oOOOOOOOOOOOOOOOOOOOo.....X ",
" X..oOOOOOOOOOOOOOOOOOOOo.....X ",
" X.oOOOO+++++++++++OOOOo......X ",
" X.oOO+++++++++++++++OOo......X ",
" X.................XX X.......X ",
" X..........XXXX...X  X.......X ",
" X.........XX  X...X XX......XX ",
"  X.......X    X.XX   X.....XX  ",
"   XXXXXXX     XX     XXXXXXX   ",
"                                "
};
