/* XPM */
static char *result[] = {
/* columns rows colors chars-per-pixel */
"32 32 11 1 ",
"  c #40264D",
". c #563767",
"X c #644574",
"o c #428911",
"O c #6ABE30",
"+ c #37946E",
"@ c #9AFF55",
"# c #306082",
"$ c #5B6EE1",
"% c #FFB9EC",
"& c white",
/* pixels */
"                                ",
"   XXXXXXXXXXXXXXXXXXXXXXXXXX   ",
"  X..........................X  ",
" X............................X ",
" X......................X.....X ",
" X.....................XXX....X ",
" X......XX..............X.....X ",
" X.....X  X..............XXXXXX ",
" X.....X  X.............XX      ",
" X......XX..............X  XX   ",
" X......................X X.X   ",
" X.....................XX X.X   ",
" X.....................X  XX    ",
" X.....................XX  X    ",
" X.......................X   XX ",
" X...............ooooooooo  X.X ",
" X............ooo@@@@@@@@&ooo.X ",
" X..X.......oo@@@&&&OOOOOO&&&oo ",
" X.XXX....oo@@O&O&&OOOOOOOOOO@@o",
" X..X...oo@@OOOOOOOOOOOOOO%%%%O@",
" X.....o@@OOOOOOOOOOOOOOO%%&&$%@",
" X....o@OOOOOOOOOOOOOOOOO%$##&%@",
" X...o@OOOOOOOOOOOOOOOOOO&$$$$&O",
" X.oo@OOOOOOOOOOOOOOOOOOOO&&&&OO",
" XoOOO+++++++++++++++++++OOOOOOo",
" Xo+++++++++++++++++++++++++OOo ",
" X.................XX X.......X ",
" X..........XXXX...X  X.......X ",
" X.........XX  X...X XX......XX ",
"  X.......X    X.XX   X.....XX  ",
"   XXXXXXX     XX     XXXXXXX   ",
"                                "
};
