/* XPM */
static char *result[] = {
/* columns rows colors chars-per-pixel */
"32 32 11 1 ",
"  c #40264D",
". c #563767",
"X c #644574",
"o c #428911",
"O c #6ABE30",
"+ c #37946E",
"@ c #9AFF55",
"# c #306082",
"$ c #5B6EE1",
"% c #FFB9EC",
"& c white",
/* pixels */
"                                ",
"   XXXXXXXXXXXXXXXXXXXXXXXXXX   ",
"  X..........................X  ",
" X............................X ",
" X.....X......................X ",
" X....XXX.....................X ",
" X.....X..............XX......X ",
" XXXXXX..............X  X.....X ",
"      XX.............X  X.....X ",
"   XX  X..............XX......X ",
"   X.X X......................X ",
"   X.X XX.....................X ",
"    XX  oooooooo..............X ",
"    X oo@@@@@@@@ooo...........X ",
" XX oo@@OOOOOOOO&&@oo.........X ",
" X.o&&OOOOOOOOO&&&&@@oo.......X ",
" Xo&OOOOOOOOOOOO&&OOO@@o......X ",
" o@OO%%%OOOOOOOOOOO&OO@o...X..X ",
" o@O%$&%%OOOOOOOOOOOOOO@o.XXX.X ",
" o@O%&#$%OOOOOOOOOOOOOOO@o.X..X ",
" o@O&$$$&OOOOOOOOOOOOOOO@o....X ",
" oOOO&&&OOOOOOOOOOOOOOOOO@o...X ",
" XoOOOOOOOOOOOOOOOOOOOOOOOo...X ",
" X.oOOOOOOOOOOOOOOOOOOOOOOOo..X ",
" X..ooOOOOO+++++++++++++OOOOo.X ",
" X....oOO+++++++++++++++++OOo.X ",
" X.......X XX.................X ",
" X.......X  X...XXXX..........X ",
" XX......XX X...X  XX.........X ",
"  XX.....X   XX.X    X.......X  ",
"   XXXXXXX     XX     XXXXXXX   ",
"                                "
};
