/* XPM */
static char *result[] = {
/* columns rows colors chars-per-pixel */
"32 32 11 1 ",
"  c #40264D",
". c #563767",
"X c #644574",
"o c #428911",
"O c #6ABE30",
"+ c #37946E",
"@ c #9AFF55",
"# c #306082",
"$ c #5B6EE1",
"% c #FFB9EC",
"& c white",
/* pixels */
"                                ",
"   XXXXXXXXXXXXXXXXXXXXXXXXXX   ",
"  X..........................X  ",
" X............................X ",
" X......................X.....X ",
" X.....................XXX....X ",
" X......XX..............X.....X ",
" X.....X  X..............XXXXXX ",
" X.....X  X.............XX      ",
" X......XX..............X  XX   ",
" X......................X X.X   ",
" X.....................XX X.X   ",
" X..............oooooooo  XX    ",
" X...........ooo@@@@@@@@oo X    ",
" X.........oo@&&OOOOOOOO@@oo XX ",
" X.......oo@@&&&&OOOOOOOOO&&o.X ",
" X......o@@OOO&&OOOOOOOOOOOO&oX ",
" X..X...o@OO&OOOOOOOOOOO%%%OO@o ",
" X.XXX.o@OOOOOOOOOOOOOO%%&$%O@o ",
" X..X.o@OOOOOOOOOOOOOOO%$#&%O@o ",
" X....o@OOOOOOOOOOOOOOO&$$$&O@o ",
" X...o@OOOOOOOOOOOOOOOOO&&&OOOo ",
" X...oOOOOOOOOOOOOOOOOOOOOOOOoX ",
" X..oOOOOOOOOOOOOOOOOOOOOOOOo.X ",
" X.oOOOO+++++++++++++OOOOOoo..X ",
" X.oOO+++++++++++++++++OOo....X ",
" X.................XX X.......X ",
" X..........XXXX...X  X.......X ",
" X.........XX  X...X XX......XX ",
"  X.......X    X.XX   X.....XX  ",
"   XXXXXXX     XX     XXXXXXX   ",
"                                "
};
