/* XPM */
static char *result[] = {
/* columns rows colors chars-per-pixel */
"6 32 3 1 ",
"  c #40264D",
". c #563767",
"X c #644574",
/* pixels */
"      ",
"   XXX",
"  X...",
" X....",
" X....",
" X....",
" X....",
" XXXXX",
"      ",
"   XX ",
"   X.X",
"   X.X",
"    XX",
"    X ",
" XX   ",
" X.X  ",
" X..X ",
" X...X",
" X...X",
" X...X",
" X....",
" X....",
" X....",
" X....",
" X....",
" X....",
" X....",
" X....",
" XX...",
"  XX..",
"   XXX",
"      "
};
