/* XPM */
static char *result[] = {
/* columns rows colors chars-per-pixel */
"28 32 3 1 ",
"  c #40264D",
". c #563767",
"X c #644574",
/* pixels */
"                            ",
"   XXXXXXXXXXXXXXXXXXXXXXXXX",
"  X.........................",
" X..........................",
" X.....X....................",
" X....XXX...................",
" X.....X..............XX....",
" XXXXXX..............X  X...",
"      XX.............X  X...",
"   XX  X..............XX....",
"   X.X X....................",
"   X.X XX...................",
"    XX  X...................",
"    X  XX...................",
" XX   X.....................",
" X.X  XX....................",
" X..X  X....................",
" X...X X...................X",
" X...X X..................XX",
" X...X  X..................X",
" X....X X.......X...........",
" X....X  X.....X X..........",
" X.....X XX.....X...........",
" X.....X  X.................",
" X......X XX................",
" X......XX X................",
" X.......X XX...............",
" X.......X  X...XXXX........",
" XX......XX X...X  XX.......",
"  XX.....X   XX.X    X......",
"   XXXXXXX     XX     XXXXXX",
"                            "
};
