/* XPM */
static char *result[] = {
/* columns rows colors chars-per-pixel */
"2 32 2 1 ",
"  c #40264D",
". c #644574",
/* pixels */
"  ",
"  ",
"  ",
" .",
" .",
" .",
" .",
" .",
"  ",
"  ",
"  ",
"  ",
"  ",
"  ",
" .",
" .",
" .",
" .",
" .",
" .",
" .",
" .",
" .",
" .",
" .",
" .",
" .",
" .",
" .",
"  ",
"  ",
"  "
};
