/* XPM */
static char *result[] = {
/* columns rows colors chars-per-pixel */
"4 32 3 1 ",
"  c #40264D",
". c #563767",
"X c #644574",
/* pixels */
"    ",
"   X",
"  X.",
" X..",
" X..",
" X..",
" X..",
" XXX",
"    ",
"   X",
"   X",
"   X",
"    ",
"    ",
" XX ",
" X.X",
" X..",
" X..",
" X..",
" X..",
" X..",
" X..",
" X..",
" X..",
" X..",
" X..",
" X..",
" X..",
" XX.",
"  XX",
"   X",
"    "
};
