/* XPM */
static char *result[] = {
/* columns rows colors chars-per-pixel */
"8 32 3 1 ",
"  c #40264D",
". c #563767",
"X c #644574",
/* pixels */
"        ",
"   XXXXX",
"  X.....",
" X......",
" X.....X",
" X....XX",
" X.....X",
" XXXXXX.",
"      XX",
"   XX  X",
"   X.X X",
"   X.X X",
"    XX  ",
"    X  X",
" XX   X.",
" X.X  XX",
" X..X  X",
" X...X X",
" X...X X",
" X...X  ",
" X....X ",
" X....X ",
" X.....X",
" X.....X",
" X......",
" X......",
" X......",
" X......",
" XX.....",
"  XX....",
"   XXXXX",
"        "
};
