/* XPM */
static char *result[] = {
/* columns rows colors chars-per-pixel */
"32 32 14 1 ",
"  c #302C2E",
". c #472D3C",
"X c #40264D",
"o c #5E3643",
"O c #563767",
"+ c #5A5353",
"@ c #7A444A",
"# c #644574",
"$ c #A05B53",
"% c #BF7958",
"& c #EEA160",
"* c #CFC6B8",
"= c #F4CCA1",
"- c #DFF6F5",
/* pixels */
"XXXXXXXXXXXXXXXXXXXXXXXXXXXXXXXX",
"XXX######..........##########XXX",
"XX#OOOOO.$$$$$$$$....OOOOOOOO#XX",
"X#OOOOO..$$$$$$$$%%%..OOOOOOOO#X",
"X#OOOOO.====$====@.%%%.OOOOOOO#X",
"X#OOOO#.$...$...$$.%%%.OOOOOOO#X",
"X#OOOO#.$o.o$o.o$$.$%%.OOOOOOO#X",
"X#OOOOO.$$.$$$.$$$.$$%.OOOOOOO#X",
"X#OOOOOO $$$==$$$$..$%.O#OOOOO#X",
"X#OOOO   ....===$$o....###OOOO#X",
"X#OOOO =......==$$ooo..O#OOOOO#X",
"X#OOOO ===&&&&&&$$$$o OOOOOOOO#X",
"X#OOOOO &&&&&&&$$$$$o  OOOOOOO#X",
"X#OOOOOO $$$$$$$$$$$    OOOOOO#X",
"X#OOO--- $===$$$$$$$oooo OOOOO#X",
"X#OOO**--$====$$$$$$oo$$$ OOOO#X",
"X#OO#X**---====$$$$$$$$$$$ OOO#X",
"X#O#X $***---==$$$$$$$ $$$$ OO#X",
"X#OO# $$$***---=$$$$$$ $$$$ OO#X",
"X#OO  $$===***---$$$$ $$$$$ OO#X",
"X#O $ $$=====***--++ $$$$$$ OO#X",
"X# $$ $$=======**++ $$$$$$ OOO#X",
"X# $$ $$========$+ $$$$$$ OOOO#X",
"X# oo $$$======$$$ o$$$$ OOOOO#X",
"X# oo  $$======$$$ oooo OOOOOO#X",
"X#O  OO $$=&=   $$o    OOOOOOO#X",
"X#OOOO# $$$$$ O $$oooo OOOOOOO#X",
"X#OOOOO $$$o  O  $oooo #OOOOOO#X",
"X#OOOOO  $$o OOO $$ooo #OOOOO##X",
"XX#OOOOO $oo OOO $$$o  OOOOO##XX",
"XXX##### oo  ###  oo  #######XXX",
"XXXXXXXX    XXXXX    XXXXXXXXXXX"
};
