/* XPM */
static char *xpm_[] = {
/* columns rows colors chars-per-pixel */
"32 32 14 1 ",
"  c #302C2E",
". c #472D3C",
"X c #40264D",
"o c #5E3643",
"O c #563767",
"+ c #5A5353",
"@ c #7A444A",
"# c #644574",
"$ c #A05B53",
"% c #BF7958",
"& c #EEA160",
"* c #CFC6B8",
"= c #F4CCA1",
"- c #DFF6F5",
/* pixels */
"XXXXXXXXXXXXXXXXXXXXXXXXXXXXXXXX",
"XXX##########..........######XXX",
"XX#OOOOOOOO....$$$$$$$$.OOOOO#XX",
"X#OOOOOOOO..%%%$$$$$$$$..OOOOO#X",
"X#OOOOOOO.%%%.@====$====.OOOOO#X",
"X#OOOOOOO.%%%.$$...$...$.#OOOO#X",
"X#OOOOOOO.%%$.$$o.o$o.o$.#OOOO#X",
"X#OOOOOOO.%$$.$$$.$$$.$$.OOOOO#X",
"X#OOOOO#O.%$..$$$$==$$$ OOOOOO#X",
"X#OOOO###....o$$===....   OOOO#X",
"X#OOOOO#O..ooo$$==......= OOOO#X",
"X#OOOOOOOO o$$$$&&&&&&=== OOOO#X",
"X#OOOOOOO  o$$$$$&&&&&&& OOOOO#X",
"X#OOOOOO    $$$$$$$$$$$ OOOOOO#X",
"X#OOOOO oooo$$$$$$$===$ ---OOO#X",
"X#OOOO $$$oo$$$$$$====$--**OOO#X",
"X#OOO $$$$$$$$$$$====---**X#OO#X",
"X#OO $$$$ $$$$$$$==---***$ X#O#X",
"X#OO $$$$ $$$$$$=---***$$$ #OO#X",
"X#OO $$$$$ $$$$---***===$$  OO#X",
"X#OO $$$$$$ ++--***=====$$ $ O#X",
"X#OOO $$$$$$ ++**=======$$ $$ #X",
"X#OOOO $$$$$$ +$========$$ $$ #X",
"X#OOOOO $$$$o $$$======$$$ oo #X",
"X#OOOOOO oooo $$$======$$  oo #X",
"X#OOOOOOO    o$$   =&=$$ OO  O#X",
"X#OOOOOOO oooo$$ O $$$$$ #OOOO#X",
"X#OOOOOO# oooo$  O  o$$$ OOOOO#X",
"X##OOOOO# ooo$$ OOO o$$  OOOOO#X",
"XX##OOOOO  o$$$ OOO oo$ OOOOO#XX",
"XXX#######  oo  ###  oo #####XXX",
"XXXXXXXXXXX    XXXXX    XXXXXXXX"
};
