/* XPM */
static char *result[] = {
/* columns rows colors chars-per-pixel */
"32 32 14 1 ",
"  c #302C2E",
". c #472D3C",
"X c #40264D",
"o c #5E3643",
"O c #563767",
"+ c #5A5353",
"@ c #7A444A",
"# c #644574",
"$ c #A05B53",
"% c #BF7958",
"& c #EEA160",
"* c #CFC6B8",
"= c #F4CCA1",
"- c #DFF6F5",
/* pixels */
"XXXXXXXXXXXXXXXXXXXXXXXXXXXXXXXX",
"XXX##########################XXX",
"XX#OOOOOO..........OOOOOOOOOO#XX",
"X#OOOOOO.$$$$$$$$....OOOOOOOOO#X",
"X#OOOOO..$$$$$$$$%%%..OOOOOOOO#X",
"X#OOOO#.====$====@.%%%.OOOOOOO#X",
"X#OOOO#.$...$...$$.%%%.OOOOOOO#X",
"X#OOOOO.$o.o$o.o$$.$%%.OOOOOOO#X",
"X#OOOOO.$$.$$$.$$$.$$%.O#OOOOO#X",
"X#OOOOOO $$$==$$$$..$%.###OOOO#X",
"X#OOOO   ....===$$o....O#OOOOO#X",
"X#OOOO =......==$$ooo..OOOOOOO#X",
"X#OOOO ===&&&&&&$$$$o OOOOOOOO#X",
"X#OOOOO &&&&&&&$$$$$o  OOOOOOO#X",
"X#OOOOOO $$$$$$$$$$$    OOOOOO#X",
"X#OOO--- $===$$$$$$$oooo OOOOO#X",
"X#OO#**--$====$$$$$$oo$$$ OOOO#X",
"X#O#XX**---====$$$$$$$$$$$ OOO#X",
"X#OO# $***---==$$$$$$$ $$$$ OO#X",
"X#OOO $$$***---=$$$$$$ $$$$ OO#X",
"X#OO  $$===***---$$$$ $$$$$ OO#X",
"X#O $ $$=====***--++ $$$$$$ OO#X",
"X# $$ $$=======**++ $$$$$$ OOO#X",
"X# $$ $$========$+ $$$$$$ OOOO#X",
"X# oo $$$======$$$ o$$$$ OOOOO#X",
"X# oo  $$======$$$ oooo OOOOOO#X",
"X#O  O# $$=&=   $$o    OOOOOOO#X",
"X#OOOOO $$$$$ O $$$oo  #OOOOOO#X",
"X#OOOOO $$$o  O  $oooo.#OOOOO##X",
"XX#OOOO  $$o OOO $$ooo OOOOO##XX",
"XXX##### $oo ### $$$o  ######XXX",
"XXXXXXXX    XXXXX    XXXXXXXXXXX"
};
