/* XPM */
static char *xpm_[] = {
/* columns rows colors chars-per-pixel */
"32 32 14 1 ",
"  c #302C2E",
". c #472D3C",
"X c #40264D",
"o c #5E3643",
"O c #563767",
"+ c #5A5353",
"@ c #7A444A",
"# c #644574",
"$ c #A05B53",
"% c #BF7958",
"& c #EEA160",
"* c #CFC6B8",
"= c #F4CCA1",
"- c #DFF6F5",
/* pixels */
"XXXXXXXXXXXXXXXXXXXXXXXXXXXXXXXX",
"XXX##########################XXX",
"XX#OOOOOOOOOO..........OOOOOO#XX",
"X#OOOOOOOOO....$$$$$$$$.OOOOOO#X",
"X#OOOOOOOO..%%%$$$$$$$$..OOOOO#X",
"X#OOOOOOO.%%%.@====$====.#OOOO#X",
"X#OOOOOOO.%%%.$$...$...$.#OOOO#X",
"X#OOOOOOO.%%$.$$o.o$o.o$.OOOOO#X",
"X#OOOOO#O.%$$.$$$.$$$.$$.OOOOO#X",
"X#OOOO###.%$..$$$$==$$$ OOOOOO#X",
"X#OOOOO#O....o$$===....   OOOO#X",
"X#OOOOOOO..ooo$$==......= OOOO#X",
"X#OOOOOOOO o$$$$&&&&&&=== OOOO#X",
"X#OOOOOOO  o$$$$$&&&&&&& OOOOO#X",
"X#OOOOOO    $$$$$$$$$$$ OOOOOO#X",
"X#OOOOO oooo$$$$$$$===$ ---OOO#X",
"X#OOOO $$$oo$$$$$$====$--**#OO#X",
"X#OOO $$$$$$$$$$$====---**XX#O#X",
"X#OO $$$$ $$$$$$$==---***$ #OO#X",
"X#OO $$$$ $$$$$$=---***$$$ OOO#X",
"X#OO $$$$$ $$$$---***===$$  OO#X",
"X#OO $$$$$$ ++--***=====$$ $ O#X",
"X#OOO $$$$$$ ++**=======$$ $$ #X",
"X#OOOO $$$$$$ +$========$$ $$ #X",
"X#OOOOO $$$$o $$$======$$$ oo #X",
"X#OOOOOO oooo $$$======$$  oo #X",
"X#OOOOOOO    o$$   =&=$$ #O  O#X",
"X#OOOOOO#  oo$$$ O $$$$$ OOOOO#X",
"X##OOOOO#.oooo$  O  o$$$ OOOOO#X",
"XX##OOOOO ooo$$ OOO o$$  OOOO#XX",
"XXX######  o$$$ ### oo$ #####XXX",
"XXXXXXXXXXX    XXXXX    XXXXXXXX"
};
