/* XPM */
static char *result[] = {
/* columns rows colors chars-per-pixel */
"32 32 14 1 ",
"  c #302C2E",
". c #472D3C",
"X c #40264D",
"o c #5E3643",
"O c #563767",
"+ c #5A5353",
"@ c #7A444A",
"# c #644574",
"$ c #A05B53",
"% c #BF7958",
"& c #EEA160",
"* c #CFC6B8",
"= c #F4CCA1",
"- c #DFF6F5",
/* pixels */
"XXXXXXXXXXXXXXXXXXXXXXXXXXXXXXXX",
"XXX##########################XXX",
"XX#OOOOOOOOOOOOOOOOOOOOOOOOOO#XX",
"X#OOOOOOO..........OOOOOOOOOOO#X",
"X#OOOOOO.$$$$$$$$....OOOOOOOOO#X",
"X#OOOO#..$$$$$$$$%%%..OOOOOOOO#X",
"X#OOOO#.====$====@.%%%.OOOOOOO#X",
"X#OOOOO.$...$...$$.%%%.OOOOOOO#X",
"X#OOOOO.$o.o$o.o$$.$%%.O#OOOOO#X",
"X#OOOOO.$$.$$$.$$$.$$%.###OOOO#X",
"X#OOOOOO $$$==$$$$..$%.O#OOOOO#X",
"X#OOOO   ....===$$o....OOOOOOO#X",
"X#OOOO =......==$$ooo..OOOOOOO#X",
"X#OOOO ===&&&&&&$$$$o OOOOOOOO#X",
"X#OOOOO &&&&&&&$$$$$o  OOOOOOO#X",
"X#OOO--- $===$$$$$$$    OOOOOO#X",
"X#OO#**--$====$$$$$$oooo OOOOO#X",
"X#O#XX**---====$$$$$oo$$$ OOOO#X",
"X#OO# $***---==$$$$$$$$$$$ OOO#X",
"X#OOO $$$***---=$$$$$$ $$$$ OO#X",
"X#OOO $$===***---$$$$ $$$$$ OO#X",
"X#OO  $$=====***--++ $$$$$$ OO#X",
"X#O $ $$=======**++ $$$$$$$ OO#X",
"X# $$ $$========$+ $$$$$$  OOO#X",
"X# $$ $$$======$$$ o$$$$ OOOOO#X",
"X# oo  $$======$$$ oooo OOOOOO#X",
"X#O  O# $$=&=   $$o     OOOOOO#X",
"X#OOOOO $$$$$ O $$ooooo OOOOOO#X",
"X#OOOOO $$$o  O  $ooooo OOOOO##X",
"XX#OOOO  $$o OOO $$ooo OOOOO##XX",
"XXX##### $oo ### $$$o  ######XXX",
"XXXXXXXX    XXXXX    XXXXXXXXXXX"
};
