/* XPM */
static char *xpm_[] = {
/* columns rows colors chars-per-pixel */
"32 32 14 1 ",
"  c #302C2E",
". c #472D3C",
"X c #40264D",
"o c #5E3643",
"O c #563767",
"+ c #5A5353",
"@ c #7A444A",
"# c #644574",
"$ c #A05B53",
"% c #BF7958",
"& c #EEA160",
"* c #CFC6B8",
"= c #F4CCA1",
"- c #DFF6F5",
/* pixels */
"XXXXXXXXXXXXXXXXXXXXXXXXXXXXXXXX",
"XXX##########################XXX",
"XX#OOOOOOOOOOOOOOOOOOOOOOOOOO#XX",
"X#OOOOOOOOOOO..........OOOOOOO#X",
"X#OOOOOOOOO....$$$$$$$$.OOOOOO#X",
"X#OOOOOOOO..%%%$$$$$$$$..#OOOO#X",
"X#OOOOOOO.%%%.@====$====.#OOOO#X",
"X#OOOOOOO.%%%.$$...$...$.OOOOO#X",
"X#OOOOO#O.%%$.$$o.o$o.o$.OOOOO#X",
"X#OOOO###.%$$.$$$.$$$.$$.OOOOO#X",
"X#OOOOO#O.%$..$$$$==$$$ OOOOOO#X",
"X#OOOOOOO....o$$===....   OOOO#X",
"X#OOOOOOO..ooo$$==......= OOOO#X",
"X#OOOOOOOO o$$$$&&&&&&=== OOOO#X",
"X#OOOOOOO  o$$$$$&&&&&&& OOOOO#X",
"X#OOOOOO    $$$$$$$===$ ---OOO#X",
"X#OOOOO oooo$$$$$$====$--**#OO#X",
"X#OOOO $$$oo$$$$$====---**XX#O#X",
"X#OOO $$$$$$$$$$$==---***$ #OO#X",
"X#OO $$$$ $$$$$$=---***$$$ OOO#X",
"X#OO $$$$$ $$$$---***===$$ OOO#X",
"X#OO $$$$$$ ++--***=====$$  OO#X",
"X#OO $$$$$$$ ++**=======$$ $ O#X",
"X#OOO  $$$$$$ +$========$$ $$ #X",
"X#OOOOO $$$$o $$$======$$$ $$ #X",
"X#OOOOOO oooo $$$======$$  oo #X",
"X#OOOOOO     o$$   =&=$$ #O  O#X",
"X#OOOOOO ooooo$$ O $$$$$ OOOOO#X",
"X##OOOOO ooooo$  O  o$$$ OOOOO#X",
"XX##OOOOO ooo$$ OOO o$$  OOOO#XX",
"XXX######  o$$$ ### oo$ #####XXX",
"XXXXXXXXXXX    XXXXX    XXXXXXXX"
};
