/* XPM */
static char *result[] = {
/* columns rows colors chars-per-pixel */
"32 32 163 2 ",
"   c #302C2E",
".  c #332C30",
"X  c #342D30",
"o  c #352D30",
"O  c #362D31",
"+  c #352E30",
"@  c #372F30",
"#  c #332B35",
"$  c #382E32",
"%  c #3D2F34",
"&  c #3F2D37",
"*  c #352A39",
"=  c #362A3A",
"-  c #382E3B",
";  c #392F3B",
":  c #373234",
">  c #373334",
",  c #393031",
"<  c #3A3031",
"1  c #383335",
"2  c #3B313D",
"3  c #472D3C",
"4  c #4A2E3D",
"5  c #4B2F3D",
"6  c #4D2F3E",
"7  c #403333",
"8  c #413334",
"9  c #423036",
"0  c #453535",
"q  c #4B323A",
"w  c #4E303E",
"e  c #4E3838",
"r  c #51313F",
"t  c #56343F",
"y  c #56363F",
"u  c #5C3E3C",
"i  c #3B2744",
"p  c #3E2748",
"a  c #3D3042",
"s  c #3E3042",
"d  c #3E3044",
"f  c #3F3144",
"g  c #3F3045",
"h  c #40264D",
"j  c #403047",
"k  c #413147",
"l  c #423546",
"z  c #443649",
"x  c #4C304A",
"c  c #4C314B",
"v  c #4D314B",
"b  c #573341",
"n  c #593441",
"m  c #583640",
"M  c #593641",
"N  c #5E3643",
"B  c #5A3940",
"V  c #5D3842",
"C  c #5F3942",
"Z  c #473251",
"A  c #4C3458",
"S  c #53365F",
"D  c #633B43",
"F  c #643C44",
"G  c #683C45",
"H  c #693C46",
"J  c #6A3D46",
"K  c #513560",
"L  c #523661",
"P  c #533663",
"I  c #543560",
"U  c #543661",
"Y  c #553663",
"T  c #543664",
"R  c #543764",
"E  c #543665",
"W  c #563767",
"Q  c #563F61",
"!  c #5A5353",
"~  c #714743",
"^  c #704047",
"/  c #724844",
"(  c #764945",
")  c #784A46",
"_  c #794B46",
"`  c #7B4C47",
"'  c #724148",
"]  c #734248",
"[  c #744248",
"{  c #64564D",
"}  c #685553",
"|  c #5E426C",
" . c #61426E",
".. c #644574",
"X. c #726A68",
"o. c #6C7172",
"O. c #737271",
"+. c #814B4B",
"@. c #834C4B",
"#. c #864D4C",
"$. c #874E4D",
"%. c #87514B",
"&. c #89514B",
"*. c #8B504E",
"=. c #8D534D",
"-. c #8D514E",
";. c #8E544D",
":. c #91534F",
">. c #92534F",
",. c #90544E",
"<. c #92554E",
"1. c #92544F",
"2. c #965550",
"3. c #985651",
"4. c #A05B53",
"5. c #82645F",
"6. c #93605C",
"7. c #AA6C53",
"8. c #B16A56",
"9. c #B97357",
"0. c #BA7457",
"q. c #BB7557",
"w. c #BF7958",
"e. c #B27464",
"r. c #B47565",
"t. c #B57766",
"y. c #B67968",
"u. c #B87B69",
"i. c #AD7A74",
"p. c #AE9278",
"a. c #B9957E",
"s. c #EEA160",
"d. c #F0AE73",
"f. c #F0AE74",
"g. c #97888E",
"h. c #998A90",
"j. c #B58E88",
"k. c #BEA094",
"l. c #C6A286",
"z. c #C9A488",
"x. c #D7A586",
"c. c #D8A787",
"v. c #DAA989",
"b. c #DCAC8B",
"n. c #DEAE8C",
"m. c #C0A397",
"M. c #F2C08F",
"N. c #CFC6B8",
"B. c #D8C7B3",
"V. c #DAC8B1",
"C. c #D9C8B2",
"Z. c #F4CCA1",
"A. c #EFD6B5",
"S. c #EED7B7",
"D. c #EED8BA",
"F. c #AFB1C2",
"G. c #D9E5DF",
"H. c #D9E5E0",
"J. c #DAE7E2",
"K. c #DAE8E4",
"L. c #DBEAE6",
"P. c #DBEBE8",
"I. c #DFF6F5",
/* pixels */
"h h h h h h h h h h h h h h h h h h h h h h h h h h h h h h h h ",
"h h h ....................................................h h h ",
"h h ..W W W W W W W W W W W W W W W W W W W W W W W W W W ..h h ",
"h ..W W W W W W W W W W W W W W W W W W W W W W W W W W W W ..h ",
"h ..W W W W W W W x 3 3 3 3 3 3 3 3 3 S W W W W W W W W W W ..h ",
"h ..W W W W ....v @.4.4.4.4.4.4.4.M 3 3 3 I W W W W W W W W ..h ",
"h ..W W W W ..c 3 @.4.4.4.4.4.4.4.9.w.w.B 3 U W W W W W W W ..h ",
"h ..W W W W W c a.Z.Z.Z.u.n.Z.Z.Z.6.r 7.w.w.y Y W W W W W W ..h ",
"h ..W W W W W c +.F 3 3 $.C 3 3 -.4.m 7.w.w.y Y ..W W W W W ..h ",
"h ..W W W W W c +.[ w b -.^ 6 n >.4.m :.0.w.y  .....W W W W ..h ",
"h ..W W W W W c +.4.D #.4.4.V *.4.4.m :.4.q.y Y ..W W W W W ..h ",
"h ..W W W W W W a ` 4.4.b.Z.t.4.4.4.m 3 1.q.y Y W W W W W W ..h ",
"h ..W W W W d     & 3 3 3 l.Z.Z.e.4.J 5 3 3 3 Y W W W W W W ..h ",
"h ..W W W W d p.5.3 3 3 3 3 z.Z.e.4.J N N 4 3 Y W W W W W W ..h ",
"h ..W W W W d p.Z.Z.f.s.s.s.s.s.8.4.4.4.G O K W W W W W W W ..h ",
"h ..W W W F.I.I.o.` v.Z.Z.y.4.4.4.4.4.4.G O K W W W W W W W ..h ",
"h ..W W ..g.N.G.I.j.v.Z.Z.Z.t.4.4.4.4.4.8       L W W W W W ..h ",
"h ..W ..h h h.N.H.I.I.D.Z.Z.Z.r.4.4.4.4.G N N N X P W W W W ..h ",
"h ..W W ..= ( k.N.N.J.I.I.S.Z.r.4.4.4.4.G N 3.4.4., R W W W ..h ",
"h ..W W W z ( 4.4.m.N.N.K.I.I.A.e.4.4.4.4.4.4.4.4.4.@ T W W ..h ",
"h ..W W W f ( 4.x.Z.Z.V.N.N.L.I.I.i.4.4.4.7 <.4.4.4.4.+ E W ..h ",
"h ..W W g   ( 4.x.Z.Z.Z.Z.C.N.N.P.I.O.! : ,.4.4.4.4.4.+ E W ..h ",
"h ..W j / u ( 4.x.Z.Z.Z.Z.Z.Z.B.N.X.! > ;.4.4.4.4.4.4.+ E W ..h ",
"h ..k ~ 4.u ( 4.x.Z.Z.Z.Z.Z.Z.Z.e.} 1 =.4.4.4.4.4.,   T W W ..h ",
"h ..k ~ 4.u ( 4.4.c.Z.Z.Z.Z.Z.r.4.4.0 t 2.4.4.4.< P W W W W ..h ",
"h ..k q N 9   ) 4.c.Z.Z.Z.Z.Z.r.4.4.0 t N N N o L W W W W W ..h ",
"h ..W j   Z ..s _ 4.v.d.M.{     %.4.J $         L W W W W W ..h ",
"h ..W W W W W s _ 4.4.4.4.e A ; %.4.J N N N N o L W W W W W ..h ",
"h ..W W W W W s _ 4.4.' %   A ;   &.J N N N 4 . L W W W W ....h ",
"h h ..W W W W s   ` 4.' % A W W - &.4.H N N O L W W W W ....h h ",
"h h h ..........l ` ] N % Q ....2 &.4.4.G O   | ..........h h h ",
"h h h h h h h h *       i h h h h #       p h h h h h h h h h h "
};
