/* XPM */
static char *xpm_[] = {
/* columns rows colors chars-per-pixel */
"32 32 163 2 ",
"   c #302C2E",
".  c #332C30",
"X  c #342D30",
"o  c #352D30",
"O  c #362D31",
"+  c #352E30",
"@  c #372F30",
"#  c #332B35",
"$  c #382E32",
"%  c #3D2F34",
"&  c #3F2D37",
"*  c #352A39",
"=  c #362A3A",
"-  c #382E3B",
";  c #392F3B",
":  c #373234",
">  c #373334",
",  c #393031",
"<  c #3A3031",
"1  c #383335",
"2  c #3B313D",
"3  c #472D3C",
"4  c #4A2E3D",
"5  c #4B2F3D",
"6  c #4D2F3E",
"7  c #403333",
"8  c #413334",
"9  c #423036",
"0  c #453535",
"q  c #4B323A",
"w  c #4E303E",
"e  c #4E3838",
"r  c #51313F",
"t  c #56343F",
"y  c #56363F",
"u  c #5C3E3C",
"i  c #3B2744",
"p  c #3E2748",
"a  c #3D3042",
"s  c #3E3042",
"d  c #3E3044",
"f  c #3F3144",
"g  c #3F3045",
"h  c #40264D",
"j  c #403047",
"k  c #413147",
"l  c #423546",
"z  c #443649",
"x  c #4C304A",
"c  c #4C314B",
"v  c #4D314B",
"b  c #573341",
"n  c #593441",
"m  c #583640",
"M  c #593641",
"N  c #5E3643",
"B  c #5A3940",
"V  c #5D3842",
"C  c #5F3942",
"Z  c #473251",
"A  c #4C3458",
"S  c #53365F",
"D  c #633B43",
"F  c #643C44",
"G  c #683C45",
"H  c #693C46",
"J  c #6A3D46",
"K  c #513560",
"L  c #523661",
"P  c #533663",
"I  c #543560",
"U  c #543661",
"Y  c #553663",
"T  c #543664",
"R  c #543764",
"E  c #543665",
"W  c #563767",
"Q  c #563F61",
"!  c #5A5353",
"~  c #714743",
"^  c #704047",
"/  c #724844",
"(  c #764945",
")  c #784A46",
"_  c #794B46",
"`  c #7B4C47",
"'  c #724148",
"]  c #734248",
"[  c #744248",
"{  c #64564D",
"}  c #685553",
"|  c #5E426C",
" . c #61426E",
".. c #644574",
"X. c #726A68",
"o. c #6C7172",
"O. c #737271",
"+. c #814B4B",
"@. c #834C4B",
"#. c #864D4C",
"$. c #874E4D",
"%. c #87514B",
"&. c #89514B",
"*. c #8B504E",
"=. c #8D534D",
"-. c #8D514E",
";. c #8E544D",
":. c #91534F",
">. c #92534F",
",. c #90544E",
"<. c #92554E",
"1. c #92544F",
"2. c #965550",
"3. c #985651",
"4. c #A05B53",
"5. c #82645F",
"6. c #93605C",
"7. c #AA6C53",
"8. c #B16A56",
"9. c #B97357",
"0. c #BA7457",
"q. c #BB7557",
"w. c #BF7958",
"e. c #B27464",
"r. c #B47565",
"t. c #B57766",
"y. c #B67968",
"u. c #B87B69",
"i. c #AD7A74",
"p. c #AE9278",
"a. c #B9957E",
"s. c #EEA160",
"d. c #F0AE73",
"f. c #F0AE74",
"g. c #97888E",
"h. c #998A90",
"j. c #B58E88",
"k. c #BEA094",
"l. c #C6A286",
"z. c #C9A488",
"x. c #D7A586",
"c. c #D8A787",
"v. c #DAA989",
"b. c #DCAC8B",
"n. c #DEAE8C",
"m. c #C0A397",
"M. c #F2C08F",
"N. c #CFC6B8",
"B. c #D8C7B3",
"V. c #DAC8B1",
"C. c #D9C8B2",
"Z. c #F4CCA1",
"A. c #EFD6B5",
"S. c #EED7B7",
"D. c #EED8BA",
"F. c #AFB1C2",
"G. c #D9E5DF",
"H. c #D9E5E0",
"J. c #DAE7E2",
"K. c #DAE8E4",
"L. c #DBEAE6",
"P. c #DBEBE8",
"I. c #DFF6F5",
/* pixels */
"h h h h h h h h h h h h h h h h h h h h h h h h h h h h h h h h ",
"h h h ....................................................h h h ",
"h h ..W W W W W W W W W W W W W W W W W W W W W W W W W W ..h h ",
"h ..W W W W W W W W W W W W W W W W W W W W W W W W W W W W ..h ",
"h ..W W W W W W W W W W S 3 3 3 3 3 3 3 3 3 c W W W W W W W ..h ",
"h ..W W W W W W W W I 3 3 3 M 4.4.4.4.4.4.4.@.c ....W W W W ..h ",
"h ..W W W W W W W I 3 B w.w.9.4.4.4.4.4.4.4.@.3 c ..W W W W ..h ",
"h ..W W W W W W I y w.w.7.r 6.Z.Z.Z.n.u.Z.Z.Z.a.c W W W W W ..h ",
"h ..W W W W W ..I y w.w.7.M 4.-.3 3 V $.3 3 F +.c W W W W W ..h ",
"h ..W W W W .... .y w.q.:.M 4.:.M 6 ^ -.b w [ +.c W W W W W ..h ",
"h ..W W W W W ..I y q.4.:.M 4.4.*.V 4.4.$.D 4.+.c W W W W W ..h ",
"h ..W W W W W W I y q.1.3 M 4.4.4.t.Z.b.4.4.` s W W W W W W ..h ",
"h ..W W W W W W I 3 3 3 5 J 4.e.Z.Z.l.3 3 3 %     f W W W W ..h ",
"h ..W W W W W W I 3 5 N N J 4.e.Z.z.3 3 3 3 3 5.p.f W W W W ..h ",
"h ..W W W W W W W K O J 4.4.4.8.s.s.s.s.s.f.Z.Z.p.f W W W W ..h ",
"h ..W W W W W W W K O J 4.4.4.4.4.4.y.Z.Z.v.` o.I.I.F.W W W ..h ",
"h ..W W W W W K       8 4.4.4.4.4.t.Z.Z.Z.v.j.I.G.N.g...W W ..h ",
"h ..W W W W K O N N N J 4.4.4.4.t.Z.Z.Z.D.I.I.H.N.h.h h ..W ..h ",
"h ..W W W W , 4.4.3.N J 4.4.4.4.t.Z.A.I.I.H.N.N.k.( * ..W W ..h ",
"h ..W W W O 4.4.4.4.4.4.4.4.4.e.A.I.I.K.N.N.m.4.4.( z W W W ..h ",
"h ..W W O 4.4.4.4.1.7 4.4.4.i.I.I.K.N.N.V.Z.Z.x.4.( f W W W ..h ",
"h ..W W O 4.4.4.4.4.1.> ! O.I.P.N.N.V.Z.Z.Z.Z.x.4.(   f W W ..h ",
"h ..W W O 4.4.4.4.4.4.;.> ! X.N.B.Z.Z.Z.Z.Z.Z.x.4.( u / j W ..h ",
"h ..W W W   , 4.4.4.4.4.-.1 } e.Z.Z.Z.Z.Z.Z.Z.x.4.( u 4.~ j ..h ",
"h ..W W W W K , 4.4.4.2.y 0 4.4.t.Z.Z.Z.Z.Z.c.4.4.( u 4.~ j ..h ",
"h ..W W W W W K O N N N y 0 4.4.t.Z.Z.Z.Z.Z.c.4._   8 N q j ..h ",
"h ..W W W W W K         $ J 4.%.    { M.d.v.4._ s ..Z   j W ..h ",
"h ..W W W W W K O N N N N J 4.%.- A e 4.4.4.4._ s W W W W W ..h ",
"h ....W W W W K . 5 N N N J &.  - A   % ' 4.4._ s W W W W W ..h ",
"h h ....W W W W K O N N J 4.&.- W W A % ' 4.`   s W W W W ..h h ",
"h h h ..........|   O J 4.4.&.2 ....Q % N ' ` l ..........h h h ",
"h h h h h h h h h h p       # h h h h i       * h h h h h h h h "
};
