/* XPM */
static char *xpm_[] = {
/* columns rows colors chars-per-pixel */
"32 32 171 2 ",
"   c #302C2E",
".  c #342C30",
"X  c #342D30",
"o  c #332A35",
"O  c #342D34",
"+  c #382E32",
"@  c #3E2F35",
"#  c #3F2F35",
"$  c #362A39",
"%  c #392F3B",
"&  c #3A2F3C",
"*  c #393031",
"=  c #3A3031",
"-  c #3E3233",
";  c #3D323E",
":  c #472D3C",
">  c #4C2F3D",
",  c #4D2F3E",
"<  c #403333",
"1  c #413334",
"2  c #433434",
"3  c #4B323A",
"4  c #4C323B",
"5  c #4D323B",
"6  c #4E333C",
"7  c #4F333C",
"8  c #4F3938",
"9  c #54343E",
"0  c #55343F",
"q  c #513A39",
"w  c #553B3A",
"e  c #563C3B",
"r  c #583D3B",
"t  c #5A3E3C",
"y  c #5C3E3C",
"u  c #4C423E",
"i  c #3B2844",
"p  c #3D2748",
"a  c #3E274A",
"s  c #3E3044",
"d  c #3F3144",
"f  c #3F3045",
"g  c #40264D",
"h  c #403047",
"j  c #413147",
"k  c #413148",
"l  c #443549",
"z  c #443649",
"x  c #4C304A",
"c  c #4C314B",
"v  c #4C314C",
"b  c #4D314D",
"n  c #553340",
"m  c #563340",
"M  c #563341",
"N  c #553440",
"B  c #563540",
"V  c #583441",
"C  c #593541",
"Z  c #593641",
"A  c #5A3741",
"S  c #5A3442",
"D  c #5E3643",
"F  c #5F3942",
"G  c #4B3357",
"H  c #4C3458",
"J  c #523652",
"K  c #50355E",
"L  c #51355E",
"P  c #53365F",
"I  c #603A42",
"U  c #643C44",
"Y  c #663D44",
"T  c #6A3D46",
"R  c #6C3E46",
"E  c #513560",
"W  c #523661",
"Q  c #533663",
"!  c #543560",
"~  c #543764",
"^  c #563767",
"/  c #553E60",
"(  c #4C4646",
")  c #4C4647",
"_  c #4D4747",
"`  c #5A5353",
"'  c #6D4642",
"]  c #6F4643",
"[  c #6E4645",
"{  c #62464C",
"}  c #714743",
"|  c #714047",
" . c #724844",
".. c #764945",
"X. c #784A46",
"o. c #794B46",
"O. c #7D4C47",
"+. c #754348",
"@. c #774449",
"#. c #705254",
"$. c #725555",
"%. c #5B4169",
"&. c #5E426C",
"*. c #60416C",
"=. c #644574",
"-. c #654C77",
";. c #70537B",
":. c #71557C",
">. c #844D4C",
",. c #864D4C",
"<. c #894E4D",
"1. c #8A4F4D",
"2. c #8A4F4E",
"3. c #8B4F4E",
"4. c #86504A",
"5. c #8B504E",
"6. c #8F524F",
"7. c #91524F",
"8. c #91534F",
"9. c #94564F",
"0. c #925C4D",
"q. c #965F4E",
"w. c #8B5953",
"e. c #935350",
"r. c #945450",
"t. c #955550",
"y. c #A05B53",
"u. c #A96454",
"i. c #AB6555",
"p. c #AB6655",
"a. c #AD6D5F",
"s. c #BF7958",
"d. c #A76A61",
"f. c #AE6E60",
"g. c #A86D64",
"h. c #B07062",
"j. c #B27464",
"k. c #B47565",
"l. c #D88D5C",
"z. c #EEA160",
"x. c #EFAA6E",
"c. c #ACA49A",
"v. c #C6A686",
"b. c #D0A487",
"n. c #DCAC8B",
"m. c #DEAE8C",
"M. c #DFB08D",
"N. c #D9B391",
"B. c #E0B28F",
"V. c #E2B390",
"C. c #F3C394",
"Z. c #F3C495",
"A. c #CFC6B8",
"S. c #EBCBA6",
"D. c #EACAA7",
"F. c #ECCBA6",
"G. c #F4CCA1",
"H. c #B5C3C2",
"J. c #CCC8C5",
"K. c #D1CDC1",
"L. c #D1CDC2",
"P. c #D2CFC3",
"I. c #D2D0C5",
"U. c #D3D2C7",
"Y. c #D3D3C9",
"T. c #C4D6D6",
"R. c #D4DBD9",
"E. c #E5EBDF",
"W. c #DFF6F5",
"Q. c #E4ECE1",
"!. c #E3EDE4",
/* pixels */
"g g g g g g g g g g g g g g g g g g g g g g g g g g g g g g g g ",
"g g g =.=.=.=.=.=.=.=.=.=.=.=.=.=.=.=.=.=.=.=.=.=.=.=.=.=.g g g ",
"g g =.^ ^ ^ ^ ^ ^ ^ ^ ^ c : : : : : : : : : K ^ ^ ^ ^ ^ ^ =.g g ",
"g =.^ ^ ^ ^ ^ ^ ^ ^ c : : : ,.y.y.y.y.y.y.y.N ! ^ ^ ^ ^ ^ ^ =.g ",
"g =.^ ^ ^ ^ ^ ^ ^ v : q.s.s.u.y.y.y.y.y.y.y.N : ! ^ ^ ^ ^ ^ =.g ",
"g =.^ ^ ^ ^ ^ ^ v 0.s.s.[ T b.G.G.G.k.V.G.G.G.{ *.=.^ ^ ^ ^ =.g ",
"g =.^ ^ ^ ^ ^ ^ v 0.s.s.[ ,.y.I : : 5.C : : 8.N ! =.^ ^ ^ ^ =.g ",
"g =.^ ^ ^ ^ ^ ^ v 0.s.u.U ,.y.| > C 8.R > C r.N ! ^ ^ ^ ^ ^ =.g ",
"g =.^ ^ ^ ^ ^ =.v 0.u.y.U ,.y.y.F 3.y.y.C 6.y.N ! ^ ^ ^ ^ ^ =.g ",
"g =.^ ^ ^ ^ =.=.J 0.u.U : ,.y.y.y.M.G.j.y.y.2 K ^ ^ ^ ^ ^ ^ =.g ",
"g =.^ ^ ^ ^ ^ =.v : : : m 3.y.n.G.G.#.: : : X     Q ^ ^ ^ ^ =.g ",
"g =.^ ^ ^ ^ ^ ^ v : m D D 3.y.n.G.$.: : : : : N.u Q ^ ^ ^ ^ =.g ",
"g =.^ ^ ^ ^ ^ ^ ^ s 5 3.y.y.y.l.z.z.z.z.z.Z.G.G.u Q ^ ^ ^ ^ =.g ",
"g =.^ ^ ^ ^ ^ s       o.y.y.y.y.y.y.y.y.y.y.2 K ^ ^ ^ ^ ^ ^ =.g ",
"g =.^ ^ ^ ^ h 3 D D D 3.y.y.y.y.y.y.B.G.G.h.2 T.W.W.-.^ ^ ^ =.g ",
"g =.^ ^ ^ h } y.y.@.D 3.y.y.y.y.y.M.G.G.G.h.R.W.P.A.;.^ ^ ^ =.g ",
"g =.^ ^ k ' y.y.y.y.y.y.y.y.y.y.m.G.G.G.!.W.W.P.A.:.g =.^ ^ =.g ",
"g =.^ k ' y.y.y.y ..y.y.y.y.y.y.m.G.Q.W.W.P.A.A.d.- p g =.^ =.g ",
"g =.^ k ' y.y.y.y ..y.y.y.y.y.n.E.W.W.U.A.A.g.y.y.- p =.^ ^ =.g ",
"g =.^ k ' y.y.y.y.t o.y.y.y.J.W.W.U.A.A.F.G.G.a.y.- &.^ ^ ^ =.g ",
"g =.^ k ' y.y.y.y.y.r ) ` H.W.Y.A.A.S.G.G.G.G.a.y.-   Q ^ ^ =.g ",
"g =.^ ^ k ' y.y.y.y.y.e ) ` c.A.S.G.G.G.G.G.G.a.y.- 9.* Q ^ =.g ",
"g =.^ ^ ^ h } y.y.y.y.y.w ) w.n.G.G.G.G.G.G.G.a.y.- 9.y.* ^ =.g ",
"g =.^ ^ ^ ^ h  .y.y.y.+.@ O.y.y.m.G.G.G.G.G.f.y.y.- 9.y.* ^ =.g ",
"g =.^ ^ ^ ^ ^ s 5 D D D @ O.y.y.m.G.G.G.G.G.f.y.<   C D X ^ =.g ",
"g =.^ ^ ^ ^ ^ ^ s       6 3.y.8     v.x.C.h.y.1 K ^ O   Q ^ =.g ",
"g =.^ ^ ^ ^ ^ ^ s 5 D D D 3.y.8 H & 4.y.y.y.y.1 K =.^ ^ ^ ^ =.g ",
"g =.^ ^ ^ ^ ^ ^ J m D D D 3.q   H &   9 e.y.y.1 K ^ ^ ^ ^ ^ =.g ",
"g =.=.^ ^ ^ ^ ^ z 5 D D 3.y.q G ^ ^ % 9 e.y.2   K ^ ^ ^ ^ ^ =.g ",
"g g =.=.^ ^ ^ ^ s   5 3.y.y.q G ^ ^ % 9 D r.2 K ^ ^ ^ ^ ^ =.g g ",
"g g g =.=.=.=.=.=.z   6 D @   / =.=.;   9 D + %.=.=.=.=.=.g g g ",
"g g g g g g g g g g $       i g g g g o       p g g g g g g g g "
};
