/* XPM */
static char *result[] = {
/* columns rows colors chars-per-pixel */
"32 32 14 1 ",
"  c #302C2E",
". c #472D3C",
"X c #40264D",
"o c #5E3643",
"O c #563767",
"+ c #5A5353",
"@ c #7A444A",
"# c #644574",
"$ c #A05B53",
"% c #BF7958",
"& c #EEA160",
"* c #CFC6B8",
"= c #F4CCA1",
"- c #DFF6F5",
/* pixels */
"XXXXXXXXXXXXXXXXXXXXXXXXXXXXXXXX",
"XXX#######..........#########XXX",
"XX#OOOOOO.$$$$$$$$....OOOOOOO#XX",
"X#OOOOOO..$$$$$$$$%%%..OOOOOOO#X",
"X#OOOOOO.====$====@.%%%.OOOOOO#X",
"X#OOOO##.$...$...$$.%%%.OOOOOO#X",
"X#OOOO#O.$o.o$o.o$$.$%%.OOOOOO#X",
"X#OOOOOO.$$.$$$.$$$.$$%.OOOOOO#X",
"X#OOOOOOO $$$==$$$$..$%.#OOOOO#X",
"X#OOOOO   ....===$$o....##OOOO#X",
"X#OOOOO =......==$$ooo..#OOOOO#X",
"X#OOOOO ===&&&&&&$$$$o OOOOOOO#X",
"X#OOOOOO &&&&&&&$$$$$o  OOOOOO#X",
"X#OOOOOOO $$$$$$$$$$$    OOOOO#X",
"X#OOOO--- $===$$$$$$$oooo OOOO#X",
"X#OOO#**--$====$$$$$$oo$$$ OOO#X",
"X#OO#X#**---====$$$$$$$$$$$ OO#X",
"X#O#XX $***---==$$$$$$$ $$$$ O#X",
"X#OO#X $$$***---=$$$$$$ $$$$ O#X",
"X#OOO# $$===***---$$$$ $$$$$ O#X",
"X#OOO  $$=====***--++ $$$$$$ O#X",
"X#OO $ $$=======**++ $$$$$$ OO#X",
"X#O $$ $$========$+ $$$$$$ OOO#X",
"X#O $$ $$$======$$$ o$$$$ OOOO#X",
"X#O oo  $$======$$$ oooo OOOOO#X",
"X#OO  OO $$=&=   $$o    OOOOOO#X",
"X#OOOO#O $$$$$ O $$oooo OOOOOO#X",
"X#OOOOOO $$$o  O  $oooo.OOOOOO#X",
"X#OOOOOO  $$o OOO $$ooo OOOOO##X",
"XX#OOOOOO $oo OOO $$$o  OOOO##XX",
"XXX###### oo  ###  oo  ######XXX",
"XXXXXXXXX    XXXXX    XXXXXXXXXX"
};
