/* XPM */
static char *xpm_[] = {
/* columns rows colors chars-per-pixel */
"32 32 14 1 ",
"  c #302C2E",
". c #472D3C",
"X c #40264D",
"o c #5E3643",
"O c #563767",
"+ c #5A5353",
"@ c #7A444A",
"# c #644574",
"$ c #A05B53",
"% c #BF7958",
"& c #EEA160",
"* c #CFC6B8",
"= c #F4CCA1",
"- c #DFF6F5",
/* pixels */
"XXXXXXXXXXXXXXXXXXXXXXXXXXXXXXXX",
"XXX#########..........#######XXX",
"XX#OOOOOOO....$$$$$$$$.OOOOOO#XX",
"X#OOOOOOO..%%%$$$$$$$$..OOOOOO#X",
"X#OOOOOO.%%%.@====$====.OOOOOO#X",
"X#OOOOOO.%%%.$$...$...$.##OOOO#X",
"X#OOOOOO.%%$.$$o.o$o.o$.O#OOOO#X",
"X#OOOOOO.%$$.$$$.$$$.$$.OOOOOO#X",
"X#OOOOO#.%$..$$$$==$$$ OOOOOOO#X",
"X#OOOO##....o$$===....   OOOOO#X",
"X#OOOOO#..ooo$$==......= OOOOO#X",
"X#OOOOOOO o$$$$&&&&&&=== OOOOO#X",
"X#OOOOOO  o$$$$$&&&&&&& OOOOOO#X",
"X#OOOOO    $$$$$$$$$$$ OOOOOOO#X",
"X#OOOO oooo$$$$$$$===$ ---OOOO#X",
"X#OOO $$$oo$$$$$$====$--**#OOO#X",
"X#OO $$$$$$$$$$$====---**#X#OO#X",
"X#O $$$$ $$$$$$$==---***$ XX#O#X",
"X#O $$$$ $$$$$$=---***$$$ X#OO#X",
"X#O $$$$$ $$$$---***===$$ #OOO#X",
"X#O $$$$$$ ++--***=====$$  OOO#X",
"X#OO $$$$$$ ++**=======$$ $ OO#X",
"X#OOO $$$$$$ +$========$$ $$ O#X",
"X#OOOO $$$$o $$$======$$$ $$ O#X",
"X#OOOOO oooo $$$======$$  oo O#X",
"X#OOOOOO    o$$   =&=$$ OO  OO#X",
"X#OOOOOO oooo$$ O $$$$$ O#OOOO#X",
"X#OOOOOO.oooo$  O  o$$$ OOOOOO#X",
"X##OOOOO ooo$$ OOO o$$  OOOOOO#X",
"XX##OOOO  o$$$ OOO oo$ OOOOOO#XX",
"XXX######  oo  ###  oo ######XXX",
"XXXXXXXXXX    XXXXX    XXXXXXXXX"
};
