/* XPM */
static char *xpm_[] = {
/* columns rows colors chars-per-pixel */
"32 32 14 1 ",
"  c #302C2E",
". c #472D3C",
"X c #40264D",
"o c #5E3643",
"O c #563767",
"+ c #5A5353",
"@ c #7A444A",
"# c #644574",
"$ c #A05B53",
"% c #BF7958",
"& c #EEA160",
"* c #CFC6B8",
"= c #F4CCA1",
"- c #DFF6F5",
/* pixels */
"XXXXXXXXXXXX..........XXXXXXXXXX",
"XXX#######....$$$$$$$$.######XXX",
"XX#OOOOOO..%%%$$$$$$$$..OOOOO#XX",
"X#OOOOOO.%%%.@====$====.OOOOOO#X",
"X#OOOOOO.%%%.$$...$...$.OOOOOO#X",
"X#OOOOOO.%%$.$$o.o$o.o$.##OOOO#X",
"X#OOOOOO.%$$.$$$.$$$.$$.O#OOOO#X",
"X#OOOOOO.%$..$$$$==$$$ OOOOOOO#X",
"X#OOOOO#....o$$===....   OOOOO#X",
"X#OOOO##..ooo$$==......= OOOOO#X",
"X#OOOOO#O o$$$$&&&&&&=== OOOOO#X",
"X#OOOOOOO o$$$$$&&&&&&& OOOOOO#X",
"X#OOOOO    o$$$$$$$$$$ OOOOOOO#X",
"X#OOOO oooo$$$$$$$===$ ---OOOO#X",
"X#OOO $$$oo$$$$$$====$--**OOOO#X",
"X#OO $$$$$$$$$$$====---**O#OOO#X",
"X#O $$$$ $$$$$$$==---***$ X#OO#X",
"X#O $$$$ $$$$$$=---***$$$ XX#O#X",
"X#O $$$$$ $$$$---***===$$ X#OO#X",
"X#O $$$$$$ ++--***=====$$  OOO#X",
"X#OO $$$$$$ ++**=======$$ $ OO#X",
"X#OOO $$$$$$ +$========$$ $$ O#X",
"X#OOOO $$$$o $$========$$ oo O#X",
"X#OOOOO oooo $$$======$$$ oo O#X",
"X#OOOOOO    o$$$======$$ O  OO#X",
"X#OOOOOO oooo$$   =&=$$ OOOOOO#X",
"X#OOOOOO oooo$$ O $$$$$ O#OOOO#X",
"X#OOOOOO.oooo$  O  o$$$ OOOOOO#X",
"X##OOOOO ooo$$ OOO o$$  OOOOOO#X",
"XX##OOOO  o$$$ OOO oo$ OOOOOO#XX",
"XXX######  oo  ###  oo ######XXX",
"XXXXXXXXXX    XXXXX    XXXXXXXXX"
};
