/* XPM */
static char *result[] = {
/* columns rows colors chars-per-pixel */
"32 32 14 1 ",
"  c #302C2E",
". c #472D3C",
"X c #40264D",
"o c #5E3643",
"O c #563767",
"+ c #5A5353",
"@ c #7A444A",
"# c #644574",
"$ c #A05B53",
"% c #BF7958",
"& c #EEA160",
"* c #CFC6B8",
"= c #F4CCA1",
"- c #DFF6F5",
/* pixels */
"XXXXXXXXXX..........XXXXXXXXXXXX",
"XXX######.$$$$$$$$....#######XXX",
"XX#OOOOO..$$$$$$$$%%%..OOOOOO#XX",
"X#OOOOOO.====$====@.%%%.OOOOOO#X",
"X#OOOOOO.$...$...$$.%%%.OOOOOO#X",
"X#OOOO##.$o.o$o.o$$.$%%.OOOOOO#X",
"X#OOOO#O.$$.$$$.$$$.$$%.OOOOOO#X",
"X#OOOOOOO $$$==$$$$..$%.OOOOOO#X",
"X#OOOOO   ....===$$o....#OOOOO#X",
"X#OOOOO =......==$$ooo..##OOOO#X",
"X#OOOOO ===&&&&&&$$$$o O#OOOOO#X",
"X#OOOOOOO $$$$$$$$$$$    OOOOO#X",
"X#OOOO--- $===$$$$$$ooooo OOOO#X",
"X#OOOO**--$====$$$$$$oo$$$ OOO#X",
"X#OOOOO**---====$$$$$$$$$$$ OO#X",
"X#OOO# $***---==$$$$$$$ $$$$ O#X",
"X#OO#X $$$***---=$$$$$$ $$$$ O#X",
"X#O#XX $$===***---$$$$ $$$$$ O#X",
"X#OO#  $$=====***--++ $$$$$$ O#X",
"X#OO $ $$=======**++ $$$$$$ OO#X",
"X#O $$ $$========$+ $$$$$$ OOO#X",
"X#O oo $$========$o o$$$$ OOOO#X",
"X#O oo $$$======$$o oooo OOOOO#X",
"X#OO    $$======$$oo    OOOOOO#X",
"X#OOOOOO $$=&=   $ooooo OOOOOO#X",
"X#OOOOOO $$$$$ O $ooooo OOOOOO#X",
"X#OOOO#O $$$$o O  $oooo OOOOOO#X",
"X#OOOOOO $$$o  O  $oooo OOOOOO#X",
"X#OOOOOO  $$o OOO $$ooo OOOOO##X",
"XX#OOOOOO $oo OOO $$$o  OOOO##XX",
"XXX###### oo  ###  oo  ######XXX",
"XXXXXXXXX    XXXXX    XXXXXXXXXX"
};
