/* XPM */
static char *result[] = {
/* columns rows colors chars-per-pixel */
"32 32 63 1 ",
"  c #302C2E",
". c #332C30",
"X c #372D31",
"o c #472D3C",
"O c #413333",
"+ c #493636",
"@ c #493139",
"# c #4C323B",
"$ c #54343F",
"% c #523A39",
"& c #5A3E3C",
"* c #5A4639",
"= c #3C2F40",
"- c #3D2846",
"; c #3F3145",
": c #40264D",
"> c #413148",
", c #45324D",
"< c #5B3741",
"1 c #5C3543",
"2 c #5E3643",
"3 c #473351",
"4 c #4A3356",
"5 c #4D3A54",
"6 c #4E355A",
"7 c #51345A",
"8 c #53355D",
"9 c #563767",
"0 c #5A5353",
"q c #6B4542",
"w c #6D4642",
"e c #744844",
"r c #7A444A",
"t c #6E5052",
"y c #6B5C51",
"u c #594064",
"i c #60426C",
"p c #644574",
"a c #935450",
"s c #965651",
"d c #9A5851",
"f c #9B5852",
"g c #A05B53",
"h c #A66358",
"j c #AC6C5F",
"k c #BF7958",
"l c #A76B62",
"z c #B37464",
"x c #AE7B71",
"c c #EEA160",
"v c #836D86",
"b c #8D788B",
"n c #948DA7",
"m c #CDA98B",
"M c #F4C99C",
"N c #CFC6B8",
"B c #D0C9BC",
"V c #F4CCA1",
"C c #B8C9C9",
"Z c #D3D1C6",
"A c #D4D4CA",
"S c #D6DFDD",
"D c #DFF6F5",
/* pixels */
"::::::::::::::::::::::::::::::::",
":::ppppppppiooooooooooppppppp:::",
"::p99999998$ggggggggoooo99999p::",
":p99999997o$ggggggggkkkoo99999p:",
":p99999997tVVVVgVVVVrokkko9999p:",
":p9999pp97<aooogoooggokkko9999p:",
":p9999p997<s1o2g2o2ggogkko9999p:",
":p99999997<gdogggogggoggko9999p:",
":p999999996OgggVVggggoogko9999p:",
":p9999993  .ooooVVVgg2oooo9999p:",
":p9999993ymooooooVVgg222oo9999p:",
":p9999993yVVMccccccgggg2 99999p:",
":p99999994*cccccccggggg2  9999p:",
":p999999996Oggggggggggg    999p:",
":p99999nDDCOhVVVggggggg2222 99p:",
":p999p9bNADShVVVVgggggg22ggg 9p:",
":p99p:p9vNZDDDVVVVggggggggggg p:",
":p9p:::5&xNNBDDDVVggggggg gggg :",
":p99p:p,&gglNNNDDDVgggggg gggg :",
":p999p> &gzVVVNNNDDDgggg ggggg :",
":p999;qw&gzVVVVVNNNDD00 gggggg :",
":p99=egw&gzVVVVVVVNN00 gggggg p:",
":p99=egw&gzVVVVVVVVg0 gggggg 9p:",
":p99=#2@&ggjVVVVVVggg 2gggg 99p:",
":p99=#2@ %gjVVVVVVggg 2222 999p:",
":p999; >94+ghVcV   gg2    9999p:",
":p9999p994+ggggg 9 gg2222 9999p:",
":p99999994+ggg2  9  g2222 9999p:",
":p99999994 Ogg2 999 gg222 999pp:",
"::p99999996Of22 999 ggg2  99pp::",
":::pppppppuX22  ppp  22  pppp:::",
"::::::::::-    :::::    ::::::::"
};
