/* XPM */
static char *adf84461f8a34f48e40ffb114f835399rS9rkRQwymVGkpOP[] = {
/* columns rows colors chars-per-pixel */
"32 32 63 1 ",
"  c #302C2E",
". c #332C30",
"X c #372D31",
"o c #472D3C",
"O c #413333",
"+ c #493636",
"@ c #493139",
"# c #4C323B",
"$ c #54343F",
"% c #523A39",
"& c #5A3E3C",
"* c #5A4639",
"= c #3C2F40",
"- c #3D2846",
"; c #3F3145",
": c #40264D",
"> c #413148",
", c #45324D",
"< c #5B3741",
"1 c #5C3543",
"2 c #5E3643",
"3 c #473351",
"4 c #4A3356",
"5 c #4D3A54",
"6 c #4E355A",
"7 c #51345A",
"8 c #53355D",
"9 c #563767",
"0 c #5A5353",
"q c #6B4542",
"w c #6D4642",
"e c #744844",
"r c #7A444A",
"t c #6E5052",
"y c #6B5C51",
"u c #594064",
"i c #60426C",
"p c #644574",
"a c #935450",
"s c #965651",
"d c #9A5851",
"f c #9B5852",
"g c #A05B53",
"h c #A66358",
"j c #AC6C5F",
"k c #BF7958",
"l c #A76B62",
"z c #B37464",
"x c #AE7B71",
"c c #EEA160",
"v c #836D86",
"b c #8D788B",
"n c #948DA7",
"m c #CDA98B",
"M c #F4C99C",
"N c #CFC6B8",
"B c #D0C9BC",
"V c #F4CCA1",
"C c #B8C9C9",
"Z c #D3D1C6",
"A c #D4D4CA",
"S c #D6DFDD",
"D c #DFF6F5",
/* pixels */
"::::::::::::::::::::::::::::::::",
":::pppppppooooooooooupppppppp:::",
"::p99999oooogggggggg$89999999p::",
":p99999ookkkgggggggg<o79999999p:",
":p9999okkkorVVVVgVVVVt79999999p:",
":p9999okkkoggooogoooa<79pp9999p:",
":p9999okkgogg2o2g2o2s<799p9999p:",
":p9999okggogggogggodf<79999999p:",
":p9999okgooggggVVggfO699999999p:",
":p9999oooo2ggVVVoooo. .3999999p:",
":p9999oo222ggVVoooooomy3999999p:",
":p99999 2ggggccccccMVVy3999999p:",
":p9999  2gggggccccccc*49999999p:",
":p999    gggggggggggO699999999p:",
":p99 2222gggggggVVVhOCDDn99999p:",
":p9 ggg22ggggggVVVVhSDABb9p999p:",
":p gggggggggggVVVVDDDZNv9p:p99p:",
": gggg gggggggVVDDDBNNx&5:::p9p:",
": gggg ggggggVDDDNNNlgg&,p:p99p:",
": ggggg ggggDDDNNNVVVzg& >p999p:",
": gggggg 00DDNNNVVVVVzg&wq;999p:",
":p gggggg 00NNVVVVVVVzg&wgeX99p:",
":p9 gggggg 0gVVVVVVVVzg&wge;99p:",
":p99 gggg2 gggVVVVVVlgg&>2#o99p:",
":p999 2222 gggVVVVVMjf% #2#X99p:",
":p9999    2gg   VcVhh+49> >999p:",
":p9999 2222gg 9 fgggg+499p9999p:",
":p9999 2222g  9 .2ggg+49999999p:",
":pp999 222gg 999.<ggO.49999999p:",
"::pp99  2ggg 999 <2fO69999999p::",
":::pppp  22  ppp  22Xuppppppp:::",
"::::::::    :::::   .:::::::::::"
};
