/* XPM */
static char *result[] = {
/* columns rows colors chars-per-pixel */
"32 32 14 1 ",
"  c #302C2E",
". c #472D3C",
"X c #40264D",
"o c #5E3643",
"O c #563767",
"+ c #5A5353",
"@ c #7A444A",
"# c #644574",
"$ c #A05B53",
"% c #BF7958",
"& c #EEA160",
"* c #CFC6B8",
"= c #F4CCA1",
"- c #DFF6F5",
/* pixels */
"XXXXXXXXXXXXXXXXXXXXXXXXXXXXXXXX",
"XXX########..........########XXX",
"XX#OOOOOOO.$$$$$$$$....OOOOOO#XX",
"X#OOOOOOO..$$$$$$$$%%%..OOOOOO#X",
"X#OOOOOOO.====$====@.%%%.OOOOO#X",
"X#OOOO##O.$...$...$$.%%%.OOOOO#X",
"X#OOOO#OO.$o.o$o.o$$.$%%.OOOOO#X",
"X#OOOOO--.$$.$$$.$$$.$$%.OOOOO#X",
"X#OOOOO*-- $$$==$$$$..$%.OOOOO#X",
"X#OOOOOO*--....===$$o....#OOOO#X",
"X#OOOOOO *--....==$$ooo..OOOOO#X",
"X#OOOOOO =*--&&&&&$$$$o OOOOOO#X",
"X#OOOOOOO &*--&&&$$$$$o  OOOOO#X",
"X#OOOOOOOO $*--$$$$$$$   OOOOO#X",
"X#OOOOOOO $$$**-$$$$$oooo OOOO#X",
"X#OOO#OO $$===**-$$$$$o$$$ OOO#X",
"X#OO#X# $$$====**-$$$ $$$$$ OO#X",
"X#O#XXX $$$=====*-+$  $$$$$ OO#X",
"X#OO#X# $$=======+++ $$$$$ OOO#X",
"X#OOO#O $$=======+  $$$$$$ OOO#X",
"X#OOOOO $$========$o$$$$$ OOOO#X",
"X#OOOOO $$=======$o o$$o OOOOO#X",
"X#OOOOO $$$======$$o oo OOOOOO#X",
"X#OOOOO..$$======$$oo   OOOOOO#X",
"X#OOOOO.. $$=&=   $$ooo OOOOOO#X",
"X#OOOOOO. $$$$$ O $$oooo OOOOO#X",
"X#OOOO#OO $$$o  O  $$ooo OOOOO#X",
"X#OOOOOO $$$$o OOOO $$ooo OOOO#X",
"X#OOOOOO $$$o  OOOO  $$oo OOO##X",
"XX#OOOOOO     OOOOOO     OOO##XX",
"XXX##########################XXX",
"XXXXXXXXXXXXXXXXXXXXXXXXXXXXXXXX"
};
