/* XPM */
static char *_524d524eb8c4fa6cb4776233738b6b8u5JjmlPinvolpfJc[] = {
/* columns rows colors chars-per-pixel */
"32 32 14 1 ",
"  c #302C2E",
". c #472D3C",
"X c #40264D",
"o c #5E3643",
"O c #563767",
"+ c #5A5353",
"@ c #7A444A",
"# c #644574",
"$ c #A05B53",
"% c #BF7958",
"& c #EEA160",
"* c #CFC6B8",
"= c #F4CCA1",
"- c #DFF6F5",
/* pixels */
"XXXXXXXXXXXXXXXXXXXXXXXXXXXXXXXX",
"XXX########..........########XXX",
"XX#OOOOOO....$$$$$$$$.OOOOOOO#XX",
"X#OOOOOO..%%%$$$$$$$$..OOOOOOO#X",
"X#OOOOO.%%%.@====$====.OOOOOOO#X",
"X#OOOOO.%%%.$$...$...$.O##OOOO#X",
"X#OOOOO.%%$.$$o.o$o.o$.OO#OOOO#X",
"X#OOOOO.%$$.$$$.$$$.$$.--OOOOO#X",
"X#OOOOO.%$..$$$$==$$$ --*OOOOO#X",
"X#OOOO#....o$$===....--*OOOOOO#X",
"X#OOOOO..ooo$$==....--* OOOOOO#X",
"X#OOOOOO o$$$$&&&&&--*= OOOOOO#X",
"X#OOOOO  o$$$$$&&&--*& OOOOOOO#X",
"X#OOOOO   $$$$$$$--*$ OOOOOOOO#X",
"X#OOOO oooo$$$$$-**$$$ OOOOOOO#X",
"X#OOO $$$o$$$$$-**===$$ OO#OOO#X",
"X#OO $$$$$ $$$-**====$$$ #X#OO#X",
"X#OO $$$$$  $+-*=====$$$ XXX#O#X",
"X#OOO $$$$$ +++=======$$ #X#OO#X",
"X#OOO $$$$$$  +=======$$ O#OOO#X",
"X#OOOO $$$$$o$========$$ OOOOO#X",
"X#OOOOO o$$o o$=======$$ OOOOO#X",
"X#OOOOOO oo o$$======$$$ OOOOO#X",
"X#OOOOOO   oo$$======$$..OOOOO#X",
"X#OOOOOO ooo$$   =&=$$ ..OOOOO#X",
"X#OOOOO oooo$$ O $$$$$ .OOOOOO#X",
"X#OOOOO ooo$$  O  o$$$ OO#OOOO#X",
"X#OOOO ooo$$ OOOO o$$$$ OOOOOO#X",
"X##OOO oo$$  OOOO  o$$$ OOOOOO#X",
"XX##OOO     OOOOOO     OOOOOO#XX",
"XXX##########################XXX",
"XXXXXXXXXXXXXXXXXXXXXXXXXXXXXXXX"
};
