/* XPM */
static char *result[] = {
/* columns rows colors chars-per-pixel */
"32 32 104 2 ",
"   c #302C2E",
".  c #322D31",
"X  c #322E31",
"o  c #352D30",
"O  c #352D36",
"+  c #372F37",
"@  c #462D3B",
"#  c #472D3C",
"$  c #482E3F",
"%  c #482F3F",
"&  c #4D2F3E",
"*  c #443435",
"=  c #473636",
"-  c #483139",
";  c #4A323A",
":  c #4B323A",
">  c #413C3D",
",  c #51333D",
"<  c #54343F",
"1  c #593D3B",
"2  c #61413E",
"3  c #3F3045",
"4  c #452C40",
"5  c #40264D",
"6  c #4B3240",
"7  c #4B3043",
"8  c #563340",
"9  c #563341",
"0  c #573540",
"q  c #593442",
"w  c #5B3542",
"e  c #5D3643",
"r  c #5E3643",
"t  c #5E3942",
"y  c #5D3648",
"u  c #603A43",
"i  c #613A47",
"p  c #643A44",
"a  c #673B45",
"s  c #673E44",
"d  c #6A3D46",
"f  c #553766",
"g  c #563767",
"h  c #5A5353",
"j  c #6A4441",
"k  c #734946",
"l  c #774A46",
"z  c #714148",
"x  c #764349",
"c  c #794549",
"v  c #794749",
"b  c #7C484A",
"n  c #7E484B",
"m  c #715653",
"M  c #795653",
"N  c #644574",
"B  c #824C4B",
"V  c #834B4C",
"C  c #854C4C",
"Z  c #884E4D",
"A  c #8D504E",
"S  c #91554E",
"D  c #975651",
"F  c #995751",
"G  c #9A5851",
"H  c #9E5A53",
"J  c #A05B53",
"K  c #A15F57",
"L  c #806D5D",
"P  c #9D6350",
"I  c #A66154",
"U  c #A96454",
"Y  c #AF6F54",
"T  c #A9665B",
"R  c #B06A56",
"E  c #BF7958",
"W  c #906862",
"Q  c #8D7B6D",
"!  c #B57867",
"~  c #C07758",
"^  c #BC816D",
"/  c #B58674",
"(  c #C28973",
")  c #EC9F60",
"_  c #EEA160",
"`  c #B58E89",
"'  c #BA9A95",
"]  c #9AA2A1",
"[  c #E5B893",
"{  c #E9BD91",
"}  c #CABBAE",
"|  c #F3C89A",
" . c #D2C2AF",
".. c #CFC6B8",
"X. c #D0C5B6",
"o. c #D6C7B4",
"O. c #F4CCA1",
"+. c #EFD7B6",
"@. c #F0D4B0",
"#. c #DAE6E1",
"$. c #DBEAE6",
"%. c #DCEDEA",
"&. c #DFF5F4",
"*. c #DFF6F5",
/* pixels */
"5 5 5 5 5 5 5 5 5 # # # # # # # # # # # # # 4 5 5 5 5 5 5 5 5 5 ",
"5 5 5 N N N N N # # J J J J J J J J R E E P # 7 N N N N N 5 5 5 ",
"5 5 N g g g g g # O.O.O.O.T [ O.O.O./ p k E E Y $ g g g g N 5 5 ",
"5 N g g g g g g # ..*.*.6 D 0 # # b J v k E E Y $ g g g g g N 5 ",
"5 N g g g g g g # J ..*.i F d & 9 C J v s U E Y $ g g g g g N 5 ",
"5 N g g g g N N # J ..*.K J J t B J J v s J I Y $ g g g g g N 5 ",
"5 N g g g g N g g   ....&.*.@.! J J J v # u I Y $ g g g g g N 5 ",
"5 N g g g g g       # ..&.*.@.O.O.( J V 8 # # # $ g g g g g N 5 ",
"5 N g g g g g   O.# # ......%.+.O.( J V r r q # % g g g g g N 5 ",
"5 N g g g g g   O.O.O._ X...%.*.{ ~ J J J A < + N N g g g g N 5 ",
"5 N g g g g g g   _ _ _ _  ...$.` J J J J A <   X g g g g g N 5 ",
"5 N g g g g g g g   J J J } ....#.' J J Z r q # @   g g g g N 5 ",
"5 N g g g g g g     J O.O.O.o.$.*.' J J J A r r w     g g g N 5 ",
"5 N g g g g g     J J O.O.O.o...#.*.] M J J J J J J     g g N 5 ",
"5 N g g g g g   J J O.O.O.O.O.! m h h M l   = J J J J   g g N 5 ",
"5 N g g g N   J J J O.O.O.O.O.O.Q >     1 J J J J J J   g g N 5 ",
"5 N g g N 5   J J J O.O.O.O.O.O.^ J J J J J J J J J J   g g N 5 ",
"5 N g N 5 5   J J O.O.O.O.O.O.O.O.L j J J J J J G     g g g N 5 ",
"5 N g g N 5   J J O.O.O.O.O.O.O.O.L   2 J J J S . g g g g g N 5 ",
"5 N g g g N   J J O.O.O.O.O.O.O.^ J n ;       O g g g g g g N 5 ",
"5 N g g g g   J J O.O.O.O.O.O.O.^ J n r r r r y g g g g g g N 5 ",
"5 N g g g g   J J J O.O.O.O.O.O.^ c r r r ,     . g g g g g N 5 ",
"5 N g g g         J J O.O.O.O.O.^ c r r r r r a G   g g g g N 5 ",
"5 N g       J J J J J J ) | O.O.W r r r r z J J G     g g g N 5 ",
"5 N g   J J J J J J r r H J *     : r r x J J J G     g g g N 5 ",
"5 N g   r r r r r r r   e o         - r r r r r w     g g g N 5 ",
"5 N g g                 f g g g g 3                 g g g g N 5 ",
"5 N g g g g g g g g g g g g g g g g g g g g g N g g g g g g N 5 ",
"5 N g g g g g g g g g g g g g g g g g g g g N N g g g g g N N 5 ",
"5 5 N g g g g g g g g g g g g g g g g g g g g g g g g g N N 5 5 ",
"5 5 5 N N N N N N N N N N N N N N N N N N N N N N N N N N 5 5 5 ",
"5 5 5 5 5 5 5 5 5 5 5 5 5 5 5 5 5 5 5 5 5 5 5 5 5 5 5 5 5 5 5 5 "
};
