/* XPM */
static char *edc3586947ee47abee52763ed41f7a01ZLT1nLTd3jRfoILO[] = {
/* columns rows colors chars-per-pixel */
"32 32 104 2 ",
"   c #302C2E",
".  c #322D31",
"X  c #322E31",
"o  c #352D30",
"O  c #352D36",
"+  c #372F37",
"@  c #462D3B",
"#  c #472D3C",
"$  c #482E3F",
"%  c #482F3F",
"&  c #4D2F3E",
"*  c #443435",
"=  c #473636",
"-  c #483139",
";  c #4A323A",
":  c #4B323A",
">  c #413C3D",
",  c #51333D",
"<  c #54343F",
"1  c #593D3B",
"2  c #61413E",
"3  c #3F3045",
"4  c #452C40",
"5  c #40264D",
"6  c #4B3240",
"7  c #4B3043",
"8  c #563340",
"9  c #563341",
"0  c #573540",
"q  c #593442",
"w  c #5B3542",
"e  c #5D3643",
"r  c #5E3643",
"t  c #5E3942",
"y  c #5D3648",
"u  c #603A43",
"i  c #613A47",
"p  c #643A44",
"a  c #673B45",
"s  c #673E44",
"d  c #6A3D46",
"f  c #553766",
"g  c #563767",
"h  c #5A5353",
"j  c #6A4441",
"k  c #734946",
"l  c #774A46",
"z  c #714148",
"x  c #764349",
"c  c #794549",
"v  c #794749",
"b  c #7C484A",
"n  c #7E484B",
"m  c #715653",
"M  c #795653",
"N  c #644574",
"B  c #824C4B",
"V  c #834B4C",
"C  c #854C4C",
"Z  c #884E4D",
"A  c #8D504E",
"S  c #91554E",
"D  c #975651",
"F  c #995751",
"G  c #9A5851",
"H  c #9E5A53",
"J  c #A05B53",
"K  c #A15F57",
"L  c #806D5D",
"P  c #9D6350",
"I  c #A66154",
"U  c #A96454",
"Y  c #AF6F54",
"T  c #A9665B",
"R  c #B06A56",
"E  c #BF7958",
"W  c #906862",
"Q  c #8D7B6D",
"!  c #B57867",
"~  c #C07758",
"^  c #BC816D",
"/  c #B58674",
"(  c #C28973",
")  c #EC9F60",
"_  c #EEA160",
"`  c #B58E89",
"'  c #BA9A95",
"]  c #9AA2A1",
"[  c #E5B893",
"{  c #E9BD91",
"}  c #CABBAE",
"|  c #F3C89A",
" . c #D2C2AF",
".. c #CFC6B8",
"X. c #D0C5B6",
"o. c #D6C7B4",
"O. c #F4CCA1",
"+. c #EFD7B6",
"@. c #F0D4B0",
"#. c #DAE6E1",
"$. c #DBEAE6",
"%. c #DCEDEA",
"&. c #DFF5F4",
"*. c #DFF6F5",
/* pixels */
"5 5 5 5 5 5 5 5 3 4 4 # # # # # # # # # # # # 5 5 5 5 5 5 5 5 5 ",
"5 5 5 N N N N N 7 # H E E Y J J J J J J J J # # N N N N N 5 5 5 ",
"5 5 N g g g g $ Y E E k p / O.O.O.[ T O.O.O.O.# g g g g g N 5 5 ",
"5 N g g g g g $ Y E E k v J b # # 9 D 7 *.*...# g g g g g g N 5 ",
"5 N g g g g g $ Y E U s v J C 9 & d G i *...J # g g g g g g N 5 ",
"5 N g g g g g $ Y I J j v J J C t J J J *...J # N N g g g g N 5 ",
"5 N g g g g g $ R I u # v J J J ! @.*.&.....  g g N g g g g N 5 ",
"5 N g g g g g $ # # # 9 V J ( O.O.@.*.&...$       g g g g g N 5 ",
"5 N g g g g g $ # w e e C J ( O.+.%.......# # O.  g g g g g N 5 ",
"5 N g g g g N N + < A J J J ~ { *.%...X._ O.O.O.  g g g g g N 5 ",
"5 N g g g g g X   < A J J J J ` $... ._ _ _ _   g g g g g g N 5 ",
"5 N g g g g   @ # w e Z J J ' #.....} J J J   g g g g g g g N 5 ",
"5 N g g g     w e e Z J J J ' *.$.o.O.O.O.J     g g g g g g N 5 ",
"5 N g g     J J J J J J M ] *.#...o.O.O.O.J J     g g g g g N 5 ",
"5 N g g   J J J J =   l M h h m ! O.O.O.O.O.J J   g g g g g N 5 ",
"5 N g g   J J J J J J 1     > Q O.O.O.O.O.O.J J J   N g g g N 5 ",
"5 N g g   J J J J J J J J J J ( O.O.O.O.O.O.J J J   5 N g g N 5 ",
"5 N g g g     F J J J J J 2 L O.O.O.O.O.O.O.O.J J   5 5 N g N 5 ",
"5 N g g g g g . S J J J 2   L O.O.O.O.O.O.O.O.J J   5 N g g N 5 ",
"5 N g g g g g g o       & V K ! O.O.O.O.O.O.O.J J   N g g g N 5 ",
"5 N g g g g g g y u r r r n J ( O.O.O.O.O.O.O.J J   g g g g N 5 ",
"5 N g g g g g .     , r r r c ! O.O.O.O.O.O.J J J   g g g g N 5 ",
"5 N g g g g   H a p r r r r v ^ O.O.O.O.O.J J         g g g N 5 ",
"5 N g g g     F J J d r r u e W O.O.| ) J J J J J J       g N 5 ",
"5 N g g g     F J J J d p u #     - H H r r J J J J J J   g N 5 ",
"5 N g g g     r u e r r u #           r   u e e e e u e   g N 5 ",
"5 N g g g g                 4 g g g g g                 g g N 5 ",
"5 N g g g g g g N g g g g g g g g g g g g g g g g g g g g g N 5 ",
"5 N N g g g g g N N g g g g g g g g g g g g g g g g g g g g N 5 ",
"5 5 N N g g g g g g g g g g g g g g g g g g g g g g g g g N 5 5 ",
"5 5 5 N N N N N N N N N N N N N N N N N N N N N N N N N N 5 5 5 ",
"5 5 5 5 5 5 5 3 5 5 5 5 5 5 5 5 5 5 5 5 5 5 5 5 5 5 5 5 5 5 5 5 "
};
