/* XPM */
static char *result[] = {
/* columns rows colors chars-per-pixel */
"32 32 14 1 ",
"  c #302C2E",
". c #472D3C",
"X c #40264D",
"o c #5E3643",
"O c #563767",
"+ c #5A5353",
"@ c #7A444A",
"# c #644574",
"$ c #A05B53",
"% c #BF7958",
"& c #EEA160",
"* c #CFC6B8",
"= c #F4CCA1",
"- c #DFF6F5",
/* pixels */
"XXXXXXXXXX..........XXXXXXXXXXXX",
"XXX######.$$$$$$$$....#######XXX",
"XX#OOOOO..$$$$$$$$%%%..OOOOOO#XX",
"X#OOOOOO.====$====@.%%%.OOOOOO#X",
"X#OOOOOO.$...$...$$.%%%.OOOOOO#X",
"X#OOOO##.$o.o$o.o$$.$%%.OOOOOO#X",
"X#OOOO#O.$$.$$$.$$$.$$%.OOOOOO#X",
"X#OOOOOOO $$$==$$$$..$%.OOOOOO#X",
"X#OOOOO   ....===$$o....#OOOOO#X",
"X#OOOOO ---....==$$ooo..##OOOO#X",
"X#OOOOO **--&&&&&$$$$o O#OOOOO#X",
"X#OOOOOO **--&&&$$$$$o  OOOOOO#X",
"X#OOOOOOO***--$$$$$oo    OOOOO#X",
"X#OOOOOOO $**--$$$$$oooo OOOOO#X",
"X#OOOOOO $$==*---$$$$$$$$  OOO#X",
"X#OOO#O $$===***---$$$$$$$ OOO#X",
"X#OO#X $$$=====***-$$$$$$$$ OO#X",
"X#O#XX $$$=======**-++ $$$$ OO#X",
"X#OO#X $$========$++ $$$$$$ OO#X",
"X#OOO# $$========$+ $$$$$$ OOO#X",
"X#OOOO $$========$$ o$$$$$ OOO#X",
"X#OOOO $$========$$  oooo OOOO#X",
"X#OOOO $$$======$$$o    OOOOOO#X",
"X#OOOO..$$======$$$oooo OOOOOO#X",
"X#OOOO.. $$=&=   $$$ooo OOOOOO#X",
"X#OOOOO. $$$$$ O $$$ooo OOOOOO#X",
"X#OOOO#O $$$o  O  $$$oo OOOOOO#X",
"X#OOOOO $$$$o OOO $$$oo OOOOOO#X",
"X#OOOOO $$$o  OOO  $$oo OOOOO##X",
"XX#OOOOO     OOOOO     OOOOO##XX",
"XXX##########################XXX",
"XXXXXXXXXXXXXXXXXXXXXXXXXXXXXXXX"
};
