/* XPM */
static char *d3017a786ff64c23aa24e1cbfb3a5b72dlXKtJMhJYwmLwH7[] = {
/* columns rows colors chars-per-pixel */
"32 32 14 1 ",
"  c #302C2E",
". c #472D3C",
"X c #40264D",
"o c #5E3643",
"O c #563767",
"+ c #5A5353",
"@ c #7A444A",
"# c #644574",
"$ c #A05B53",
"% c #BF7958",
"& c #EEA160",
"* c #CFC6B8",
"= c #F4CCA1",
"- c #DFF6F5",
/* pixels */
"XXXXXXXXXXXX..........XXXXXXXXXX",
"XXX#######....$$$$$$$$.######XXX",
"XX#OOOOOO..%%%$$$$$$$$..OOOOO#XX",
"X#OOOOOO.%%%.@====$====.OOOOOO#X",
"X#OOOOOO.%%%.$$...$...$.OOOOOO#X",
"X#OOOOOO.%%$.$$o.o$o.o$.##OOOO#X",
"X#OOOOOO.%$$.$$$.$$$.$$.O#OOOO#X",
"X#OOOOOO.%$..$$$$==$$$ OOOOOOO#X",
"X#OOOOO#....o$$===....   OOOOO#X",
"X#OOOO##..ooo$$==....--- OOOOO#X",
"X#OOOOO#O o$$$$&&&&&--** OOOOO#X",
"X#OOOOOO  o$$$$$&&&--** OOOOOO#X",
"X#OOOOO    oo$$$$$--***OOOOOOO#X",
"X#OOOOO oooo$$$$$--**$ OOOOOOO#X",
"X#OOO  $$$$$$$$---*==$$ OOOOOO#X",
"X#OOO $$$$$$$---***===$$ O#OOO#X",
"X#OO $$$$$$$$-***=====$$$ X#OO#X",
"X#OO $$$$ ++-**=======$$$ XX#O#X",
"X#OO $$$$$$ ++$========$$ X#OO#X",
"X#OOO $$$$$$ +$========$$ #OOO#X",
"X#OOO $$$$$o $$========$$ OOOO#X",
"X#OOOO oooo  $$========$$ OOOO#X",
"X#OOOOOO    o$$$======$$$ OOOO#X",
"X#OOOOOO oooo$$$======$$..OOOO#X",
"X#OOOOOO ooo$$$   =&=$$ ..OOOO#X",
"X#OOOOOO ooo$$$ O $$$$$ .OOOOO#X",
"X#OOOOOO oo$$$  O  o$$$ O#OOOO#X",
"X#OOOOOO oo$$$ OOO o$$$$ OOOOO#X",
"X##OOOOO oo$$  OOO  o$$$ OOOOO#X",
"XX##OOOOO     OOOOO     OOOOO#XX",
"XXX##########################XXX",
"XXXXXXXXXXXXXXXXXXXXXXXXXXXXXXXX"
};
