/* XPM */
static char *result[] = {
/* columns rows colors chars-per-pixel */
"32 32 24 1 ",
"  c #302C2E",
". c #322C2F",
"X c #342E2F",
"o c #3D3232",
"O c #472D3C",
"+ c #463535",
"@ c #4E3938",
"# c #40264D",
"$ c #5E3643",
"% c #493353",
"& c #4C3457",
"* c #4E355C",
"= c #523660",
"- c #553765",
"; c #563767",
": c #5A5353",
"> c #7A444A",
", c #644574",
"< c #A05B53",
"1 c #BF7958",
"2 c #EEA160",
"3 c #CFC6B8",
"4 c #F4CCA1",
"5 c #DFF6F5",
/* pixels */
"################################",
"###,,,,,,OOOOOOOOOO,,,,,,,,,,###",
"##,;;;;;O<<<<<<<<OOOO;;;;;;;;,##",
"#,;;;;;OO<<<<<<<<111OO;;;;;;;;,#",
"#,;;;;;O4444<4444>O111O;;;;;;;,#",
"#,;;;;,O<OOO<OOO<<O111O;;;;;;;,#",
"#,;;;;,O<$O$<$O$<<O<11O;;;;;;;,#",
"#,;;;;;O<<O<<<O<<<O<<1O;;;;;;;,#",
"#,;;;;;; <<<44<<<<OO<1O;,;;;;;,#",
"#,;;;;   OOOO444<<$OOOO,,,;;;;,#",
"#,;;;; 4OOOOOO44<<$$$OO;,;;;;;,#",
"#,;;;; 444222222<<<<$ ;;;;;;;;,#",
"#,;;;;; 2222222<<<<<$  ;;;;;;;,#",
"#,;;;;;; <<<<<<<<<<<    -;;;;;,#",
"#,;;;555 <444<<<<<<<$$$$.=;;;;,#",
"#,;;;3355<4444<<<<<<$$<<<o*;;;,#",
"#,;;,#335554444<<<<<<<<<<<+&;;,#",
"#,;,# <33355544<<<<<<< <<<<@%;,#",
"#,;;, <<<3335554<<<<<< <<<<@%;,#",
"#,;;; <<444333555<<<< <<<<<@%;,#",
"#,;;; <<4444433355:: <<<<<<@%;,#",
"#,;;; <<444444433:: <<<<<<+&;;,#",
"#,;;; <<44444444<: <<<<<<o*;;;,#",
"#,;;; <<<444444<<< $<<<<X=;;;;,#",
"#,;;;OO<<444444<<< $$$$ -;;;;;,#",
"#,;;;OO <<424   <<$    ;;;;;;;,#",
"#,;;;;O <<<<< ; <<$$$$ ;;;;;;;,#",
"#,;;;;; <<<$  ;  <$$$$ ,;;;;;;,#",
"#,;;;;;  <<$ ;;; <<$$$ ,;;;;;,,#",
"##,;;;;; <$$ ;;; <<<$  ;;;;;,,##",
"###,,,,, $$  ,,,  $$  ,,,,,,,###",
"########    #####    ###########"
};
