/* XPM */
static char *_f8088e1ef5f4653ef1fac84784e281eDizXk2i6YnQ7UgzJ[] = {
/* columns rows colors chars-per-pixel */
"32 32 24 1 ",
"  c #302C2E",
". c #322C2F",
"X c #342E2F",
"o c #3D3232",
"O c #472D3C",
"+ c #463535",
"@ c #4E3938",
"# c #40264D",
"$ c #5E3643",
"% c #493353",
"& c #4C3457",
"* c #4E355C",
"= c #523660",
"- c #553765",
"; c #563767",
": c #5A5353",
"> c #7A444A",
", c #644574",
"< c #A05B53",
"1 c #BF7958",
"2 c #EEA160",
"3 c #CFC6B8",
"4 c #F4CCA1",
"5 c #DFF6F5",
/* pixels */
"################################",
"###,,,,,,,,,,OOOOOOOOOO,,,,,,###",
"##,;;;;;;;;OOOO<<<<<<<<O;;;;;,##",
"#,;;;;;;;;OO111<<<<<<<<OO;;;;;,#",
"#,;;;;;;;O111O>4444<4444O;;;;;,#",
"#,;;;;;;;O111O<<OOO<OOO<O,;;;;,#",
"#,;;;;;;;O11<O<<$O$<$O$<O,;;;;,#",
"#,;;;;;;;O1<<O<<<O<<<O<<O;;;;;,#",
"#,;;;;;,;O1<OO<<<<44<<< ;;;;;;,#",
"#,;;;;,,,OOOO$<<444OOOO   ;;;;,#",
"#,;;;;;,;OO$$$<<44OOOOOO4 ;;;;,#",
"#,;;;;;;;; $<<<<222222444 ;;;;,#",
"#,;;;;;;;  $<<<<<2222222 ;;;;;,#",
"#,;;;;;;    <<<<<<<<<<< ;;;;;;,#",
"#,;;;;=.$$$$<<<<<<<444< 555;;;,#",
"#,;;;*o<<<$$<<<<<<4444<5533;;;,#",
"#,;;&+<<<<<<<<<<<444455533#,;;,#",
"#,;%@<<<< <<<<<<<44555333< #,;,#",
"#,;%@<<<< <<<<<<4555333<<< ,;;,#",
"#,;%@<<<<< <<<<555333444<< ;;;,#",
"#,;%@<<<<<< ::5533344444<< ;;;,#",
"#,;;&+<<<<<< ::334444444<< ;;;,#",
"#,;;;*o<<<<<< :<44444444<< ;;;,#",
"#,;;;;=.<<<<$ <<<444444<<< ;;;,#",
"#,;;;;;; $$$$ <<<444444<<OO;;;,#",
"#,;;;;;;;    $<<   424<< OO;;;,#",
"#,;;;;;;; $$$$<< ; <<<<< O;;;;,#",
"#,;;;;;;, $$$$<  ;  $<<< ;;;;;,#",
"#,,;;;;;, $$$<< ;;; $<<  ;;;;;,#",
"##,,;;;;;  $<<< ;;; $$< ;;;;;,##",
"###,,,,,,,  $$  ,,,  $$ ,,,,,###",
"###########    #####    ########"
};
