/* XPM */
static char *result[] = {
/* columns rows colors chars-per-pixel */
"32 32 98 2 ",
"   c #302C2E",
".  c #322D31",
"X  c #352D30",
"o  c #352D36",
"O  c #3A2F32",
"+  c #3F2D37",
"@  c #382E39",
"#  c #3A2F3C",
"$  c #3B2F3E",
"%  c #3F3233",
"&  c #472D3C",
"*  c #4B2F3D",
"=  c #443435",
"-  c #463138",
";  c #4D3639",
":  c #4F333C",
">  c #51313F",
",  c #52313F",
"<  c #50323E",
"1  c #52333E",
"2  c #3E3043",
"3  c #442B42",
"4  c #4A2F45",
"5  c #40264D",
"6  c #413147",
"7  c #4D3248",
"8  c #573540",
"9  c #583441",
"0  c #593741",
"q  c #5E3643",
"w  c #50344C",
"e  c #4F355C",
"r  c #653A45",
"t  c #673E44",
"y  c #563767",
"u  c #5A5353",
"i  c #664340",
"p  c #6F4643",
"a  c #6B4045",
"s  c #6E4146",
"d  c #724347",
"f  c #774A46",
"g  c #764349",
"h  c #794549",
"j  c #7A444A",
"k  c #735556",
"l  c #785A59",
"z  c #644574",
"x  c #804A4B",
"c  c #804E48",
"v  c #824C4B",
"b  c #844F4A",
"n  c #854C4C",
"m  c #874E4C",
"M  c #894F4D",
"N  c #8A4F4E",
"B  c #89514B",
"V  c #91554E",
"C  c #995751",
"Z  c #9A5851",
"A  c #9E5A52",
"S  c #9E5A53",
"D  c #A05B53",
"F  c #A15C53",
"G  c #80625E",
"H  c #BF7958",
"J  c #B88052",
"K  c #BC816D",
"L  c #E0945E",
"P  c #C28973",
"I  c #C99279",
"U  c #CF9B7F",
"Y  c #EEA160",
"T  c #F0AF76",
"R  c #AEA69B",
"E  c #C39F84",
"W  c #D29E81",
"Q  c #CBAB89",
"!  c #D5A385",
"~  c #D8A687",
"^  c #DCAC8B",
"/  c #DFAF8D",
"(  c #F2BB87",
")  c #E5B893",
"_  c #C9B8AB",
"`  c #EBC199",
"'  c #F1C99F",
"]  c #DFC9AE",
"[  c #CFC6B8",
"{  c #D1CBBE",
"}  c #E8CAA9",
"|  c #F4CCA1",
" . c #C8DBDB",
".. c #D5D9D1",
"X. c #ECDBC0",
"o. c #E6E8D9",
"O. c #DAE8E4",
"+. c #DFF6F5",
/* pixels */
"5 5 5 5 5 5 5 5 3 & & & & & & & & & & 5 5 5 5 5 5 5 5 5 5 5 5 5 ",
"5 5 5 z z z z w x D D D D D D D A & & & & z z z z z z z z 5 5 5 ",
"5 5 z y y y 4 & x D D D D D D D F H H H & & y y y y y y y z 5 5 ",
"5 z y y y y 4 E | | | W K | | | ' j & H H H & y y y y y y y z 5 ",
"5 z y y y y 4 m t & & a v & & < D D & H H H & y y y y y y y z 5 ",
"5 z y y y y 7 m g > , h N 9 * r D D & D H H & y y y y y y y z 5 ",
"5 z y y y y 7 m D s d D D M 8 D D D & D D H & y y y y y y y z 5 ",
"5 z y y y y y $ f D D P | / D D D D & & D H & y y y y y y y z 5 ",
"5 z y y y o     + & & & G | | ` D D q & & & & y z y y y y y z 5 ",
"5 z y y y o Q l & & & & & k | ` D D q q q & & z z z y y y y z 5 ",
"5 z y y y o   J Y Y Y Y Y Y L D D D D D q       z y y y y y z 5 ",
"5 z y y y y y $ f D D D D D D D D D D q q       y y y y y y z 5 ",
"5 z y y y y @   f U | | ~ D D D D D D D q q q &   y y y y y z 5 ",
"5 z y y y y @ c D U | | | / D D D D D D D D D q     y y y y z 5 ",
"5 z y y .     c ! | | | | | ) D D D D D D D D D D q     y y z 5 ",
"5 z y y .   B D ! | | | | | ) D D D D D D D D D D D D   y y z 5 ",
"5 z y      .+.+.X.| | | | | | ` D D D D D   D D D D D   y y z 5 ",
"5 z y   Z _ [ O.+.+.+.+.o.| | ` D D D D D D q D D D D   y y z 5 ",
"5 z y   Z % R [ [ [ [ ..+.+.+.+.+.+.+.+.u u q D D D D   y y z 5 ",
"5 z y   Z % B ^ | ] [ [ [ [ [ { +.+.+.u u u   D D D   y y y z 5 ",
"5 z y   Z % B ^ | | | | } [ [ [ [ [ [ [ u   D D D D   y y y z 5 ",
"5 z y   Z % B D ! | | | | | ) D D D D D q   q D D q   y y y z 5 ",
"5 z y     V 0 m ! | | | | | ) D D D D D q q   q     y y y y z 5 ",
"5 z y y .   ; O f D I ( T / D D D D D q q q   y y y y y y y z 5 ",
"5 z y y y y y $ f D D D D b = D D D q q q     y y y y y y y z 5 ",
"5 z y y y y y y 2 p D D N 1 = C q q q q &   y y y y y y y y z 5 ",
"5 z y y y y z y 2   i D N 1 = D S q q q     y y y y y y y y z 5 ",
"5 z y y y y y y y 6 i n q 1 = D S q q     y y z y y y y y y z 5 ",
"5 z y y y y y y y 6 - q :     X q q     y y z z y y y y y z z 5 ",
"5 5 z y y y y y y 6       # e         y y y y y y y y y z z 5 5 ",
"5 5 5 z z z z z z z z z z z z z z z z z z z z z z z z z z 5 5 5 ",
"5 5 5 5 5 5 5 5 5 5 5 5 5 5 5 5 5 5 5 5 5 5 5 5 5 5 5 5 5 5 5 5 "
};
