/* XPM */
static char *_32bb3b9240f48d192115fc5dfa6b571MM1Ten0JSomaSa4z[] = {
/* columns rows colors chars-per-pixel */
"32 32 98 2 ",
"   c #302C2E",
".  c #322D31",
"X  c #352D30",
"o  c #352D36",
"O  c #3A2F32",
"+  c #3F2D37",
"@  c #382E39",
"#  c #3A2F3C",
"$  c #3B2F3E",
"%  c #3F3233",
"&  c #472D3C",
"*  c #4B2F3D",
"=  c #443435",
"-  c #463138",
";  c #4D3639",
":  c #4F333C",
">  c #51313F",
",  c #52313F",
"<  c #50323E",
"1  c #52333E",
"2  c #3E3043",
"3  c #442B42",
"4  c #4A2F45",
"5  c #40264D",
"6  c #413147",
"7  c #4D3248",
"8  c #573540",
"9  c #583441",
"0  c #593741",
"q  c #5E3643",
"w  c #50344C",
"e  c #4F355C",
"r  c #653A45",
"t  c #673E44",
"y  c #563767",
"u  c #5A5353",
"i  c #664340",
"p  c #6F4643",
"a  c #6B4045",
"s  c #6E4146",
"d  c #724347",
"f  c #774A46",
"g  c #764349",
"h  c #794549",
"j  c #7A444A",
"k  c #735556",
"l  c #785A59",
"z  c #644574",
"x  c #804A4B",
"c  c #804E48",
"v  c #824C4B",
"b  c #844F4A",
"n  c #854C4C",
"m  c #874E4C",
"M  c #894F4D",
"N  c #8A4F4E",
"B  c #89514B",
"V  c #91554E",
"C  c #995751",
"Z  c #9A5851",
"A  c #9E5A52",
"S  c #9E5A53",
"D  c #A05B53",
"F  c #A15C53",
"G  c #80625E",
"H  c #BF7958",
"J  c #B88052",
"K  c #BC816D",
"L  c #E0945E",
"P  c #C28973",
"I  c #C99279",
"U  c #CF9B7F",
"Y  c #EEA160",
"T  c #F0AF76",
"R  c #AEA69B",
"E  c #C39F84",
"W  c #D29E81",
"Q  c #CBAB89",
"!  c #D5A385",
"~  c #D8A687",
"^  c #DCAC8B",
"/  c #DFAF8D",
"(  c #F2BB87",
")  c #E5B893",
"_  c #C9B8AB",
"`  c #EBC199",
"'  c #F1C99F",
"]  c #DFC9AE",
"[  c #CFC6B8",
"{  c #D1CBBE",
"}  c #E8CAA9",
"|  c #F4CCA1",
" . c #C8DBDB",
".. c #D5D9D1",
"X. c #ECDBC0",
"o. c #E6E8D9",
"O. c #DAE8E4",
"+. c #DFF6F5",
/* pixels */
"5 5 5 5 5 5 5 5 5 5 5 5 5 & & & & & & & & & & 3 5 5 5 5 5 5 5 5 ",
"5 5 5 z z z z z z z z & & & & A D D D D D D D x w z z z z 5 5 5 ",
"5 5 z y y y y y y y & & H H H F D D D D F F F j & 4 y y y z 5 5 ",
"5 z y y y y y y y & H H H & j ' | | | K W | | | E 4 y y y y z 5 ",
"5 z y y y y y y y & H H H & D D < & * x a & * t m 4 y y y y z 5 ",
"5 z y y y y y y y & H H D & D D r * 9 M j < < g m 7 y y y y z 5 ",
"5 z y y y y y y y & H D D & D D D 8 M D D d s D m 7 y y y y z 5 ",
"5 z y y y y y y y & H D & & D D D D / | P D D f $ y y y y y z 5 ",
"5 z y y y y y z y & & & & q D D ` | | l & & & +     o y y y z 5 ",
"5 z y y y y z z z & & q q q D D ` | l * & & & * l Q o y y y z 5 ",
"5 z y y y y y z       q D D D D D L Y Y Y Y Y Y J   o y y y z 5 ",
"5 z y y y y y y       q q D D D D D D D S A A f $ y y y y y z 5 ",
"5 z y y y y y   & q q q D D D D D D D ~ | | W f   @ y y y y z 5 ",
"5 z y y y y     q D D D D D D D D D / | | | U A c @ y y y y z 5 ",
"5 z y y     q D D D D D D D D D D ) | | | | | ! c     . y y z 5 ",
"5 z y y   D D D D D D D D D D D D ) | | | | | ! D B   . y y z 5 ",
"5 z y y   D D D S S X D D D D D ` | | | | | | X.+.+. .    y z 2 ",
"5 z y y   D D D D r D D D D D D ` | | o.+.+.+.+.O.[ _ Z   y z 5 ",
"5 z y y   D D D D q u u +.+.+.+.+.+.+.+...[ [ [ [ R % Z . y z 5 ",
"5 z y y y   D D D   u u u +.+.+.{ [ [ [ [ [ ] | / m % Z   y z 5 ",
"5 z y y y   D D D D   u _ .._ [ [ [ [ } | | | | ^ M + C   y z 2 ",
"5 z y y y   q D D q   q D D D D D ) | | | | | ! F M O C   y z 5 ",
"5 z y y y y     q   q q D D D D D ) | | | | | ! m 1 N . o y z 5 ",
"5 z y y y y y y y   q q q D D D D D / T ( I D f = ;   o y y z 5 ",
"5 z y y y y y y y     q q q D D F = b A S F S f # y y y y y z 5 ",
"5 z y y y y y y y y   3 q q q q C = 1 M F S d 2 y y y y y y z 5 ",
"5 z y y y y y y y y     q q q D D = 1 B F i   2 y z y y y y z 5 ",
"5 z y y y y y y z y y o   q q C D = 1 q m i 6 y y y y y y y z 5 ",
"5 z z y y y y y z z y y     q q X     : q - 3 y y y y y y y z 5 ",
"5 5 z z y y y y y y y y y     .   e $       6 y y y y y y z 5 5 ",
"5 5 5 z z z z z z z z z z z z z z z z z z z z z z z z z z 5 5 5 ",
"5 5 5 5 5 5 5 5 5 5 5 5 5 2 5 5 5 5 5 2 5 5 5 5 5 5 5 5 5 5 5 5 "
};
