/* XPM */
static char *result[] = {
/* columns rows colors chars-per-pixel */
"32 32 14 1 ",
"  c #302C2E",
". c #472D3C",
"X c #40264D",
"o c #5E3643",
"O c #563767",
"+ c #5A5353",
"@ c #7A444A",
"# c #644574",
"$ c #A05B53",
"% c #BF7958",
"& c #EEA160",
"* c #CFC6B8",
"= c #F4CCA1",
"- c #DFF6F5",
/* pixels */
"XXXXXXXX..........XXXXXXXXXXXXXX",
"XXX###..$$$$$$$$.....########XXX",
"XX#OOO.====$====@.%%%.OOOOOOO#XX",
"X#OOOO.$...$...$$.%%%.OOOOOOOO#X",
"X#OOOO.$o.o$o.o$$.$%%.OOOOOOOO#X",
"X#OOOO.$$.$$$.$$$.$$%.OOOOOOOO#X",
"X#OOOO# $$$==$$$$..$%.OOOOOOOO#X",
"X#OOO   ....===$$o....OOOOOOOO#X",
"X#OOO =......==$$ooo..OO#OOOOO#X",
"X#OOO ===&&&&&&$$$$o OO###OOOO#X",
"X#OOOO &&&&&&&$$$$$o   O#OOOOO#X",
"X#OOOO  $$$$$$$$$$$o    OOOOOO#X",
"X#OOO   $===$$$$$$oooooo OOOOO#X",
"X#O  o $$====$$$$$$$$$$$$ OOOO#X",
"X#  $o $======$$$$$$o$$$$ OOOO#X",
"X# oo $$======$$$$$$o$$$$ OOOO#X",
"X oo---$=======$$$$oo$$$ OOOOO#X",
"   o*------=====$$$ o$$$ OOOOO#X",
" oo  $*****------$$+o$$$ OOOOO#X",
"     $$$===*****-++ oo$$ OOOOO#X",
"X#OO $$$========*++ oooo OOOOO#X",
"X#OOO.$$=======$$$$$    OOOOOO#X",
"X#OOOO.$======$$$$$ OOOOOOOOOO#X",
"X#OOOOO $$=&=$$$$o  OOOOOOOOOO#X",
"X#OOOOO $$$$$$$o    OOOOOOOOOO#X",
"X#OOOOO  $$$$o oo oOOOOOOOOOOO#X",
"X#OOOO#O  oo  oooo OOOOOOOOOOO#X",
"X#OOOOOO     oooo$  OOO#OOOOOO#X",
"X#OOOOOOO           OO##OOOOO##X",
"XX#OOOOOOOOOOOOOOOOOOOOOOOOO##XX",
"XXX##########################XXX",
"XXXXXXXXXXXXXXXXXXXXXXXXXXXXXXXX"
};
