/* XPM */
static char *_2cf85e078b74fe3bd9ead4d090760665CCIWpQ4mtA2vbg5[] = {
/* columns rows colors chars-per-pixel */
"32 32 14 1 ",
"  c #302C2E",
". c #472D3C",
"X c #40264D",
"o c #5E3643",
"O c #563767",
"+ c #5A5353",
"@ c #7A444A",
"# c #644574",
"$ c #A05B53",
"% c #BF7958",
"& c #EEA160",
"* c #CFC6B8",
"= c #F4CCA1",
"- c #DFF6F5",
/* pixels */
"XXXXXXXXXXXXXX..........XXXXXXXX",
"XXX########.....$$$$$$$$..###XXX",
"XX#OOOOOOO.%%%.@====$====.OOO#XX",
"X#OOOOOOOO.%%%.$$...$...$.OOOO#X",
"X#OOOOOOOO.%%$.$$o.o$o.o$.OOOO#X",
"X#OOOOOOOO.%$$.$$$.$$$.$$.OOOO#X",
"X#OOOOOOOO.%$..$$$$==$$$ #OOOO#X",
"X#OOOOOOOO....o$$===....   OOO#X",
"X#OOOOO#OO..ooo$$==......= OOO#X",
"X#OOOO###OO o$$$$&&&&&&=== OOO#X",
"X#OOOOO#O   o$$$$$&&&&&&& OOOO#X",
"X#OOOOOO    o$$$$$$$$$$$  OOOO#X",
"X#OOOOO oooooo$$$$$$===$   OOO#X",
"X#OOOO $$$$$$$$$$$$====$$ o  O#X",
"X#OOOO $$$$o$$$$$$======$ o$  #X",
"X#OOOO $$$$o$$$$$$======$$ oo #X",
"X#OOOOO $$$oo$$$$=======$---oo X",
"X#OOOOO $$$o $$$=====------*o   ",
"X#OOOOO $$$o+$$------*****$  oo ",
"X#OOOOO $$oo ++-*****===$$$     ",
"X#OOOOO oooo ++*========$$$ OO#X",
"X#OOOOOO    $$$$$=======$$.OOO#X",
"X#OOOOOOOOOO $$$$$======$.OOOO#X",
"X#OOOOOOOOOO  o$$$$=&=$$ OOOOO#X",
"X#OOOOOOOOOO    o$$$$$$$ OOOOO#X",
"X#OOOOOOOOOOOo oo o$$$$  OOOOO#X",
"X#OOOOOOOOOOO oooo  oo  O#OOOO#X",
"X#OOOOOO#OOO  $oooo     OOOOOO#X",
"X##OOOOO##OO           OOOOOOO#X",
"XX##OOOOOOOOOOOOOOOOOOOOOOOOO#XX",
"XXX##########################XXX",
"XXXXXXXXXXXXXXXXXXXXXXXXXXXXXXXX"
};
