/* XPM */
static char *result[] = {
/* columns rows colors chars-per-pixel */
"32 32 67 1 ",
"  c #302C2E",
". c #332D2F",
"X c #332F31",
"o c #372D31",
"O c #362E37",
"+ c #382F31",
"@ c #3A2E33",
"# c #3E2F34",
"$ c #3A2F3C",
"% c #393536",
"& c #472D3C",
"* c #4A2E3D",
"= c #4B2F3D",
"- c #453138",
"; c #483139",
": c #4D303E",
"> c #4E303E",
", c #523A39",
"< c #5A3E3C",
"1 c #3C2F40",
"2 c #3F3145",
"3 c #41274B",
"4 c #40264D",
"5 c #413148",
"6 c #45324D",
"7 c #573540",
"8 c #5E3643",
"9 c #4F3253",
"0 c #4A3356",
"q c #4E355A",
"w c #503357",
"e c #50365F",
"r c #623E42",
"t c #633944",
"y c #683B45",
"u c #6D3E47",
"i c #563767",
"p c #5B3E63",
"a c #5A4F56",
"s c #5A5353",
"d c #6B4542",
"f c #6D4642",
"g c #744844",
"h c #764945",
"j c #744A47",
"k c #7D4C47",
"l c #7A444A",
"z c #7E4D48",
"x c #625B5A",
"c c #60436F",
"v c #644574",
"b c #874D4D",
"n c #85504A",
"m c #8C514E",
"M c #8F544E",
"N c #91534F",
"B c #935450",
"V c #905953",
"C c #A05B53",
"Z c #AD6E54",
"A c #B67056",
"S c #B87257",
"D c #BF7958",
"F c #EEA160",
"G c #CFC6B8",
"H c #F4CCA1",
"J c #DFF6F5",
/* pixels */
"4444444&&&&&&&&&&344444444444444",
"444vvv&CCCCCCCC&&&&pvvvvvvvvv444",
"44vii&&CCCCCCCCDDDr&wiiiiiiiiv44",
"4viii&HHHHCHHHHl=ZDDj9iiiiiiiiv4",
"4viii&C&&&C&&&CC:ZDDj9iiiiiiiiv4",
"4viii&C8&8C8&8CC:BSDj9iiiiiiiiv4",
"4viii&CC&CCC&CCC:BCAj9iiiiiiiiv4",
"4viiii CCCHHCCCC:&mAj9iiiiiiiiv4",
"4vii   &&&&HHHCCt*&&&9iiviiiiiv4",
"4vii H&&&&&&HHCCt88>&9ivvviiiiv4",
"4vii HHHFFFFFCCCCCu#  5iviiiiiv4",
"4viii FFFFFFFCCCCy8#  5iiiiiiiv4",
"4viiii CCCCCCCCCCCu888;2iiiiiiv4",
"4viiii CHHHCCCCCCCu8bCCg1iiiiiv4",
"4viiiJJJHHHHCCCCCCCCCCCCk$iiiiv4",
"4vi JJJJJJHHHCCCCCCC<fCCCnOiiiv4",
"4v   CGJJJJJJJCCCCC,hCCCCnOiiiv4",
"4v C CCGGGGGGJJGxs%zCCCCCnOiiiv4",
"4v C CCCHHHGGGGiiaVCCCCCk$iiiiv4",
"4v C CCCHHHHHHCsXMCCCCCg1iiiiiv4",
"4v C CCHHHHHHHCC+7NCCCd2iiiiiiv4",
"4v C CCHHHHHHCCC+7888-5iiiiiiiv4",
"4v  C&CHHHHHHCCCto   6iiiiiiiiv4",
"4vi   CCCHFHCCCCt8@  6iiiiiiiiv4",
"4viiii CCCCCCCC88o 0iiiiiiiiiiv4",
"4viiiii  CCCC888. qiiiiiiiiiiiv4",
"4viiiiv   CC88&  eiiiiiiiiiiiiv4",
"4viiiiii  CC88   eiiiiiviiiiiiv4",
"4viiiiiii CC8  8.eiiiivviiiiivv4",
"44viiiiii 88 888.eiiiiiiiiiivv44",
"444vvvvvv       cvvvvvvvvvvvv444",
"44444444444444444444444444444444"
};
