/* XPM */
static char *_485be0c44b24098cb82a4096c9ab406NhHUhBh45yShOGOl[] = {
/* columns rows colors chars-per-pixel */
"32 32 67 1 ",
"  c #302C2E",
". c #332D2F",
"X c #332F31",
"o c #372D31",
"O c #362E37",
"+ c #382F31",
"@ c #3A2E33",
"# c #3E2F34",
"$ c #3A2F3C",
"% c #393536",
"& c #472D3C",
"* c #4A2E3D",
"= c #4B2F3D",
"- c #453138",
"; c #483139",
": c #4D303E",
"> c #4E303E",
", c #523A39",
"< c #5A3E3C",
"1 c #3C2F40",
"2 c #3F3145",
"3 c #41274B",
"4 c #40264D",
"5 c #413148",
"6 c #45324D",
"7 c #573540",
"8 c #5E3643",
"9 c #4F3253",
"0 c #4A3356",
"q c #4E355A",
"w c #503357",
"e c #50365F",
"r c #623E42",
"t c #633944",
"y c #683B45",
"u c #6D3E47",
"i c #563767",
"p c #5B3E63",
"a c #5A4F56",
"s c #5A5353",
"d c #6B4542",
"f c #6D4642",
"g c #744844",
"h c #764945",
"j c #744A47",
"k c #7D4C47",
"l c #7A444A",
"z c #7E4D48",
"x c #625B5A",
"c c #60436F",
"v c #644574",
"b c #874D4D",
"n c #85504A",
"m c #8C514E",
"M c #8F544E",
"N c #91534F",
"B c #935450",
"V c #905953",
"C c #A05B53",
"Z c #AD6E54",
"A c #B67056",
"S c #B87257",
"D c #BF7958",
"F c #EEA160",
"G c #CFC6B8",
"H c #F4CCA1",
"J c #DFF6F5",
/* pixels */
"444444443244443&&&&&&&&&&4444444",
"444vvvvvvvvvp3&&&CCCCCCCC&vvv444",
"44viiiiiiii9&rDDDCCCCCCCC&&iiv44",
"4viiiiiiii9jDDZ=lHHHHCHHHH&iiiv4",
"4viiiiiiii9jDDZ:CC&&&C&&&C&iiiv4",
"4viiiiiiii9hDAB>CCt&<C8&8C&iiiv4",
"4viiiiiiiiwjABB>CCC&CCC&CC&iiiv4",
"4viiiiiiiiwjSB&>CCCCHHCCC iiiiv4",
"4viiiiivii9&&&*tCCHHH&&&&   iiv4",
"4viiiivvvi9&>88tCCHH&&&&&&H iiv4",
"4viiiiivi5  #uCCCCCFFFFFHHH iiv4",
"4viiiiiii5  #8yCCCCFFFFFFF iiiv4",
"4viiiiii2;888uCCCCCCCCCCC iiiiv4",
"4viiiii1gCCb8uCCCCCCCHHHC iiiiv4",
"4viiii$kCCCCCCCCCCCCHHHHJJJiiiv4",
"4viiiOnCCCf<CCCCCCCHHHJJJJJJ iv4",
"2viiiOmCCCCg,CCCCCJJJJJJJGC   v4",
"4viii%nBCCCCk%sxGJJGGGGGGCC C v4",
"4viiii$bCCCCCVaiiGGGGHHHCCC C v4",
"4viiiii$hCCCCCMXaCHHHHHHCCC C v4",
"4viiiiii5dBCCB7oCCHHHHHHHCC C v4",
"4viiiiiii5;t887oCCCHHHHHHCC C v4",
"4viiiiiiii6   otCCCHHHHHHC&C  v4",
"4viiiiiiii6  @8tCCCCHFHCCC   iv4",
"4viiiiiiiiii0 o88CCCCCCCC iiiiv4",
"4viiiiiiiiiiiw  888CCCC  iiiiiv4",
"4viiiiiiiiiiiii  &88CC   viiiiv4",
"4viiiiiiviiiiiq   88CC  iiiiiiv4",
"4vviiiiivviiiie 8  8CC iiiiiiiv4",
"44vviiiiiiiiiieo888 8t iiiiiiv44",
"444vvvvvvvvvvvcc       vvvvvv444",
"44444444444444444444444444444444"
};
