/* XPM */
static char *_d6c4b494d3245269f68bc2be30752c4cnWqoVRzVLzIVEK1[] = {
/* columns rows colors chars-per-pixel */
"32 32 95 2 ",
"   c #1E1818",
".  c #1F1919",
"X  c #1F191B",
"o  c #201816",
"O  c #211917",
"+  c #201718",
"@  c #20171A",
"#  c #211819",
"$  c #221819",
"%  c #21181B",
"&  c #22191A",
"*  c #503929",
"=  c #523829",
"-  c #513A28",
";  c #523B29",
":  c #53392A",
">  c #513A2A",
",  c #503B2A",
"<  c #523B2B",
"1  c #543A2B",
"2  c #53392C",
"3  c #513A2C",
"4  c #523B2D",
"5  c #413C53",
"6  c #413B55",
"7  c #413B57",
"8  c #443B56",
"9  c #423D54",
"0  c #433E55",
"q  c #413D56",
"w  c #423C56",
"e  c #433D57",
"r  c #403E56",
"t  c #423E57",
"y  c #443C54",
"u  c #453C57",
"i  c #443B58",
"p  c #413D58",
"a  c #423C58",
"s  c #8A693C",
"d  c #896A3C",
"f  c #8A6B3C",
"g  c #8B6B3C",
"h  c #8B6A3D",
"j  c #8A6B3D",
"k  c #8A693E",
"l  c #896A3E",
"z  c #886B3F",
"x  c #8B6A3F",
"c  c #8A6B3F",
"v  c #8C6B3E",
"b  c #886C3D",
"n  c #8B6C3E",
"m  c #8B6A41",
"M  c #8C6B40",
"N  c #8C6B42",
"B  c #8B6C40",
"V  c #B08E47",
"C  c #C19C4B",
"Z  c #C29B4C",
"A  c #C19C4C",
"S  c #C09D4C",
"D  c #C39D4C",
"F  c #C29D4D",
"G  c #C39E4E",
"H  c #EBD973",
"J  c #E9DA73",
"K  c #E8DB73",
"L  c #E9DC73",
"P  c #EADC73",
"I  c #E8D974",
"U  c #EBD975",
"Y  c #E9DA75",
"T  c #EADB74",
"R  c #E9D977",
"E  c #EADB76",
"W  c #ECDA76",
"Q  c #E9DC74",
"!  c #EBDC75",
"~  c #EADD75",
"^  c #B9AAAD",
"/  c #B9AAAF",
"(  c #B7AAB1",
")  c #B8A9B0",
"_  c #BAA9B1",
"`  c #B9AAB1",
"'  c #BAABB0",
"]  c #B8A8B2",
"[  c #BAABB2",
"{  c #B8ABB4",
"}  c #F9FBF8",
"|  c #FAFAF8",
" . c #FBFAF8",
".. c #FBFBF9",
"X. c gray98",
/* pixels */
"e u e 5 e 5 * * * * < - * * * * 3 * * < 1 i i e e e 7 e 5 e 5 7 ",
"e e e u 5 7 n v m j n b B n j j j j 3 * * * * t e e e 5 7 e e 7 ",
"7 7 7 7 * * j j j j j j j j j j h j A A G G * * , e e e r 5 e 5 ",
"e r y e 3 T ~ T T T j j T T T T T ~ v * * A A C C * r 7 e 7 e 7 ",
"7 5 e 5 * n * < * < n B * < < * * M B * < A A A A * y 7 e e r 7 ",
"7 e 7 5 * v * < * * j n < < * * * j m < * V A A C * e 7 5 e 5 e ",
"u 5 e 7 * j n n * n n g g < n j v B h * < j j A A * 7 e 7 5 7 e ",
"7 e e e * j j n , s b n n * n s n j v 1 < j j C A < e 5 e e 5 7 ",
"e e 7 5 u O n n j n L L ! v g n s n j < ; 3 j A A * 5 7 e r r 7 ",
"5 7 $ $ * @ * * 1 * * * ! ! ! W L s n < * * 3 * < 1 e 7 e e 5 7 ",
"e e $ O T * * 3 * , < < ; ~ ~ ~ L j g * 3 * , * < e e e e e 7 e ",
"e e * * T ~ ! T A A A A D G G V A b n v v v , X O e 7 5 5 7 7 y ",
"e e 7 e + C A A A A A V G G n g j j z j j j * $ O . e 7 7 5 u e ",
"e 7 e e e < j j n j j j v v s n B j j j j j $ $   O 7 e e 7 e 5 ",
"7 } } ^ e   s j L T T T v g n j z j j j n j * 1 * * * $ . e e 7 ",
"e ^ ) ) } } v j T T T T ~ B n g j j j j n n < * 1 h n j j   e 5 ",
"e a ) ) _ } } }  .W T W T T j j j j j j j j j j j j s j b j @ e ",
"e * M j ) ) ) ) } }  .X.T T j j s j j b n h j j j @ m j j j j @ ",
"7 $ M h M M ) ) ) )  . .} } ~ T T n j j j j j j j $ j j j j j $ ",
"e O j h j T T T ! [ ) ) )  .} } } } s j j j j . $ j m j m b j $ ",
"7 . j j m H T T L ~ T T [ ) [ { ) } } 7 u e $ j j m n g n j h @ ",
"5 $ j j j T T T T H K K H ~ ( ( ) ) 7 7 e + j j m j b n j j * 7 ",
"5 + j j j T T T R T T T H L H T ! j 7 . + h j n b j s n g * e e ",
"e @ j j M j T T T T T T ~ H j j M M h $ O * j j j j n . $ 7 e e ",
"e * * < n n H K H ~ T K T T j j n j B $ $ 3 * * * * @ e 5 e 7 e ",
"e 1 < *   g n j H A T ~ $ @ $ $ . n n * < $ $ $ $ $ 7 r 7 e 7 5 ",
"e 7 7 * @ j j n j j M h * r 7 @ $ j n * * * < < < $ e e e 6 e e ",
"e 5 e 7 $ j b j v * @ O $ e @ O @   v < * 3 * < * $ e e 6 e 5 e ",
"u 7 e 7 $ @ j j n 3 @ O 5 e 5 7 e $ n j m * < * - O 7 e e 7 5 e ",
"5 7 5 e . . j j n * O @ 7 e e 7 7 $ j b j * * 1 * + e 5 r 7 e 7 ",
"u e 7 5 e $ n j 3 * @ O 7 y 6 e e $ j z n n * $ $ $ 5 e 5 e 5 7 ",
"7 e e e e O * * * $ $ @ 5 e e 5 e $ $ * < * $ * @ e 7 e 7 7 e e "
};
