/* XPM */
static char *c41cc21b0a45449fd2340e6f6e2748f38C8vd5X12yU7oo92[] = {
/* columns rows colors chars-per-pixel */
"32 32 12 1 ",
"  c #2D241B",
". c #504131",
"X c #644A28",
"o c #694D2A",
"O c #765934",
"+ c #40264D",
"@ c #563767",
"# c #644574",
"$ c #65656F",
"% c #86663F",
"& c #9F7949",
"* c #888894",
/* pixels */
"++++++++++++++++++++++++++++++++",
"+++##########################+++",
"++#@@@@@@@@@@@@@@@@@@@@@@@@@@#++",
"+#@@@@@@@@@@@@@@@@@@@@@@@@@@@@#+",
"+#@@@@@@@@@@@@@@@@@@@@@@@@@@@@#+",
"+#@@@@@@@@@@@@     @@@@@@@@@@@#+",
"+#@@@@@@@@@   &&&&&   @@@@@@@@#+",
"+#@@@@@@@@ &&&OOOOO&&& @@@@@@@#+",
"+#@@@@@@@ &OOOXXXXXOOO& @@@@@@#+",
"+#@@@@@@@ &OOXXXXXXXOO& @@@@@@#+",
"+#@@@@@@@ %OOOXXXXXOOO% @@@@@@#+",
"+#@@@@@@ o.%%%OOOOO%%%.o @@@@@#+",
"+#@@@@@@ oo...%%%%%...oo @@@@@#+",
"+#@@@@@@ o%X&o.....ooX%o @@@@@#+",
"+#@@@@@ * &X&%ooX&%%&X& * @@@@#+",
"+#@@@@@ $*   %%%X&&&   *$ @@@@#+",
"+#@@@@@  $***  %X&  ***$  @@@@#+",
"+#@@@@@ o $$$**   **$$$ o @@@@#+",
"+#@@@@@ o&   $$***$$   %o @@@@#+",
"+#@@@@@ o%&X&  $$$  &X&%o @@@@#+",
"+#@@@@@   %X%%%   %%&X&   @@@@#+",
"+#@@@@@@ * X&%%%X&%%%X * @@@@@#+",
"+#@@@@@@@ *  &&&X&%%  * @@@@@@#+",
"+#@@@@@@@ $$*  &X&  *$$ @@@@@@#+",
"+#@@@@@@@@  $$*   *$$  @@@@@@@#+",
"+#@@@@@@@@@@  $$$$$  @@@@@@@@@#+",
"+#@@@@@@@@@@@@     @@@@@@@@@@@#+",
"+#@@@@@@@@@@@@@@@@@@@@@@@@@@@@#+",
"+##@@@@@@@@@@@@@@@@@@@@@@@@@@@#+",
"++##@@@@@@@@@@@@@@@@@@@@@@@@@#++",
"+++##########################+++",
"++++++++++++++++++++++++++++++++"
};
