/* XPM */
static char *result[] = {
/* columns rows colors chars-per-pixel */
"32 32 142 2 ",
"   c #302C2E",
".  c #312C2E",
"X  c #302D2E",
"o  c #302C2F",
"O  c #302D2F",
"+  c #322A32",
"@  c #322B32",
"#  c #332B32",
"$  c #312C30",
"%  c #322C31",
"&  c #322D31",
"*  c #322C32",
"=  c #342C34",
"-  c #352C34",
";  c #342D34",
":  c #352C35",
">  c #342D35",
",  c #3B2E33",
"<  c #362D38",
"1  c #372E38",
"2  c #372F38",
"3  c #3B2F39",
"4  c #382E3C",
"5  c #3C2F3F",
"6  c #3C3535",
"7  c #472C3C",
"8  c #462D3C",
"9  c #472D3C",
"0  c #462D3D",
"q  c #472D3D",
"w  c #472D3E",
"e  c #4C2F3F",
"r  c #4E2F3E",
"t  c #4E303E",
"y  c #4E303F",
"u  c #4F303F",
"i  c #5A3D3C",
"p  c #3A2842",
"a  c #3F264B",
"s  c #492E44",
"d  c #40264C",
"f  c #41264C",
"g  c #40264D",
"h  c #41264D",
"j  c #40274D",
"k  c #42294F",
"l  c #4B2F4A",
"z  c #533240",
"x  c #5E3642",
"c  c #5E3643",
"v  c #5F3643",
"b  c #5E3743",
"n  c #483452",
"m  c #4B3159",
"M  c #4D345B",
"N  c #4F365D",
"B  c #503B59",
"V  c #683E45",
"C  c #6C3E46",
"Z  c #543565",
"A  c #553766",
"S  c #563766",
"D  c #573766",
"F  c #563667",
"G  c #573667",
"H  c #563767",
"J  c #573767",
"K  c #553864",
"L  c #563867",
"P  c #573868",
"I  c #583A6A",
"U  c #5A3D6C",
"Y  c #5C3E6C",
"T  c #4F494A",
"R  c #5A5352",
"E  c #5A5353",
"W  c #5B5353",
"Q  c #6D4146",
"!  c #604270",
"~  c #614370",
"^  c #604371",
"/  c #634472",
"(  c #644474",
")  c #644574",
"_  c #654574",
"`  c #654475",
"'  c #644575",
"]  c #644674",
"[  c #844F4A",
"{  c #894F4C",
"}  c #894F4D",
"|  c #8E524F",
" . c #8F524F",
".. c #8F534F",
"X. c #975651",
"o. c #A05B52",
"O. c #A15B52",
"+. c #A05A53",
"@. c #A15A53",
"#. c #A05B53",
"$. c #A15B53",
"%. c #A86254",
"&. c #A56258",
"*. c #A8665B",
"=. c #A9665B",
"-. c #B57056",
";. c #BF7858",
":. c #BE7958",
">. c #BF7958",
",. c #BF7959",
"<. c #D0865B",
"1. c #EFA060",
"2. c #EEA160",
"3. c #EFA160",
"4. c #EEA161",
"5. c #D4A183",
"6. c #EAC39B",
"7. c #EFC59C",
"8. c #CEC6B8",
"9. c #CFC6B8",
"0. c #CFC7B8",
"q. c #CEC6B9",
"w. c #CFC6B9",
"e. c #CFC7B9",
"r. c #D0C6B6",
"t. c #D3C6B6",
"y. c #F4CCA0",
"u. c #F5CCA0",
"i. c #F4CDA0",
"p. c #F4CCA1",
"a. c #F5CCA1",
"s. c #F4CDA1",
"d. c #F5CDA1",
"f. c #F2CEA6",
"g. c #F2D0A9",
"h. c #AEB3C2",
"j. c #BECDCC",
"k. c #D5D8CF",
"l. c #DFF6F4",
"z. c #DEF6F5",
"x. c #DFF6F5",
"c. c #DFF7F5",
/* pixels */
"g g g g g g g g g g N 9 9 9 9 9 9 9 9 9 9 9 9 9 9 9 M f g j g g ",
"g g g ) ) ) ) ) ] 9 9 7 9 q #.#.#.#.#.#.#.#.#.+.#.#.l ! ) g d g ",
"g g ) H H H L 7 9 9 >.>.:.,.o.#.#.#.#.#.#.#.#.$.#.#.9 7 H ) g g ",
"g ) H H H H w >.>.>.,.9 7 C p.a.p.p.p.7.#.#.p.p.p.y.d.7 H H ) g ",
"g ) S H F J 9 >.>.>.;.9 9 } #.V 9 q 9 e #.#.9 9 9 8 #.9 J H ) g ",
"g ) H H H H 8 >.>.;.-.0 9 } #.Q t r 9 z #.#.u 9 t y #.9 H H ) g ",
"g ) H H H H 9 >.:.#.$.9 9 } #.#.#.X.9 #.#.+.#.9 #.#.#.8 H H ) g ",
"g _ J H H S 9 >.>.#.#.9 9 { #.#.#.X.9 +.#.O.o.9 $.+.#.9 H H _ g ",
"g ) H H H H 9 >.>.O.9 8 9 } #.#.o.#.#.y.p.y.#.#.#.#.  S H H ` g ",
"g ) H G F H 8 9 9 9 9 c c  .+.5.p.p.p.6.9 9 8 8 9 7   :     ) g ",
"g ) H H H H s q 9 c c c c | #.5.p.p.s.9 9 9 7 9 0 9 9 s.    ' d ",
"g ) H S F S L   O c #.#.$.$.#.<.2.2.2.2.2.2.2.1.y.p.p.p.; > _ g ",
"g ) H J H F % X   c #.#.#.o.o.o.#.%.4.2.2.3.4.2.2.2.2.% H Z ) h ",
"g ' J H S 4       X #.o.#.o.#.#.+.#.#.+.#.@.+.#.#.#.1 H H I ( j ",
"g ) H   % c b c c c $.#.o.#.#.#.#.#.#.&.p.p.p.p.#.o.  U h.x.x.g ",
"g ^   #.#.#.o.c c c #.+.#.#.o.#.#.+.+.p.p.p.p.p.#.#.x.x.9.e.9.g ",
"k * #.#.#.#.#.#.#.#.#.o.#.$.o.#.#.*.p.p.s.p.a.l.x.x.x.9.9.0.Y g ",
"  o.#.$.#.#.X #.#.#.#.#.#.#.#.#.#.*.p.f.x.z.x.x.w.9.9.9.o.o.- g ",
"  #.#.#.#.#.o o.o.+.#.#.+.$.#.5.p.g.x.x.z.x.9.9.9.9.+.#.#.#.  g ",
"  $.#.#.#.o.#.    #.#.#.o.$.x.x.x.x.c.9.9.9.9.p.p.p.p.#.#.#.  g ",
"+ #.#.#.o.#.#.#.#.  E E E j.x.k.9.8.9.r.p.p.p.p.p.p.p.$.#.#.  g ",
"j # #.o.+.#.+.#.#.#.  E W R 9.q.9.t.p.p.p.p.i.p.p.p.p.#.#.#.  f ",
"g / < #.#.#.#.o.$.#.#.    T #.5.y.y.a.p.p.y.i.p.a.u.u.#.#.#.  h ",
"j ) A o   #.o.#.#.#.c   o [ o.#.+.*.p.p.p.y.p.p.p.p.#.#.#.+.X g ",
"g ) H F H   c c c c b o   [ #.#.#.=.p.p.p.p.p.p.p.p.#.#.7 9 7 g ",
"j ( S F H H         o c c ..$.i     . 6 p.p.2.p.#.#.#.  9 9 9 j ",
"g ) H H H H   c c c c x c  .#.i & 5 S 3 #.#.#.#.#.#.#.  9 s ! g ",
"g _ H S D H   c c x x b b ..  X   = H .     v #.#.#.#.. H S ) g ",
"g ) ) J H H   c b c c #.#.o.  n P H H K     c #.#.#.    H H ) g ",
"g g ' ) H F   c c c c #.#.#.o n P H H K   X c O.+.$.    H ) g g ",
"g h g ) ) '       c #.+.$.#.  B ) _ ) ~     x b #.#.o ] _ g g g ",
"g g j g g g m   2 . c c c , $ p g g g a   @ . c c c . g g g g g "
};
