/* XPM */
static char *_d64cac6002b4fd3d34ac944b4b97990njHa4HvuM1PRtwEi[] = {
/* columns rows colors chars-per-pixel */
"32 32 35 1 ",
"  c #211818",
". c #211918",
"X c #211819",
"o c #201919",
"O c #211919",
"+ c #523A2A",
"@ c #523B2A",
"# c #533B2A",
"$ c #523A2B",
"% c #533A2B",
"& c #523B2B",
"* c #423C56",
"= c #433C56",
"- c #423D56",
"; c #433D56",
": c #423C57",
"> c #8A6A3E",
", c #8B6A3E",
"< c #8A6B3E",
"1 c #8B6B3E",
"2 c #8A6B3F",
"3 c #B08D48",
"4 c #C19C4C",
"5 c #C19C4D",
"6 c #C19D4D",
"7 c #EADA74",
"8 c #EADB74",
"9 c #EBDB74",
"0 c #EADB75",
"q c #B8AAB0",
"w c #B8ABB0",
"e c #B9AAB1",
"r c #FAFAF9",
"t c #FBFAF9",
"y c #FBFBF9",
/* pixels */
"********;;;##&%%%&&&@&&&&+******",
"********;###&&111111<><<<<******",
"*******&##6666111111>>,><>++****",
"******&5666##1998000>>77777+****",
"******&5666#@11@@@&&,>&&@@<@****",
"******&4663#@11@@@&&>>&&@@<+****",
":*****&431<@@1111<@<<<<&<<,+****",
"******&43<<@@1111<@<>><&<<,&****",
"******&541&&#11121199911<< **--*",
"******&&&&&&#1180999####&& &  **",
"*******&++&&#1<8009&&&##+&+7  **",
"*******X +,,1113635666667777&&**",
"**:***XX &,<<,,<11663666663o-***",
"******XX  ,,<<<<1111111111#-****",
"***XX&&&&+,,<<<<1211999911 -qrr-",
"**X,111&&&,,<<<<1219999911rrqqq*",
"-o<2<<<<<<<<<<<<1100888yyyrqqq**",
"o<<1<<o1<<<<<<<,2100yyyreeqq,,&*",
"o,<2<<o1<<<,<<,800yyrrwwwq,,,,o*",
"o1<11<<oo<,<<<rryyywwee8999,1,o*",
"o,<<<<<<,o---rrwwwww888880011<o-",
"-$<<<,<<<<o---wwww888888800<1<o-",
"**@<1<<<,,,o -<7888888890801,,o:",
"*--oo<<<1,&o 1<<1188888888121,o*",
"*****o&&&&+  ,<<1109887988<1@&&-",
"******oo   &+,, ....8839<<,o&&$-",
"******X&++&&+<< .;;@11,,<<<o&*-*",
"******X&+&&&+,  O.*XXX&,<<<o****",
"******X&&&&,,2o*;;;-XX&,,,XX****",
"****** &&&&,,,X*;;:-Xo&,,,Xo****",
"****** Xo&1111o*--;-oo@@,1o*****",
"******* &o@&&oo::---ooo@@@o*****"
};
