/* XPM */
static char *fa0139e2e6f94bd8b37477bceda38938G66mkBuEnrndVs36[] = {
/* columns rows colors chars-per-pixel */
"32 32 121 2 ",
"   c #322C31",
".  c #3B2E34",
"X  c #3A2D3D",
"o  c #3B3133",
"O  c #472C3B",
"+  c #4B2E3D",
"@  c #423436",
"#  c #443038",
"$  c #4C323B",
"%  c #53343F",
"&  c #523A3A",
"*  c #583C3E",
"=  c #3C2744",
"-  c #3C2D42",
";  c #3E2748",
":  c #492F42",
">  c #40264D",
",  c #432B4E",
"<  c #4B2F4B",
"1  c #502E4B",
"2  c #443E40",
"3  c #45324B",
"4  c #4C3049",
"5  c #573340",
"6  c #5D3542",
"7  c #5E3841",
"8  c #452A51",
"9  c #4A2E57",
"0  c #4A2F58",
"q  c #4B3352",
"w  c #4E345A",
"e  c #513355",
"r  c #51335F",
"t  c #523B5C",
"y  c #633B43",
"u  c #6B3D46",
"i  c #563766",
"p  c #593F60",
"a  c #573768",
"s  c #5C3C6A",
"d  c #4D4A4C",
"f  c #555050",
"g  c #595353",
"h  c #6D4344",
"j  c #724446",
"k  c #734845",
"l  c #794B47",
"z  c #75444A",
"x  c #7B474A",
"c  c #7C4A49",
"v  c #6B4E51",
"b  c #756358",
"n  c #584366",
"m  c #5F406E",
"M  c #60416F",
"N  c #644473",
"B  c #834B4C",
"V  c #894E4D",
"C  c #87554B",
"Z  c #92544F",
"A  c #835651",
"S  c #965650",
"D  c #9C5A52",
"F  c #A05C53",
"G  c #AA6455",
"H  c #A66458",
"J  c #A8665A",
"K  c #AD6D5F",
"L  c #BC7657",
"P  c #BE7658",
"I  c #BF7858",
"U  c #93716A",
"Y  c #98776B",
"T  c #A57E6E",
"R  c #AF7868",
"E  c #B17363",
"W  c #98816C",
"Q  c #A8806F",
"!  c #AD8B78",
"~  c #B8957E",
"^  c #CA805A",
"/  c #C28872",
"(  c #C79078",
")  c #CF9B7E",
"_  c #EB9E61",
"`  c #EFA161",
"'  c #EFA669",
"]  c #6E5780",
"[  c #B6918A",
"{  c #A79F95",
"}  c #A9B4B3",
"|  c #D7A586",
" . c #DCAD8B",
".. c #C3A99B",
"X. c #DBB793",
"o. c #D8B59A",
"O. c #F1B883",
"+. c #F2BD8B",
"@. c #E1B490",
"#. c #E6BB95",
"$. c #E8BE97",
"%. c #C6BBB1",
"&. c #C9BFBA",
"*. c #EEC79E",
"=. c #F1C99F",
"-. c #CFC6B7",
";. c #D0C7B9",
":. c #EECBA5",
">. c #E7CAA9",
",. c #F3CCA1",
"<. c #EED9B9",
"1. c #B4B8C1",
"2. c #D4D3C8",
"3. c #D9E3DC",
"4. c #D3E0E0",
"5. c #DBE9E4",
"6. c #DDEEEB",
"7. c #DEF1EF",
"8. c #DFF4F1",
"9. c #E4EEE4",
"0. c #E0F6F4",
/* pixels */
"> > > 8 8 i < O O O O O O O O O O O O O 9 r , > 8 8 8 8 8 > ; > ",
"> > > M s 1 z Z S Z Z Z Z Z Z Z Z x O O $ : + N m N M N M > > > ",
"> > N a e O B D D F F F D F F F F S l l l k + e w i i a a N > > ",
"9 N a a O *.:.,.,.,.J F =.=.=.=.=.~ y + C L L L L < i a a a s > ",
"0 N a a O ( T Y Y Y F F Y Y Y Y Q R h O C I I I I 4 a a a a M > ",
"0 N a a O F u 6 : $ D D 6 + + 6 h F x O x G I I I 4 a a a a M > ",
"0 N a a O F S V 5 7 F F V y % V Z F x O j F G I I < a a a a M > ",
"0 N a a : V D F u j E E E c y F F F x + u Z F I I 4 a a a a s > ",
"0 N - X -   $ % 7 * v v ,.$.@.@.) F B 6 % O 5 y y 4 a a a a M > ",
"0 N     b . O O O O O O ~ X.,.,. .F B 6 5 % + O O 4 a a a a M > ",
"0 N     ,.O O O O O O O O ! ,.,. .F B 6 6 6 6 O O e i a i i M > ",
"0 N 3 3 W O.O.O.' ` ` ` _ _ _ ^ P F F F F S 6     q i a a i M > ",
"0 N i a   _ _ ` _ _ _ _ _ _ _ D F F F F F D 6     X i i i a M > ",
"0 N s a a   c F F F F F F F F F F F F F F S         . i a a m > ",
"n 4.6.1.] d A D @.,.,.,.K H F F F F F F F D 6 y 6 u u @ @ r m > ",
"p %.;.-.0.0.[ F @.,.,.,.,./ F F F F F F F S 6 6 6 D F F D   M > ",
"q t ....-.3.5.5.8.9.<.<.,.,.$.F F F F F F F F F F C F F F F & O ",
"8 X F F -.-.-.-.6.0.8.8.,.,.$.F F F F F F F F F F & F F F F D & ",
",   F F F F ..-.;.;.8.8.8.8.9.,. .F F F F F F D F & F F F F D & ",
", X F F F =.,.,.,.>.;.;.;.3.0.8.7.&.F F F F F o   F F F D F F & ",
", o F F F =.,.,.,.,.,.,.-.-.-.-.2.0.} g g f   D F F F D F F F * ",
",   F F F ,.,.,.,.,.,.,.,.,.:.-.;.{ g g 2 o F F F F F D F F   = ",
",   F F F ,.,.,.,.,.,.,.,.,.,.>.o.U d @ h x F F F F D H D 7 t ; ",
", X F F F D | ,.,.,.,.,.,.,.#.F F F j   # y F F F F D     s s ; ",
"9 # * * F F | ,.=.=.,.,.,.,.#.D F F k   $ 6 u u h y @ t w a m > ",
"9 : O O   F F F @.+.=.,.        & F B 6 #         - a a a a m > ",
"9 m O +   F F F J J J H X q w   & D V 6 6 5 6 6 6 - a a a a m > ",
"0 M q q   F F F F Z h h . 4 i   @ c V 6 6 6 6 6 6 - a a a a N > ",
"0 N i i     l D F V     a a a s w & F F x 6 6 6 6 - a a a N s > ",
"> > N i q   c F B u .   a a i i w & F F S c 6 O # - a a N N 8 > ",
"> > > N M   k Z u *     N N N N t & Z S S S 5     3 N N N > ; > ",
"> > > 9 0   . @ . . , ; 0 0 0 0 9 X   @ . . . ; ; q 0 0 0 > > > "
};
