/* XPM */
static char *_a462b9f8c1843e8a9aa17adb4771fbbLePPFd6PS15cZjbK[] = {
/* columns rows colors chars-per-pixel */
"32 32 12 1 ",
"  c #020003",
". c #030104",
"X c #030005",
"o c #020105",
"O c #070104",
"+ c #050204",
"@ c #040305",
"# c #040306",
"$ c #050306",
"% c #050307",
"& c #070306",
"* c #080307",
/* pixels */
"....... ....  ..   .............",
"......  ....  ..  ..............",
"................................",
"................................",
"................................",
"................................",
"................................",
"................................",
"......................o.........",
"................................",
"................................",
"..........................o..o..",
"..........o.....o...............",
"............oo..................",
".............oo............o....",
".............oo.....o...........",
"............................o..o",
"..........................o.....",
".........o......................",
"..........o.o...................",
"................................",
"................................",
".....%oo.o....................oo",
"....%oooo....................ooo",
"......................+.........",
"%.......................o%+.+%.+",
".%+..+.+...+............%.o+% o%",
".%.%%%%o..+............+.%%%%%%.",
"%+.++%.+%++++%++.%%..%.%+.++@+ %",
"%%o++.++o.o%+..+o..#+%+.+.++++%.",
"++.*....++++o*+*.%%.%++++*+++O%%",
"*%%%+%%%+.%*++%.+.%%.%.++****&&&"
};
