/* XPM */
static char *_ebd6db7aa5b4523c11f621172627d0ezpF1hlk4n7PKxcxI[] = {
/* columns rows colors chars-per-pixel */
"32 32 32 1 ",
"  c #2B0E54",
". c #2A0F54",
"X c #2B0F54",
"o c #2B0F55",
"O c #6B175C",
"+ c #40264D",
"@ c #563767",
"# c #644574",
"$ c #AB1F64",
"% c #AB1E65",
"& c #AA1F65",
"* c #AB1F65",
"= c #D55053",
"- c #AB8856",
"; c #C58156",
": c #FE8042",
"> c #FF8042",
", c #FE8142",
"< c #FF8142",
"1 c #FE8143",
"2 c #FF8143",
"3 c #FFAC43",
"4 c #FFAD43",
"5 c #FFDA44",
"6 c #FEDA45",
"7 c #FFDA45",
"8 c #FFDB45",
"9 c #80678B",
"0 c #FEF6F8",
"q c #FFF6F8",
"w c #FEF7F8",
"e c #FFF7F8",
/* pixels */
"++++++++++++++++++++++++++++++++",
"+++##########################+++",
"++#@@@@@@@@<<<455559@@@@@@@@@#++",
"+#@@@@@@@<<<<<<<,5557@@@@@@@@@#+",
"+#@@@@@@<<<<<<<<,,5555@@@@@@@@#+",
"+#@@@@@<<<<ee5<<,,,5755@@@@@@@#+",
"+#@@@@@<<<53<<,$,,,,eeee@@@@@@#+",
"+#@@@@7<<$<=<<,,=,,,7eee@@@@@@#+",
"+#@@@@7<%<<<5ee,<%<<<eeee@@@@@#+",
"+#@@@77<$<<<XX$,<<%<<<777@@@@@#+",
"+#@@@77*<<<<X$,,<<<<<<7777@@@@#+",
"+#@@@77%<<<<X$,,<<<<<<<<<<@@@@#+",
"+#@@@77%=3<<$$,,<,<<<<X<<<@@@@#+",
"+#@@@7<<<<<<$$,,<<<,<<X%**@@@@#+",
"+#@@@7<<4<<<$$,,<<<<<<.%**@@@@#+",
"+#@@@7<<55<<$$,,,<<<<<.XX.%@@@#+",
"+#@@@7<<677<**<<<<<<<<.OOOX@@@#+",
"+#@@@7<<767<*%<<<<<<<<X$$$O@@@#+",
"+#@@@77<777<**<<<<<<<<XooX-@@@#+",
"+#@@@77,8777**<<<<<<<<X oo@@@@#+",
"+#@@@7577777**<<<<<,<< ooo@@@@#+",
"+#@@@777<877**<<<,<<<<  XX@@@@#+",
"+#@@@@78<677**<<<<<<<1..XX@@@@#+",
"+#@@@@777<77<<<74<<<,...XX@@@@#+",
"+#@@@@@587777777<<<<7 ..X@@@@@#+",
"+#@@@@@7777<<<<<<4777*$*%@@@@@#+",
"+#@@@@@@77777<<7<777X***@@@@@@#+",
"+#@@@@@@@7878777577.<**@@@@@@@#+",
"+##@@@@@@@75875777X%<*@@@@@@@@#+",
"++##@@@@@@@<77774X<<<@@@@@@@@#++",
"+++###########%;#############+++",
"++++++++++++++++++++++++++++++++"
};
