/* XPM */
static char *abac01d2bfd94822e972401bb5864e2dlDJ9CPAcoGJiby46[] = {
/* columns rows colors chars-per-pixel */
"32 32 32 1 ",
"  c #2B0E54",
". c #2A0F54",
"X c #2B0F54",
"o c #2B0F55",
"O c #6B175C",
"+ c #40264D",
"@ c #563767",
"# c #644574",
"$ c #AB1F64",
"% c #AB1E65",
"& c #AA1F65",
"* c #AB1F65",
"= c #D55053",
"- c #AB8856",
"; c #C58156",
": c #FE8042",
"> c #FF8042",
", c #FE8142",
"< c #FF8142",
"1 c #FE8143",
"2 c #FF8143",
"3 c #FFAC43",
"4 c #FFAD43",
"5 c #FFDA44",
"6 c #FEDA45",
"7 c #FFDA45",
"8 c #FFDB45",
"9 c #80678B",
"0 c #FEF6F8",
"q c #FFF6F8",
"w c #FEF7F8",
"e c #FFF7F8",
/* pixels */
"++++++++++++++++++++++++++++++++",
"+++##########################+++",
"++#@@@@@@@@@988884<<<@@@@@@@@#++",
"+#@@@@@@@@@5888=<<<<<<<@@@@@@@#+",
"+#@@@@@@@@5555,,<<,,,,<<@@@@@@#+",
"+#@@@@@@@5555,,,<<8ww,<<<@@@@@#+",
"+#@@@@@@ewee,,,,$<<<,8<<<@@@@@#+",
"+#@@@@@@eee5,,,=<<<<<<$<<8@@@@#+",
"+#@@@@@qqqq<<<$,,ww5,,,$<8@@@@#+",
"+#@@@@@888<<<$,,,$XX,,,$<85@@@#+",
"+#@@@@8888<<<<<<,<$X,>>,$88@@@#+",
"+#@@@@<<=<<<<<<<<<$ ,,,,$85@@@#+",
"+#@@@@<<3X<<<<<<<<$$,,,,$88@@@#+",
"+#@@@@**$X<<<<<<<<%%,,,,<<8@@@#+",
"+#@@@@%%$X<<<<<<<<%*,,,4<,8@@@#+",
"+#@@@%XXXX<<<<<<<<*$,,88,,8@@@#+",
"+#@@@XOOO.<<<<<<<<**<888<<8@@@#+",
"+#@@@O$$$.<<<<<<<<**<888<<8@@@#+",
"+#@@@-XX.X<<<<<<<<**<888<88@@@#+",
"+#@@@@X XX<<<<<<<<**8888<88@@@#+",
"+#@@@@  XX<<<<<<<<**8888888@@@#+",
"+#@@@@  XX<<<<<<<<**888<588@@@#+",
"+#@@@@X.XX<<<<<<<<%%866<85@@@@#+",
"+#@@@@XXXX.:<<<48<<<88=888@@@@#+",
"+#@@@@@X...8<<<<888855585@@@@@#+",
"+#@@@@@$**%88843,<<<<5558@@@@@#+",
"+#@@@@@@**$X886=8,<85588@@@@@@#+",
"+#@@@@@@@*%<X8655588888@@@@@@@#+",
"+##@@@@@@@%<%X88555858@@@@@@@@#+",
"++##@@@@@@@<<<X45555<@@@@@@@@#++",
"+++#############;*###########+++",
"++++++++++++++++++++++++++++++++"
};
