/* XPM */
static char *b3fc51e7ac2142e2a22c81e7a7e8413cFU8qBU3pnyx6l3mt[] = {
/* columns rows colors chars-per-pixel */
"32 32 31 1 ",
"  c None",
". c #2C2116",
"X c #3E2D1E",
"o c #4C3928",
"O c #523F2C",
"+ c #634E38",
"@ c #66513D",
"# c #413D4F",
"$ c gray28",
"% c #67594B",
"& c #766047",
"* c #78624B",
"= c #7C644D",
"- c #796858",
"; c #58526A",
": c #606060",
"> c #766D66",
", c #727272",
"< c #777777",
"1 c gray50",
"2 c #836B52",
"3 c #81776F",
"4 c #888078",
"5 c #7A7290",
"6 c #999088",
"7 c #AAA098",
"8 c #AEA59D",
"9 c #B0AAA2",
"0 c #B2ACA4",
"q c #B3AEA7",
"w c #B9B9B9",
/* pixels */
"                                ",
"       555555555555555555       ",
"     55;;;;;;;;;;;;;;;;;;55     ",
"    5;;;;;;;;;;;;;;;;;;;;;;5    ",
"   5;;;;;;;;;;;;;;;;;;;;;;;;5   ",
"  5;;;;##################;;;;5  ",
" 5;;;;##................##;;;;5 ",
"5;;;;##..&2.+2.&*.%-.--..##;;;;5",
"5;;;##.o.o+.oo.+o.o+..+.&.##;;;5",
"5;;;#.oO.oo.oo.+o.o++.o.oo.#;;;5",
"5;;;#.oO.oo.oo.OO.oo..o.Oo.#;;;5",
"5;;;#6896666666qq6666666886#;;;5",
"5;;;#>34>>>>>>>33>>>>>>>33>#;;;5",
"5;;;#.XX.XX.XX.X.XXX.XX.XX.#;;;5",
"5;;;#.+O.oO.oO.o.OoO.oO.oO.#;;;5",
"5;;;#.+O.oO.oO.o.+oO.+O.oO.#;;;5",
"5;;;#.+O.o=.oO.o.+oO.+O.oO.#;;;5",
"5;;;#.+O.+O.oO.o.&+O.+O.+O.#;;;5",
"5;;;#.+O.+O.oO.o..+O.+wwwO.#;;;5",
"5;;;#.+O.+O.oO.&+.+O.+,<,O.#;;;5",
"5;;;#.+O.+O.oO.++.+O.:$$$:.#;;;5",
"5;;;#.+O.+o.oo.o+.+owOo.+Ow#;;;5",
"5;;;#.+O.+o.oo.o+.+o:Oo.+o:#;;;5",
"5;;;#.+O.+o..o.o+.+o.,111,.#;;;5",
"5;;;#.oo.+@*.o.o+.+o.O$$$o.#;;;5",
"5;;;#.oo.ooO.o.oo.+..Oo.oo.#;;;5",
"5;;;#.oo.oO.oo.oo.O.OOo.oo.#;;;5",
"5;;;#6796666666796666666796#;;;5",
"5;;;#>33>>>>>>>33>>>>>>>33>#;;;5",
"5;;;#.XX.XX.XX.XX.XX.XX.XX.#;;;5",
"5;;;#.oo..o.oo.oo.oo.oo.oo.#;;;5",
"5;;;#.oo@.o.@o.o+.oo.oo.oo.#;;;5"
};
