/* XPM */
static char *_76c54dbe5fb4e4493b4fece3ed3f8a1HaxJMW1JHyAnw5B5[] = {
/* columns rows colors chars-per-pixel */
"32 32 33 1 ",
"  c #2C2116",
". c #3E2D1E",
"X c #4C3928",
"o c #523F2C",
"O c #634E38",
"+ c #66513D",
"@ c #40264D",
"# c #413D4F",
"$ c #563767",
"% c gray28",
"& c #67594B",
"* c #766047",
"= c #78624B",
"- c #7C644D",
"; c #796858",
": c #58526A",
"> c #644574",
", c #606060",
"< c #766D66",
"1 c #727272",
"2 c #777777",
"3 c gray50",
"4 c #836B52",
"5 c #81776F",
"6 c #888078",
"7 c #7A7290",
"8 c #999088",
"9 c #AAA098",
"0 c #AEA59D",
"q c #B0AAA2",
"w c #B2ACA4",
"e c #B3AEA7",
"r c #B9B9B9",
/* pixels */
"@@@@@@@@@@@@@@@@@@@@@@@@@@@@@@@@",
"@@@>>>>777777777777777777>>>>@@@",
"@@>$$77::::::::::::::::::77$$>@@",
"@>$$7::::::::::::::::::::::7$$>@",
"@>$7::::::::::::::::::::::::7$>@",
"@>7::::##################::::7>@",
"@7::::##                ##::::7@",
"7::::##  *4 O4 *= &; ;;  ##::::7",
"7:::## X XO XX OX XO  O * ##:::7",
"7:::# Xo XX XX OX XOO X XX #:::7",
"7:::# Xo XX XX oo XX  X oX #:::7",
"7:::#80q8888888ee8888888008#:::7",
"7:::#<56<<<<<<<55<<<<<<<55<#:::7",
"7:::# .. .. .. . ... .. .. #:::7",
"7:::# Oo Xo Xo X oXo Xo Xo #:::7",
"7:::# Oo Xo Xo X OXo Oo Xo #:::7",
"7:::# Oo X- Xo X OXo Oo Xo #:::7",
"7:::# Oo Oo Xo X *Oo Oo Oo #:::7",
"7:::# Oo Oo Xo X  Oo Orrro #:::7",
"7:::# Oo Oo Xo *O Oo O121o #:::7",
"7:::# Oo Oo Xo OO Oo ,%%%, #:::7",
"7:::# Oo OX XX XO OXroX Oor#:::7",
"7:::# Oo OX XX XO OX,oX OX,#:::7",
"7:::# Oo OX  X XO OX 13331 #:::7",
"7:::# XX O+= X XO OX o%%%X #:::7",
"7:::# XX XXo X XX O  oX XX #:::7",
"7:::# XX Xo XX XX o ooX XX #:::7",
"7:::#89q88888889q88888889q8#:::7",
"7:::#<55<<<<<<<55<<<<<<<55<#:::7",
"7:::# .. .. .. .. .. .. .. #:::7",
"7:::# XX  X XX XX XX XX XX #:::7",
"7:::# XX+ X +X XO XX XX XX #:::7"
};
