/* XPM */
static char *_78cbd50385244dbd17fb4760c61864acVH7XML25vIDEio7[] = {
/* columns rows colors chars-per-pixel */
"96 128 31 1 ",
"  c None",
". c #2E1E22",
"X c #222020",
"o c #3D2D26",
"O c #323234",
"+ c #5C0000",
"@ c #5C2E00",
"# c #7C003F",
"$ c #462F26",
"% c #453C3B",
"& c #534721",
"* c #69423A",
"= c #545456",
"- c #7C5E4F",
"; c #655C5A",
": c #705654",
"> c #767678",
", c #9A003F",
"< c #C5003F",
"1 c #964F00",
"2 c #8A7461",
"3 c #8F7772",
"4 c #8E8582",
"5 c #928A8C",
"6 c #979799",
"7 c #B7A099",
"8 c #B7B7BB",
"9 c gray85",
"0 c #D9D9DD",
"q c gray95",
"w c white",
/* pixels */
"                                              X%%%X                                             ",
"              X%%%X                          X%;;;%X                          X%%%X             ",
"             X%;;;%X                        XXXXXXXXX                        X%;;;%X            ",
"            XXXXXXXXX                     XX%%;;;;;%%XX                     XXXXXXXXX           ",
"          XX%%;;;;;%%XX                  X%;4;;;;;;;4;%X                  XX%%;;;;;%%XX         ",
"         X%;4;;;;;;;4;%X                X%;;;4444444;;;%X                X%;4;;;;;;;4;%X        ",
"        X%;;;4444444;;;%X              X%;;;;;;444;;;;;;%X              X%;;;4444444;;;%X       ",
"       X%;;;;;;444;;;;;;%X             X%;%%;;%;;;%;;%%;%X             X%;;;;;;444;;;;;;%X      ",
"       X%;%%;;%;;;%;;%%;%X            X%X%;;%;%%;%%;%;;%X%X            X%;%%;;%;;;%;;%%;%X      ",
"      X%X%;;%;%%;%%;%;;%X%X           XX%;;%222222222%;;%XX           X%X%;;%;%%;%%;%;;%X%X     ",
"      XX%;;%222222222%;;%XX           XX;;%22222222222%;;XX           XX%;;%222222222%;;%XX     ",
"      XX;;%22222222222%;;XX           X%;;-22222222222-;;%X           XX;;%22222222222%;;XX     ",
"      X%;;-22222222222-;;%X           X%4;-&&&22222&&&-;4%X           X%;;-22222222222-;;%X     ",
"      X%4;-&&&22222&&&-;4%X           X%4;&9.0222220.9&;4%X           X%4;-&&&22222&&&-;4%X     ",
"      X%4;&9.0222220.9&;4%X           X%;;&q.5222225.q&;;%X           X%4;&9.0222220.9&;4%X     ",
"      X%;;&q.5222225.q&;;%X           X%;;-w@@22222@@w-;;%X           X%;;&q.5222225.q&;;%X     ",
"      X%;;-w@@22222@@w-;;%X            X%;*-112222211-*;%X            X%;;-w@@22222@@w-;;%X     ",
"       X%;*-112222211-*;%X             X%;O*-2222222-*O;%X             X%;*-112222211-*;%X      ",
"       X%;O*-2222222-*O;%X             OX%>o$*-----*$o>%XO             X%;O*-2222222-*O;%X      ",
"       OX%6o$*-----*$o6%XO            O>8X6>ooooooooo>8X8>O            OX%6o$*-----*$o6%XO      ",
"      O>8X6>ooooooooo>8X8>O            O686O>68---86>O686O            O>8X8>ooooooooo>6X8>O     ",
"      O*66>O>68---86>O8-2=O           &$-*O>8086>6808>O*-$&           O=2-8O>68---86>O>66*O     ",
"     &:>>$O>8086>6808>o*-$o          O>8-$O=686>>>686=O$-8>O          o$-*o>8086>6808>O$>>:&    ",
"     &::OoO=686>>>686=o-2>O          O63:&+:=>>===>>=:+&:36O          O>2-o=686>>>686=OoO::&    ",
"      &&  +:=>>===>>=:&786O          &37:&##:::>>>:::##&:73&          O687&:=>>===>>=:+  &&     ",
"         +#,:::>>>:::##773O          &::&+#,<#>808>#<,#+&::&          O377##:::>>>:::,#+        ",
"         +,<<#>808>#,,#33:&           &&  +<<,<686<,<<+  &&           &:33#,,#>808>#<<,+        ",
"          +<<,<686<,<,+&&&                 O>#,<<<,#>O                 &&&+,<,<686<,<<+         ",
"           O6,<<<<,#>O                     O806O+O608O                     O>#,<<<<,6O          ",
"           O008O+&:::&                     &:::& &:::&                     &:::&+O800O          ",
"           &:33:  &&&                      &33:& &:33&                      &&&  :33:&          ",
"           &377:                            &&&   &&&                            :773&          ",
"                                                       XXX                                      ",
"                       XXX                    XXXXX   X;;;X                            XXX      ",
"              XXXXX   X;;;X                XXX%%%%%XXX;;;4;X                  XXXXX   X;;;X     ",
"           XXX%%%%%XXX;;;4;X             XX%%;;;;;;;%X;44;;%X              XXX%%%%%XXX;;;4;X    ",
"         XX%%;;;;;;;%X;44;;%X           X%;4;;;;;;;4;%X%;;;;X            XX%%;;;;;;;%X;44;;%X   ",
"        X%;4;;;;;;;4;%X%;;;;%X         X%;;;4444444;;;%X%;;;%X          X%;4;;;;;;;4;%X%;;;;%X  ",
"       X%;;;4444444;;;%X%;;;;X        X%;;;;;;444;;;;;;%X%;;;X         X%;;;4444444;;;%X%;;;;X  ",
"      X%;;;;;;444;;;;;;%X%;;;X        X%%;;%;;%%%;;;;%%%X%;;;X        X%;;;;;;444;;;;;;%X;;;;X  ",
"      X%%;;%;;%%%;;;;%%%X%;;;%X      X%%%%%%%%;;;%;;;;;;%X;;;X        X%%;;%;;%%%;;;;%%%X%;;;%X ",
"     X%%%%%%%%;;;%;;;;;;%X%;;%X      X%%;*-222%;;;%;;;;;%X;;;X       X%%%%%%%%;;;%;;;;;;%X;;;;X ",
"     X%%;*-222%;;;%;;;;;%X%;;%X      X%;;--2222%;;;%;;;%%X;;;X       X%%;*-222%;;;%;;;;;%X;;;;X ",
"     X%;;--2222%;;;%;;;%%X%%;%X      X%;;-22222%;;;%%%%%;X;;%X       X%;;--2222%;;;%;;;%%X;;;;X ",
"     X%;;-22222%;;;%%%%%;X%%%%X       X%;-22&&&2;4;oo%;;%X%;%X       X%;;-22222%;;;%%%%%;X;;;;%X",
"      X%;-22&&&2;4;oo%;;%X%%%%X       X%%-220.9&;4;-2o;;%X%;%X        X%;-22&&&2;4;oo%;;%X%;;;%X",
"      X%%-220.9&;4;-2o;;%XX%%%X        X%-225.q&;;;$2o;%%X%%%X        X%%-220.9&;4;-2o;;%X%;;;%X",
"       X%-225.q&;;;$2o;%%XX%%%X         o*22@@w2;;;$-o%%XX%%%X         X%-225.q&;;;$2o;%%XX;;;%X",
"        o*22@@w2;;;$-o%%X  X%%X         o$-21122;;;*o%%%XX%%X           o*22@@w2;;;$-o%%X X%;;%X",
"        o$-21122;;;*o%%%X  X%%X          o*-2222;;%*%%%X X%%X           o$-21122;;;*o%%%X  X;%X ",
"         o*-2222;;%*%%%X   X%X            o$**--;;%$%%X  X%X             o*-2222;;%*%%%X   X%%X ",
"          o$**--;;%$%%X     X              ooooo;%ooXX    X               o$**--;;%$%%X    X%X  ",
"           ooooo;%ooXX                    Oo-688%>66>O                     ooooo;%ooXX      X   ",
"          Oo-688%>66>O                   O=>6886=6086>O                   Oo-688%>866O          ",
"         O=>6886>8086>O                  O=6806>=>62*>O                  O=>6886=8086>O         ",
"         O=6806>O686>>O                   O==>>==&*86O                   O=6806>=>86286O        ",
"          O==>>O8--*>O                    O>>::::O68>O+                   O==>>==OO*-8>O        ",
"          O>>:&7786$o#+                  O>08,#,,&33:&#+                  O>>::::::&633:&       ",
"         O>08,&736>O#,#+                 O68#<,<<&73:&#+                 O>08,#,,##&373:&       ",
"         O68#,&:3:&,#,#+                  +#,<,<<,&&&#+                  O68<<,<<,,#&3:&        ",
"          ###,#&&&,<<#+                    ++++6008>++                    +<<,<<<,<,#&&         ",
"          &:::&+6:33:&                        &:3::&                      &73:::&+&::&          ",
"           &&&  &333:&                        &33::&                      &333:&  &&&           ",
"                 &&&&                          &&&&                        &&&&                 ",
"                                       XXX                                                      ",
"       XXX                            X;;;X   XXXXX                    XXX                      ",
"      X;;;X   XXXXX                  X;4;;;XXX%%%%%XXX                X;;;X   XXXXX             ",
"     X;4;;;XXX%%%%%XXX              X%;;44;X%;;;;;;;%%XX             X;4;;;XXX%%%%%XXX          ",
"    X%;;44;X%;;;;;;;%%XX            X;;;;%X%;4;;;;;;;4;%X           X%;;44;X%;;;;;;;%%XX        ",
"   X%;;;;%X%;4;;;;;;;4;%X          X%;;;%X%;;;4444444;;;%X         X%;;;;%X%;4;;;;;;;4;%X       ",
"   X;;;;%X%;;;4444444;;;%X         X;;;%X%;;;;;;444;;;;;;%X        X;;;;%X%;;;4444444;;;%X      ",
"   X;;;;X%;;;;;;444;;;;;;%X        X;;;%X%%%;;;;%%%;;%;;%%X        X;;;%X%;;;;;;444;;;;;;%X     ",
"  X%;;;%X%%%;;;;%%%;;%;;%%X        X;;;X%;;;;;;%;;;%%%%%%%%X      X%;;;%X%%%;;;;%%%;;%;;%%X     ",
"  X;;;;X%;;;;;;%;;;%%%%%%%%X       X;;;X%;;;;;%;;;%222-*;%%X      X%;;%X%;;;;;;%;;;%%%%%%%%X    ",
"  X;;;;X%;;;;;%;;;%222-*;%%X       X;;;X%%;;;%;;;%2222--;;%X      X%;;%X%;;;;;%;;;%222-*;%%X    ",
"  X;;;;X%%;;;%;;;%2222--;;%X       X%;;X;%%%%%;;;%22222-;;%X      X%;%%X%%;;;%;;;%2222--;;%X    ",
" X%;;;;X;%%%%%;;;%22222-;;%X       X%;%X%;;%oo;4;2&&&22-;%X       X%%%%X;%%%%%;;;%22222-;;%X    ",
" X%;;;%X%;;%oo;4;2&&&22-;%X        X%;%X%;;o2-;4;&9.022-%%X       X%%%%X%;;%oo;4;2&&&22-;%X     ",
" X%;;;%X%;;o2-;4;&9.022-%%X        X%%%X%%;o2$;;;&q.522-%X        X%%%XX%;;o2-;4;&9.022-%%X     ",
" X%;;;XX%%;o2$;;;&q.522-%X         X%%%XX%%o-$;;;2w@@22*o         X%%%XX%%;o2$;;;&q.522-%X      ",
" X%;;%X X%%o-$;;;2w@@22*o           X%%XX%%%o*;;;22112-$o         X%%X  X%%o-$;;;2w@@22*o       ",
"  X%;X  X%%%o*;;;22112-$o           X%%X X%%%*%;;2222-*o          X%%X  X%%%o*;;;22112-$o       ",
"  X%%X   X%%%*%;;2222-*o             X%X  X%%$%;;--**$o            X%X   X%%%*%;;2222-*o        ",
"   X%X    X%%$%;;--**$o               X    XXoo%;ooooo              X     X%%$%;;--**$o         ",
"    X      XXoo%;ooooo                     O>66>%886-oO                    XXoo%;ooooo          ",
"           O668>%886-oO                   O>6806=6886>=O                   O>66>%886-oO         ",
"          O>6808=6886>=O                  O>*26>=>6086=O                  O>6808>6886>=O        ",
"         O68268>=>6086=O                   O68*&==>>==O                   O>>686O>6086=O        ",
"         O>8-*OO==>>==O                   +O>86O::::>>O                    O>*--8O>>==O         ",
"        &:336&::::::>>O                  +#&:33&,,#,80>O                  +#o$6877&:>>O         ",
"        &:373&##,,#,80>O                 +#&:37&<<,<#86O                 +#,#O>637&,80>O        ",
"         &:3&#,,<<,<<86O                  +#&&&,<<,<,#+                  +#,#,&:3:&,#86O        ",
"          &&#,<,<<<,<<+                    ++>8006++++                    +#<<,&&&#,###         ",
"           &::&+&:::37&                      &::3:&                        &:33:6+&:::&         ",
"            &&&  &:333&                      &::33&                        &:333&  &&&          ",
"                  &&&&                        &&&&                          &&&&                ",
"                                                                                                ",
"                                                                                                ",
"                                            XXXXXXXXX                                           ",
"            XXXXXXXXX                     XX%%;;;;;%%XX                     XXXXXXXXX           ",
"          XX%%;;;;;%%XX                  X%;4;;%%%;;4;%X                  XX%%;;;;;%%XX         ",
"         X%;4;;%%%;;4;%X                X%44;X%;;;%X;44%X                X%;4;;%%%;;4;%X        ",
"        X%44;X%;;;%X;44%X              X%;;4X%;;;;;%X4;;%X              X%44;X%;;;%X;44%X       ",
"       X%;;4X%;;;;;%X4;;%X             X%;;;%;4;;;4;%;;;%X             X%;;4X%;;;;;%X4;;%X      ",
"       X%;;;%;4;;;4;%;;;%X            X%;;;;%;;444;;%;;;;%X            X%;;;%;4;;;4;%;;;%X      ",
"      X%;;;;%;;4444;;%;;;%X           X%;%;;%;;;4;;;%;;%;%X           X%;;;%;;4444;;%;;;;%X     ",
"      X%;%;;;%;;;4;;;%;%;%X           X%%;;;%;;;;;;;%;;;%%X           X%;%;%;;;4;;;%;;;%;%X     ",
"      X%%;;;;%;;;;;;;%;;%%X           Xo%;;%%;;;;;;;%%;;%oX           X%%;;%;;;;;;;%;;;;%%X     ",
"      Xo%;;%%%;;;;;;;;%;%oX           o*%;%;X;;;;;;;X;%;%*o           Xo%;%;;;;;;;;%%%;;%oX     ",
"      o*%;%;;%;;;;;;;;X;%*o           o*X%;;X%;;;;;%X;;%X*o           o*%;X;;;;;;;;%;;%;%*o     ",
"      o*X%;;;%X;;;;;;%X%X*o           XoX%%;X%;;;;;%X;%%XoX           o*X%X%;;;;;;X%;;;%X*o     ",
"      XoX%%;;;X%;;;;;%X%XoX           X%X%%%X%;%;%;%X%%%X%X           XoX%X%;;;;;%X;;;%%XoX     ",
"      X%X%%%%%X%;;;%;%X%X%X            X%X%%X%%%;%%%X%%X%X            X%X%X%;%;;;%X%%%%%X%X     ",
"       X%X%%%%X%%;;%%X%X%X             XOOX%%X%%;%%X%%XOOX             X%X%X%%;;%%X%%%%X%X      ",
"       XOOX%%%%X%%;%%XXOOX             O>6>XXX%%%%%XXX>6>O             XOOXX%%;%%X%%%%XOOX      ",
"       O686XXXXX%%%%XX>6>O            O>808>O=X%%%X=O>808>O            O>6>XX%%%%XXXXX686O      ",
"      O>808>O=>>X%%%X6008>O            O686O>68X%X86>O686O            O>8006X%%%X>>=O>808>O     ",
"       o686O>6888X%X>O8226O           o$-*O>6688X8866>O*-$o           O6228O>X%X8886>O686o      ",
"      O6-*O>668888X66>o*280O         O>8-$O=>6888886>=O$-8>O         O082*o>66X888866>O*-6O     ",
"      O>6:O=>6888886>=o$:37>&        O63:&&:=>66666>=:&&:36O        &>73:$o=>6888886>=O:6>O     ",
"       O::&:=>66666>=:+&:377&        &37:&##:::::::::##&:73&        &773:&+:=>66666>=:&::O      ",
"        &&#,:::::::::##+&:3:&        &::&+#,<#<<<<<#<,#+&::&        &:3:&+##:::::::::,#&&       ",
"         +,<<#<<<<<#,,#+ &&&          &&  +<<,<<<<<,<<+  &&          &&& +#,,#<<<<<#<<,+        ",
"          +<<,<<<<<,<,+                    O>#,<<<,#>O                    +,<,<<<<<,<<+         ",
"           O>,<<<<,#>>O                    O886O&O688O                    O>>#,<<<<,>O          ",
"           O888O+O:::&                     &:3:& &:3:&                     &:::O+O888O          ",
"           &:33:  &&&                      &33:& &:33&                      &&&  :33:&          ",
"           &377:                            &&&   &&&                            :773&          "
};
