/* XPM */
static char *f238220e36ca475fed19b0297b829fc9q4Ft62dGdqyQRwGI[] = {
/* columns rows colors chars-per-pixel */
"32 32 175 2 ",
"   c #222020",
".  c #282525",
"X  c #2E2A2A",
"o  c #332E2D",
"O  c #35302F",
"+  c #352B36",
"@  c #38293C",
"#  c #392D3D",
"$  c #373231",
"%  c #3B3635",
"&  c #4A2C1F",
"*  c #753C00",
"=  c #7E0E2A",
"-  c #651327",
";  c #6F102F",
":  c #711534",
">  c #5E2820",
",  c #4A322B",
"<  c #5D3C28",
"1  c #512F30",
"2  c #562D3B",
"3  c #473733",
"4  c #423B3A",
"5  c #5A3F35",
"6  c #543839",
"7  c #5B402D",
"8  c #53433C",
"9  c #5B453C",
"0  c #5C513D",
"q  c #7E542A",
"w  c #63473B",
"e  c #624D3B",
"r  c #66543C",
"t  c #7D5336",
"y  c #3A2544",
"u  c #3C2B43",
"i  c #611B43",
"p  c #422D45",
"a  c #40264D",
"s  c #422E4C",
"d  c #43334B",
"f  c #4C3948",
"g  c #543F44",
"h  c #452F50",
"j  c #4A3550",
"k  c #483454",
"l  c #4D345B",
"z  c #553B54",
"x  c #56305A",
"c  c #553A5C",
"v  c #6C3A4D",
"b  c #682850",
"n  c #563767",
"m  c #4C4543",
"M  c #48484A",
"N  c #564547",
"B  c #514846",
"V  c #5B4B44",
"C  c #544C4B",
"Z  c #594E4B",
"A  c #5E5444",
"S  c #5B514D",
"D  c #4B4251",
"F  c #5D4454",
"G  c #5E4C59",
"H  c #545253",
"J  c #5D5553",
"K  c #5C5C5E",
"L  c #644D44",
"P  c #6D4F43",
"I  c #645343",
"U  c #6C5444",
"Y  c #625844",
"T  c #6D5B45",
"R  c #64554C",
"E  c #64594D",
"W  c #6A594D",
"Q  c #765D49",
"!  c #6B4550",
"~  c #744858",
"^  c #625652",
"/  c #6B5751",
"(  c #645A55",
")  c #6C5D54",
"_  c #655C5A",
"`  c #6A5D5D",
"'  c #745E58",
"]  c #6D634F",
"[  c #716045",
"{  c #78604C",
"}  c #6D6350",
"|  c #6C625B",
" . c #756155",
".. c #7C6354",
"X. c #7D6A53",
"o. c #7A625B",
"O. c #72695E",
"+. c #7D685F",
"@. c #5B4069",
"#. c #5E5E60",
"$. c #655363",
"%. c #605F61",
"&. c #644574",
"*. c #6E5B79",
"=. c #646466",
"-. c #6D6464",
";. c #6C6A6C",
":. c #736666",
">. c #716866",
",. c #7D6B63",
"<. c #746B69",
"1. c #7C706C",
"2. c #7F6D7B",
"3. c #747374",
"4. c #7C7373",
"5. c #777779",
"6. c #7B7B7D",
"7. c #85002B",
"8. c #82003F",
"9. c #9B003F",
"0. c #A8003F",
"q. c #BA003F",
"w. c #8C5C2C",
"e. c #805B36",
"r. c #8C0D49",
"t. c #931544",
"y. c #941D4D",
"u. c #AE1C4F",
"i. c #832C49",
"p. c #87314E",
"a. c #922450",
"s. c #853855",
"d. c #AE2555",
"f. c #8D6A48",
"g. c #99734E",
"h. c #816956",
"j. c #836A58",
"k. c #B7496D",
"l. c #826962",
"z. c #876E6A",
"x. c #8A7461",
"c. c #82766C",
"v. c #8B726B",
"b. c #8C7D6A",
"n. c #8F7772",
"m. c #8C7A76",
"M. c #827A7A",
"N. c #8B7F7E",
"B. c #A5677D",
"V. c #89826A",
"C. c #948679",
"Z. c #776780",
"A. c #7E7E80",
"S. c #9F7A88",
"D. c #A46784",
"F. c #828285",
"G. c #8C8482",
"H. c #89898B",
"J. c #938485",
"K. c #9A8985",
"L. c #948C8D",
"P. c #9A9481",
"I. c #9F9188",
"U. c #8E8E91",
"Y. c #939295",
"T. c #9E9695",
"R. c #9A9A9D",
"E. c #A08980",
"W. c #A39D8F",
"Q. c #A58A9B",
"!. c #A59A95",
"~. c #AFA497",
"^. c #A5A5A8",
"/. c #B5B5B8",
"(. c #B9B9BD",
/* pixels */
"a a a a a a a a a a a a a y u p p u y u a a a a a a a a a a a a ",
"a a a &.&.&.&.&.&.&.&.&.@.u % B B 4 # n &.&.&.&.&.&.&.&.&.a a a ",
"a a &.n n n n n n n n l + X % m m 4 X + k n n n n n n n n &.a a ",
"a &.n n n n n n n l s + X + % % % % $ X # a l n n n n n n n &.a ",
"a &.n n n n n n l u X m S S _ _ _ _ H C B O + l n n n n n n &.a ",
"a &.n n n n n l # % H <.<.<.<.<.<.<.<.4.>.J 4 + l n n n n n &.a ",
"a &.n n n n l u % S _ _ <.4.M.G.G.C.3.>._ _ J 4 @ l n n n n &.a ",
"a &.n n n n s X B J Z J _ ^ ` 4.4.| J _ J C ^ C o u n n n n &.a ",
"a &.n n n l # o 4 Z C C J Z m H J m B J C C C 4 o + l n n n &.a ",
"a &.n n n s . o % Z ^ Z ) ) R ) } R ) ) S J J 4 o X u n n n &.a ",
"a &.n n n s   $ Z ^ S  .x.x.x.x.x.x.x.x...S J J $   # n n n &.a ",
"a &.n n n s . 4 _ ( W x.x.x.x.x.x.x.x.x.x. .R _ m . u n n n &.a ",
"a &.n n n s X H >.) Q [ [ X.x.x.x.x.h.[ [ { ) -.J o u n n n &.a ",
"a &.n n n s X J 4.E X.] Y b.x.x.x.x.b.} Y  .W 1.` o u n n n &.a ",
"a &.n n n s X Z <.I V.T.-.!.x.x.x.x.I.4.4.P.0 -.^ o u n n n &.a ",
"a &.n n n s o B _ E C.!.< X.x.x.x.x.h.w C.~.Y _ C o u n n n &.a ",
"y &.n n n l + 4 ^ / v.b.* q x.x.x.x.e.* g.E./ J f + d n n n &.a ",
"h &.n n n n d X N L w t w.f.x.x.x.x.f.w.t w V C O u n n n n &.a ",
"y Z.n n n n d X % H B 5 P Q j.j.j.j...U 9 m H 4 X p n n n n &.a ",
"a n n n n l j #.H Z 4.m , 5 9 9 9 9 5 , 3 4.=.C #.D l n n n &.a ",
"a &.n n n *.6.3.Y.6.A.C ^ <.) V 9 W <._ J A.H.H.A.3.Z.n n n &.a ",
"a &.n n n 2.1.V m.4.#.3.^.(.!.c.z.T.(.^.5.#.4.m.E >.2.n n n &.a ",
"a &.n n l D | ,.P 3 M A.(.(.R.6.6.Y./.(.H.M 3 e +.O.C l n n &.a ",
"a &.n n k H L.C.L & 1 -.F.H.5.=.=.3.U.H.;.6 & 9 m.U.K j n n &.a ",
"a &.n n l R J.n.r > ; v ~ ,.-.=.;.;.:.) ! : - w v.K.| f n n &.y ",
"a &.n n z e z.l.7 - i t.a.v 6.R.^.G.~ i.t.8.- < o.v.I N n n &.a ",
"a &.n n c N L F 2 - 7.u.u.y.B././.S.y.0.q.r.i g 9 e 9 z n n &.a ",
"a &.n n n c z n n x - i.y.9.u.k.k.d.9.y.p.b n n c g z n n n &.a ",
"a &.&.n n n n n n n k %.Q.D.s.= = s.D.Q.;.d n n n n n n n n &.a ",
"a a &.&.n n n n n n z E K.J.(  .l.A N.J.| f n n n n n n n &.a a ",
"a a a &.&.&.&.&.&.&.F r ,.o.r C.W.e ' l.T N &.&.&.&.&.&.&.a a a ",
"a a a a a a a a a a p 9 T I 8 G $.6 r T L p a a a a a a a a a a "
};
