/* XPM */
static char *b567b10e3542408f9881fc0c1481d875CAjmnlxTWEkhZ8EI[] = {
/* columns rows colors chars-per-pixel */
"32 32 40 1 ",
"  c #2B1835",
". c #2D1836",
"X c #2C1937",
"o c #301B3A",
"O c #311C3D",
"+ c #2E2235",
"@ c #302438",
"# c #322639",
"$ c #33273A",
"% c #361F41",
"& c #362042",
"* c #382B40",
"= c #3B2248",
"- c #3D244A",
"; c #3D244B",
": c #40264D",
"> c #413546",
", c #43334C",
"< c #45354E",
"1 c #44384A",
"2 c #45394B",
"3 c #473C4D",
"4 c #473751",
"5 c #4C3F52",
"6 c #4C4053",
"7 c #4E4154",
"8 c #4E4155",
"9 c #54465B",
"0 c #55465B",
"q c #5A4C63",
"w c #5B4D63",
"e c #5C4C63",
"r c #5F4F67",
"t c #5B4B6E",
"y c #62526A",
"u c #6D5A7D",
"i c #756183",
"p c #766284",
"a c #7E698B",
"s c #877193",
/* pixels */
"::::::::::::::::::::::::::::::::",
"ssssss:yyyyyyy:ssssss:ssssss:sss",
"yyyyyy:yyyyyyy:yyyyyy:yyyyyy:yyy",
"yyyyyy:yyyyyyy:444444:yyyyyy:444",
"::::::::::::::::::::::::::::::::",
"yyy:yyyyyy:ssssss:yyyyyy:ssssss:",
"yyy:yyyyyy:yyyyyy:yyyyyy:yyyyyy:",
"444:yyyyyy:yyyyyy:yyyyyy:444444:",
"::::::::::::::::::::::::::::::::",
"ssssss:yyyyyyy:yyyyyy:ssssss:sss",
"yyyyyy:yyyyyyy:yyyyyy:yyyyyy:yyy",
"44444<:yyyyyyy:444444:yyyyyy:444",
"::::::::::::::;:::::::::::::::::",
"sss:yyyyyy-ssssss:yyyyyy:ssssss:",
"rrr-rrrryr-ryrrrr;rrrrrr;rrrrrr-",
"<<<-rrrrrr-rrrrrr;rrrrrr;<<<<<<;",
";;;;;;;;;;;;;;;;;---;;;;;;;;;;;;",
"eqqqee;aaaaaaa;qrqqqq=aaaaaa=qqr",
"qrqqee;qqqqrqq=qwqqre;qqrqqq=wqq",
"qqqqee%,,,,,,,;qwqqqq%,4,,,,=qqq",
"%%%%%%%%%&&&%%%&&&%%%%%%&&&&%&&&",
"iii%00q900&iiiiip&pppppp&000000&",
"000%909q99&099990%00q00q&000000&",
"777o555559$$****$#955558O777777O",
"OOOOoOOOX@%OOOOOO%OOOOOXOOOOOOOO",
"775555Ouuuuuuu%777777OuuuuuuO777",
"333113O3333533X333333X733333X353",
"$$$+$$X$$$$$$$X333333X$$$$$$X$$$",
"XX.  XXXXXXXXXXXXXXXXXXXXXXXXXXX",
"ttt+tttttt+tttttt+tttttt+tttttt+",
">>>+>>>>>>+>>>>>>+*2>>>>+>>>>>*$",
"++++++++++++++++++++++++++++++++"
};
