/* XPM */
static char *f520810aef0d4d9bf0b90619047e67582IOEY7hyWsxBBVjU[] = {
/* columns rows colors chars-per-pixel */
"32 32 84 1 ",
"  c #1E1B15",
". c #2B1836",
"X c #2C1936",
"o c #2C1937",
"O c #2E1937",
"+ c #2E1938",
"@ c #311B3B",
"# c #311C3D",
"$ c #321C3E",
"% c #2E2235",
"& c #2F2437",
"* c #302438",
"= c #322638",
"- c #322639",
"; c #332739",
": c #33273A",
"> c #362A3E",
", c #44341D",
"< c #4F3D24",
"1 c #44392C",
"2 c #644C2D",
"3 c #60513F",
"4 c #775A34",
"5 c #361F41",
"6 c #361F42",
"7 c #362042",
"8 c #382B40",
"9 c #3C2E45",
"0 c #3B2248",
"q c #3D244A",
"w c #3D244B",
"e c #40264D",
"r c #413546",
"t c #433749",
"y c #43334C",
"u c #45354E",
"i c #44384A",
"p c #45394B",
"a c #463B4C",
"s c #473C4D",
"d c #473751",
"f c #4C3F53",
"g c #4D4054",
"h c #4E4154",
"j c #4E4155",
"k c #54465B",
"l c #55465B",
"z c #55475C",
"x c #725C40",
"c c #7F6A50",
"v c #5A4C63",
"b c #5B4D63",
"n c #5C4C63",
"m c #5F4F66",
"M c #5F4F67",
"N c #5B4B6E",
"B c #5E4E71",
"V c #62526A",
"C c #604F72",
"Z c #645376",
"A c #6A577A",
"S c #6B597B",
"D c #6C5A7C",
"F c #6D5A7D",
"G c #6D5B7D",
"H c #85643A",
"J c #F75C06",
"K c #F06B1D",
"L c #836847",
"P c #957245",
"I c #8E7557",
"U c #FFB32E",
"Y c #AC8656",
"T c #8C8378",
"R c #B38F64",
"E c #746082",
"W c #766284",
"Q c #7D688A",
"! c #7E698B",
"~ c #836C90",
"^ c #877193",
"/ c #9F968C",
"( c #B1ABA3",
") c #C4BDB6",
/* pixels */
"e^deeeeeeeeeeeeeeeeeeeeeeeeeeeee",
"e^^^^^eVVVVVVVe^^^^^^e^^^^^^e^^^",
"e^^VVVeVVVVVVVeVVVVVVeVVVVVVeVVV",
"e^ddddeVVVVVVVeddddddeVVVVVVeddd",
"eedeeeeeeeeeeeeeeeeeeeeeeeeeeeee",
"e^^eVVVVVVe^^^U^^eVVVVVVe^^^^^^e",
"e^VeVVVVVVeVVVUKVeVVVVVVeVVVVVVe",
"e^deVVVVVVeVUVKUVeVVVVVVedddddde",
"eedeeeeeeeeeKUKKeUeeeeeeeeeeeeee",
"e^^^^^eVVVVVVKJUKVVVVe^^^^^^e^^^",
"e^^VVVeVVVVVVUJJKKVVVeVVVVVVeVVV",
"e^ddddeVVVVVUJJJJKdddeVVVVVVeddd",
"eedeeeeeeeeKJJJJJJKeeeeeeeeeeeee",
"e^^eVVVVVVeHPPPYYYR VVVVe^^^^^^e",
"w~mwmmmMMMw4444LLLI MMMMwMMMMMMw",
"w~uwmmmmMMwM222xxc MMMMMwuuuuuuw",
"qquqqqwwqqqqw,,,, wwwwwwwwwwwwww",
"0!QQ!b0!!!!!~<<<< bbb0!!!!!!0bbb",
"0!Qvnn0bbbbbvb11 bbbb0bbbbbb0bbb",
"0!vvnn0yyyyyyy33 bbbb0yyyyyy0bbb",
"6796667767777T()/ 67777777777777",
"7WE6kkllll7WWW33 7WWWWWW7llllll7",
"7EE6lkllzl7lll33 7zlllll7llllll7",
"#Ff@ggjjjj#88833 #jjjjjj#jjjjjj#",
"$$>@##########33 ###############",
"$GASSF#FFFFFFF33 jjjj#FFFFFF#jjj",
"@ZZppsosssssssossssssossssssosss",
"oZr=:;o;::::::osssssso::::::o:::",
"@o=ooooooooooooooooooooooooooooo",
"NNNNNNNNNN%NNNNNN%NNNNNN%NNNNNN%",
"Cprrrrrrrr%rrrrrr%rrrrrr%rrrrrr%",
"B%%%%%%%%%%%%%%%%%%%%%%%%%%%%%%%"
};
